<?xml version="1.0" encoding="UTF-8" standalone="no"?>
<svg
   xmlns:dc="http://purl.org/dc/elements/1.1/"
   xmlns:cc="http://creativecommons.org/ns#"
   xmlns:rdf="http://www.w3.org/1999/02/22-rdf-syntax-ns#"
   xmlns:svg="http://www.w3.org/2000/svg"
   xmlns="http://www.w3.org/2000/svg"
   xmlns:sodipodi="http://sodipodi.sourceforge.net/DTD/sodipodi-0.dtd"
   xmlns:inkscape="http://www.inkscape.org/namespaces/inkscape"
   width="1639.65"
   height="1513.15"
   version="1"
   id="svg4"
   sodipodi:docname="computing.svg"
   inkscape:version="0.92.2 5c3e80d, 2017-08-06">
  <metadata
     id="metadata10">
    <rdf:RDF>
      <cc:Work
         rdf:about="">
        <dc:format>image/svg+xml</dc:format>
        <dc:type
           rdf:resource="http://purl.org/dc/dcmitype/StillImage" />
        <dc:title />
      </cc:Work>
    </rdf:RDF>
  </metadata>
  <defs
     id="defs8" />
  <sodipodi:namedview
     pagecolor="#ffffff"
     bordercolor="#666666"
     borderopacity="1"
     objecttolerance="10"
     gridtolerance="10"
     guidetolerance="10"
     inkscape:pageopacity="0"
     inkscape:pageshadow="2"
     inkscape:window-width="2560"
     inkscape:window-height="1367"
     id="namedview6"
     showgrid="false"
     fit-margin-top="5"
     fit-margin-left="5"
     fit-margin-bottom="5"
     fit-margin-right="5"
     inkscape:zoom="0.55529412"
     inkscape:cx="334.6921"
     inkscape:cy="586.72364"
     inkscape:window-x="0"
     inkscape:window-y="0"
     inkscape:window-maximized="1"
     inkscape:current-layer="svg4" />
  <path
     d="m 1167.1331,5 -70,70 c -13,-2 -27,2 -37,12 l -63.00005,63 c -11,11 -36,47 -43,72 l -7,4 c -6,6 -7,16 -2,24 l -43,42 21,21 -82,82 28,27 81,-81 20,20 42.99995,-43 1,1 a 19,19 0 0 0 31.0001,-8 c 26,-6 61,-29 73,-40 l 63,-63 c 8,-8 13,-20 12,-31 l 73,-73 z m 25,161 c -2,-7 -6,-14 -11,-20 l -13,-13 -60,60 -7,-7 -21,21 -16,-16 22,-21 -6,-5 60,-60 -18,-18 c -5,-4 -10,-8 -15,-10 l 60,-60 6,6 -33,33 6,6 33,-33 8,9 -32,32 6,6 32,-32 8,7 -33,33 6,6 33,-33 7,7 -32,33 6,6 32,-32 9,8 -33,33 6,6 33,-33 7,8 -32,32 6,6 32,-32 6,5 z"
     id="path2"
     inkscape:connector-curvature="0" />
  <path
     id="path60"
     d="m 387.11,66.03 v 23.98 a 23.78,23.78 0 0 0 0,40 V 360.96 H 92.18 l 0.01,-230.95 a 23.76,23.76 0 0 0 0,-40 V 66.03 h 227.43 a 23.77,23.77 0 0 0 40,0 h 27.5 m 0,-12.85 h -36.57 a 10.93,10.93 0 0 1 -21.85,0 H 92.18 c -7.1,0 -12.85,5.76 -12.85,12.85 v 33.06 a 10.93,10.93 0 0 1 0,21.86 v 240.01 c 0,7.1 5.76,12.86 12.85,12.86 h 294.93 c 7.1,0 12.86,-5.76 12.86,-12.86 V 120.95 a 10.93,10.93 0 1 1 0,-21.86 V 66.03 c 0,-7.1 -5.76,-12.85 -12.86,-12.85 z m -49.01,51.06 c 7.1,0 12.85,5.76 12.85,12.85 V 309.9 c 0,7.09 -5.76,12.85 -12.85,12.85 H 145.31 A 12.87,12.87 0 0 1 132.45,309.9 V 117.1 c 0,-7.1 5.76,-12.86 12.85,-12.86 h 192.8 m 0,-12.85 H 145.31 a 25.7,25.7 0 0 0 -25.7,25.7 V 309.9 a 25.7,25.7 0 0 0 25.7,25.7 h 192.8 a 25.7,25.7 0 0 0 25.71,-25.7 V 117.1 A 25.7,25.7 0 0 0 338.12,91.39 Z M 205.73,240.65 a 32.96,32.96 0 0 1 -21.64,8 c -3.07,0 -6.01,-0.39 -8.85,-1.19 a 33.42,33.42 0 0 1 -14.74,-8.6 33.4,33.4 0 0 1 -8.61,-32.46 33.65,33.65 0 0 1 15.39,-20 33.38,33.38 0 0 1 16.8,-4.57 c 4,0 7.85,0.68 11.57,2.05 a 31.82,31.82 0 0 1 10.08,5.96 l -6.84,11.25 a 19.34,19.34 0 0 0 -6.7,-4.7 20.59,20.59 0 0 0 -8.1,-1.64 c -2.85,0 -5.53,0.54 -8.01,1.62 a 20.46,20.46 0 0 0 -10.95,26.85 20.7,20.7 0 0 0 10.95,10.91 19.9,19.9 0 0 0 8,1.62 c 2.82,0 5.52,-0.54 8.1,-1.63 a 19.44,19.44 0 0 0 6.71,-4.7 z m 20.4,6.61 H 213.2 v -64.53 h 25.84 a 25.2,25.2 0 0 1 12.98,3.53 26.56,26.56 0 0 1 9.28,9.3 25.35,25.35 0 0 1 3.53,13 c 0,3.54 -0.67,6.87 -2.02,10.01 a 26.31,26.31 0 0 1 -5.53,8.21 26.18,26.18 0 0 1 -8.22,5.53 24.97,24.97 0 0 1 -10,2.03 h -12.93 z m 0,-51.62 v 25.84 h 12.91 a 12.62,12.62 0 0 0 9.1,-3.78 12.97,12.97 0 0 0 0,-18.28 13.24,13.24 0 0 0 -4.1,-2.77 12.6,12.6 0 0 0 -5,-1 h -12.92 z m 97.17,25.83 a 25.67,25.67 0 0 1 -15.77,23.75 25.16,25.16 0 0 1 -10.06,2.03 c -3.58,0 -6.92,-0.67 -10.06,-2.02 a 26.1,26.1 0 0 1 -8.18,-5.51 26.02,26.02 0 0 1 -5.51,-8.19 25.07,25.07 0 0 1 -2.03,-10.06 v -38.74 h 12.88 v 38.74 a 12.65,12.65 0 0 0 3.78,9.1 13.05,13.05 0 0 0 9.14,3.78 c 1.76,0 3.43,-0.34 5,-1.01 a 13.2,13.2 0 0 0 4.13,-2.77 13.26,13.26 0 0 0 2.77,-4.1 12.43,12.43 0 0 0 1.01,-5 v -38.74 h 12.92 v 38.74 z"
     inkscape:connector-curvature="0" />
  <g
     id="g140"
     transform="translate(-16.35,437.55)">
    <path
       id="path123"
       d="M 235.6,433.3 H 195.4 A 5.3,5.3 0 0 1 190.1,428 V 84 c 0,-3 2.4,-5.3 5.3,-5.3 h 40.1 a 7.3,7.3 0 1 0 0,-14.5 h -40.1 c -11,0 -19.9,8.8 -19.9,19.8 v 344 c 0,11 9,19.8 19.9,19.8 h 40.2 a 7.3,7.3 0 1 0 0,-14.5 z m 81,-369.1 h -44 a 7.3,7.3 0 1 0 0,14.5 h 44 c 3,0 5.3,2.4 5.3,5.3 v 344 c 0,3 -2.4,5.3 -5.3,5.3 h -43.9 a 7.3,7.3 0 1 0 0,14.5 h 44 c 10.9,0 19.8,-8.9 19.8,-19.8 V 84 c 0,-11 -9,-19.8 -19.9,-19.8 z"
       inkscape:connector-curvature="0" />
    <path
       id="path125"
       d="m 447,197.8 c 12,0 21.7,-9.8 21.7,-21.7 v -19.3 c 0,-12 -9.7,-21.7 -21.7,-21.7 h -46.4 v -27 H 447 c 12,0 21.7,-9.7 21.7,-21.6 V 67.2 C 468.7,55.2 459,45.5 447,45.5 H 400.6 V 28.3 A 28.3,28.3 0 0 0 372.4,0 H 139.6 A 28.3,28.3 0 0 0 111.4,28.3 V 45.5 H 65 c -12,0 -21.7,9.7 -21.7,21.7 v 19.3 c 0,12 9.7,21.7 21.7,21.7 h 46.4 V 135 H 65 c -12,0 -21.7,9.7 -21.7,21.7 V 176 c 0,12 9.7,21.7 21.7,21.7 h 46.4 v 26.9 H 65 c -12,0 -21.7,9.7 -21.7,21.6 v 19.3 c 0,12 9.7,21.7 21.7,21.7 h 46.4 v 27 H 65 c -12,0 -21.7,9.7 -21.7,21.6 v 19.3 c 0,12 9.7,21.7 21.7,21.7 h 46.4 v 27 H 65 c -12,0 -21.7,9.7 -21.7,21.6 v 19.3 c 0,12 9.7,21.7 21.7,21.7 h 46.4 v 17.2 a 28.3,28.3 0 0 0 28.2,28.3 h 232.8 a 28.3,28.3 0 0 0 28.2,-28.3 V 466.4 H 447 c 12,0 21.7,-9.7 21.7,-21.7 v -19.3 c 0,-12 -9.7,-21.7 -21.7,-21.7 H 400.6 V 377 H 447 c 12,0 21.7,-9.7 21.7,-21.7 V 336 c 0,-12 -9.7,-21.7 -21.7,-21.7 H 400.6 V 287.4 H 447 c 12,0 21.7,-9.7 21.7,-21.6 v -19.3 c 0,-12 -9.7,-21.7 -21.7,-21.7 h -46.4 v -27 z M 400.6,60 H 447 a 7,7 0 0 1 7.1,7 v 19.4 a 7,7 0 0 1 -7,7.1 H 400.6 V 60.1 Z m 0,89.6 H 447 a 7,7 0 0 1 7.1,7 V 176 a 7,7 0 0 1 -7,7 H 400.6 Z M 111.4,451.9 H 65 a 7,7 0 0 1 -7.1,-7 v -19.4 a 7,7 0 0 1 7,-7.1 h 46.5 z m 0,-89.6 H 65 a 7,7 0 0 1 -7.1,-7 v -19.4 a 7,7 0 0 1 7,-7 h 46.5 z m 0,-89.5 H 65 a 7,7 0 0 1 -7.1,-7.1 v -19.3 c 0,-4 3.2,-7.2 7,-7.2 h 46.5 z m 0,-89.6 H 65 a 7,7 0 0 1 -7.1,-7.1 v -19.3 a 7,7 0 0 1 7,-7.1 h 46.5 z m 0,-89.6 H 65 A 7,7 0 0 1 57.9,86.5 V 67.2 a 7,7 0 0 1 7,-7.1 h 46.5 z M 386,483.7 c 0,7.6 -6.1,13.7 -13.6,13.7 H 139.6 c -7.5,0 -13.6,-6.1 -13.6,-13.7 V 28.3 c 0,-7.6 6,-13.7 13.6,-13.7 h 232.8 c 7.5,0 13.6,6.1 13.6,13.7 z m 61,-65.3 a 7,7 0 0 1 7.1,7.1 v 19.3 a 7,7 0 0 1 -7,7.1 h -46.5 v -33.5 z m 0,-89.6 a 7,7 0 0 1 7.1,7.1 v 19.3 a 7,7 0 0 1 -7,7.1 h -46.5 v -33.5 z m 0,-89.6 a 7,7 0 0 1 7.1,7.2 v 19.3 a 7,7 0 0 1 -7,7 h -46.5 v -33.5 z"
       inkscape:connector-curvature="0" />
    <path
       id="path127"
       d="m 287.9,306.2 a 4,4 0 0 0 2.9,-3.8 v -5.6 c 0,-2.6 -2.6,-4.5 -5,-3.7 l -27.3,8.8 a 15.4,15.4 0 0 0 -5.8,-6.8 24,24 0 0 0 -11.2,-2.3 c -3.1,0 -5.8,0.5 -8.1,1.5 -2.3,1 -4.1,2.4 -5.5,4.4 a 21,21 0 0 0 -3,6.6 c -0.6,2.5 -0.9,5.5 -0.9,8.8 V 325 c 0,2.1 1.7,3.8 3.8,3.8 H 287 c 2.2,0 3.9,-1.7 3.9,-3.8 v -6 c 0,-2 -1.7,-3.8 -3.8,-3.8 h -27 V 313 l 27.9,-7 z m -36.1,9.1 h -17.9 v -4.5 c 0,-1 0.3,-1.7 1,-2.4 a 6,6 0 0 1 2.5,-1.4 20.9,20.9 0 0 1 5.3,-0.7 16.7,16.7 0 0 1 5.4,0.9 c 1,0.3 2,0.8 2.6,1.6 0.7,0.7 1,1.6 1,2.7 v 3.8 z m 36.4,-56.8 a 3.1,3.1 0 0 0 2.6,-3 v -6.9 a 3,3 0 0 0 -3.8,-3 l -60.5,13 a 3.1,3.1 0 0 0 -2.5,3 v 7 a 3,3 0 0 0 2.5,3 l 60.5,13 a 3,3 0 0 0 3.8,-3 v -6.9 a 3,3 0 0 0 -2.6,-3 l -11.7,-2.2 v -8.7 z m -20,10 -24.8,-3.4 24.8,-3.4 v 6.9 z m 20.3,-43.4 -45,-0.3 45.5,-7.8 c 1,-0.2 1.9,-1.2 1.9,-2.3 v -6.2 c 0,-1.1 -0.8,-2 -2,-2.3 -4.8,-0.7 -12,-2 -21.5,-3.6 l -23.5,-3.9 44.7,-0.2 c 1.3,0 2.3,-1 2.3,-2.4 v -5.3 c 0,-1.3 -1,-2.3 -2.3,-2.3 h -62.2 c -1.3,0 -2.3,1 -2.3,2.3 v 11.4 c 0,1.1 0.8,2 2,2.3 l 42.5,7.3 -42.5,6.8 c -1.2,0.2 -2,1.2 -2,2.3 v 11.9 c 0,1.3 1,2.3 2.3,2.3 h 62.2 c 1.2,0 2.3,-1 2.3,-2.3 v -5.4 c 0,-1.2 -1,-2.3 -2.3,-2.3 z"
       inkscape:connector-curvature="0" />
  </g>
  <path
     id="path190"
     d="m 47.7,1124.15 h 384 a 42.7,42.7 0 0 0 0,-85.3 h -384 a 42.7,42.7 0 0 0 0,85.3 z m 277.3,-64 h 106.7 a 21.4,21.4 0 0 1 0,42.7 H 325 Z m 53.6,153.3 a 53,53 0 0 0 -45.4,-25.3 h -187 a 53,53 0 0 0 -45.4,25.3 c 0,0 -64.8,107.4 -88,142.1 a 58,58 0 0 0 -7.8,24.6 v 85.4 a 42.7,42.7 0 0 0 42.7,42.6 h 384 a 42.7,42.7 0 0 0 42.6,-42.6 v -85.4 a 55,55 0 0 0 -7.5,-24 c -19,-37.3 -88.2,-142.7 -88.2,-142.7 z m -241.6,22.5 c 2,-3.2 5.4,-5.1 9.1,-5.1 h 187.1 c 3.8,0 7.1,1.8 9.1,5 l 62.9,101.7 h -331 l 62.8,-101.7 z m -46.7,218.9 a 10.7,10.7 0 1 1 -21.3,0 v -64 a 10.7,10.7 0 1 1 21.3,0 z m 42.7,0 a 10.7,10.7 0 1 1 -21.3,0 v -64 a 10.7,10.7 0 1 1 21.3,0 z m 42.7,0 a 10.7,10.7 0 1 1 -21.4,0 v -64 a 10.7,10.7 0 1 1 21.4,0 z m 149.3,-10.7 a 21.4,21.4 0 1 1 0,-42.7 21.4,21.4 0 0 1 0,42.7 z m 64,0 a 21.4,21.4 0 1 1 0,-42.7 21.4,21.4 0 0 1 0,42.7 z"
     inkscape:connector-curvature="0" />
  <path
     id="path249"
     d="m 1231.2602,854.06915 v -3.45228 l -0.5754,-3.45227 v -4.60303 l -0.5754,-5.7538 v -3.45227 l -0.5754,-4.02765 -0.5753,-4.02766 v -3.45227 l -2.3016,-13.8091 -1.1507,-6.90455 -1.1508,-6.32917 -2.8769,-11.50759 -0.5754,-2.30151 -0.5753,-2.30152 -1.1508,-4.60303 -1.1507,-4.02766 -1.1508,-3.45227 -1.1508,-3.45228 c -0.5753,-1.72613 -2.3015,-2.30151 -3.4522,-2.30151 l -92.6361,26.46744 c -1.1507,0.57538 -2.3015,1.72613 -1.7261,3.45227 v 1.72614 l 0.5754,2.30152 0.5753,2.87689 v 2.8769 l 0.5754,1.72614 v 1.72613 l 1.1508,8.05531 v 4.02765 l 0.5754,4.60304 v 17.83675 l -0.5754,6.32917 v 1.72614 l -0.5754,2.30152 v 4.60303 l -0.5754,4.60303 -0.5754,4.02766 -1.1507,4.60303 -0.5754,3.45227 -0.5754,4.02766 a 6024.2197,6024.2197 0 0 1 -1.1507,4.60303 l -0.5754,1.15076 v 0.57538 h 112.7743 c 1.7261,0 2.8769,-1.15076 2.8769,-2.30152 l 0.5754,-6.90455 z m -29.3444,-118.52811 c 1.1508,-0.57538 2.3016,-2.30151 1.1508,-4.02765 l -0.5754,-2.30152 a 1779.0723,1779.0723 0 0 1 -3.4523,-6.32917 l -2.3015,-4.60303 -1.1507,-2.30152 -1.1508,-2.30151 -2.8769,-5.17842 a 17337.325,17337.325 0 0 1 -4.603,-7.47993 l -1.7262,-2.87689 -3.4522,-5.75379 -8.0553,-10.93221 -1.7262,-2.87689 -1.1507,-1.72614 -1.1508,-1.15076 -4.0277,-5.75379 -4.603,-5.75379 -2.3015,-2.30152 -2.3015,-2.87689 -2.3015,-2.8769 a 77.100806,77.100806 0 0 0 -6.9046,-7.47993 l -4.603,-4.60303 -4.6031,-4.02766 -4.603,-4.02765 -4.0276,-4.02765 -4.0277,-3.45228 -3.4523,-2.87689 -2.8769,-2.30152 -2.8769,-2.30152 -2.8769,-2.30151 c -1.1507,-0.57538 -2.8769,-0.57538 -4.0276,0.57538 l -49.4826,59.83943 c -1.1508,1.15076 -1.1508,2.87689 0,4.02765 l 1.7261,1.15076 1.7262,1.72614 1.7261,2.30151 2.3015,2.30152 2.3015,2.8769 2.8769,2.87689 2.3015,2.8769 2.8769,3.45227 2.8769,4.02766 a 25550.862,25550.862 0 0 1 4.0277,5.75379 l 1.7261,1.72614 1.1508,2.30151 1.1507,1.72614 2.8769,4.60303 2.3016,4.02766 0.5753,1.15075 0.5754,1.15076 1.1508,2.30152 4.603,8.05531 1.7261,4.02765 1.1508,2.30152 0.5754,1.72614 1.7261,4.02765 1.7262,3.45227 0.5753,1.72614 0.5754,1.72614 0.5754,2.30152 1.1507,2.30151 0.5754,2.8769 1.1508,2.30152 c 0.5754,1.72613 2.3015,2.30151 3.4523,1.72613 z M 949.32439,628.52052 h 2.30151 l 2.8769,0.57538 3.45227,0.57538 2.8769,0.57538 31.64585,-63.86709 -4.60303,-0.57538 -3.45227,-0.57537 -2.8769,-0.57538 -5.75379,-0.57538 -5.17841,-0.57538 H 965.435 l -4.02765,-0.57538 h -4.02765 a 25515.188,25515.188 0 0 0 -6.90455,0 c -1.72614,0 -2.8769,1.15076 -2.8769,2.87689 l -2.8769,59.26406 c 0,1.72613 1.15076,2.87689 2.30152,2.87689 z m 84.00531,32.79661 2.3016,1.72614 2.3015,1.15076 1.1507,1.15076 1.1508,0.57538 1.7261,1.72613 c 1.7262,1.15076 3.4523,0.57538 4.0277,-0.57538 L 1086.84,604.3546 c 1.1508,-1.15076 0.5754,-2.8769 -0.5754,-3.45228 l -2.3015,-1.72613 -1.1507,-0.57538 -1.7262,-0.57538 -3.4523,-2.30152 -4.603,-2.30152 -4.603,-2.30151 -4.6031,-2.30152 -5.1784,-2.30152 -5.7538,-2.87689 -6.3291,-2.30152 -1.1508,-0.57538 -17.8367,76.52543 2.8768,1.72614 z M 894.08799,627.94514 h 2.30152 a 1984.4827,1984.4827 0 0 0 10.9322,-1.15076 h 4.02765 l 2.8769,-0.57537 h 8.05531 c 1.72614,0 2.87689,-1.15076 2.87689,-2.8769 l -3.45227,-56.38716 c 0,-1.15076 -1.72614,-2.87689 -3.45228,-2.30151 h -2.30151 l -2.8769,0.57538 -4.02765,0.57537 -4.60304,0.57538 -2.30151,0.57538 -2.8769,0.57538 -5.17841,1.15076 -5.17841,1.15076 -2.8769,0.57538 -2.87689,0.57538 -6.32918,1.72613 -6.32917,1.72614 -2.87689,1.15076 -3.45228,1.15076 -2.87689,1.15076 a 70.196256,70.196256 0 0 0 -9.78145,3.45227 l -5.75379,2.30152 -3.45227,1.72614 -2.8769,1.15075 -2.8769,1.72614 -2.87689,1.15076 -5.75379,2.8769 -5.75379,2.87689 -5.17842,2.8769 -4.60303,2.87689 -4.60303,2.8769 -4.02766,2.30152 -3.45227,2.87689 -2.8769,1.72614 -2.87689,2.30151 -2.8769,1.72614 c -1.15076,1.15076 -1.15076,2.8769 -0.57538,4.02766 l 23.59055,33.94737 c 0.57538,1.72613 2.30151,1.72613 3.45227,1.15075 l 2.30152,-1.15075 2.30151,-1.15076 2.8769,-1.72614 2.8769,-1.72614 3.45227,-1.72613 4.02766,-1.72614 4.02765,-1.72614 4.60303,-1.72614 4.60304,-1.72613 4.60303,-1.72614 2.30152,-1.15076 2.87689,-0.57538 2.30152,-0.57538 2.87689,-1.15076 5.17842,-1.15075 5.17841,-1.15076 2.30151,-0.57538 2.8769,-0.57538 2.30152,-0.57538 2.30151,-0.57538 5.17842,-1.15076 z m -158.80465,44.3042 -1.72613,2.87689 -1.72614,2.30152 -1.72614,2.8769 -4.02768,5.17841 -2.8769,5.75379 -1.15076,1.15076 -0.57537,1.72613 -1.72614,2.8769 -5.75379,10.9322 -2.8769,5.17842 -1.15076,2.30151 -1.15076,2.8769 -2.30151,4.60303 -1.72614,4.60304 -1.72614,4.60303 a 6821.6952,6821.6952 0 0 1 -2.87689,6.90455 l -1.15076,3.45227 -0.57538,2.8769 c -0.57538,1.15076 0,2.8769 1.72614,3.45227 l 21.28903,8.05531 c 1.72613,0.57538 2.87689,0 3.45227,-1.15076 l 1.15076,-2.30151 1.15076,-2.8769 1.72616,-2.87689 1.72614,-2.8769 1.72614,-3.45227 2.30151,-4.02766 2.30152,-4.02765 1.72614,-2.30152 1.15076,-2.30152 2.87689,-4.02765 6.32917,-9.20607 1.72614,-1.72613 0.57538,-1.15076 1.15076,-1.15076 3.45227,-4.60303 3.45228,-4.02766 1.72614,-2.30151 1.72613,-2.30152 a 6163.4615,6163.4615 0 0 0 4.02766,-4.02766 l 3.45227,-3.45227 4.02766,-3.45227 3.45227,-3.45228 3.45228,-3.45227 3.45227,-2.8769 2.8769,-2.30152 2.30151,-2.30151 2.30152,-1.72614 1.15076,-1.15076 a 814.73688,814.73688 0 0 1 3.45227,-2.30152 c 1.15076,-0.57538 1.72614,-2.87689 0.57538,-4.02765 l -24.7413,-28.76896 c -1.15076,-1.15076 -2.8769,-1.15076 -4.02766,0 l -2.30151,1.72614 -0.57538,0.57538 -1.15076,1.15076 -2.8769,2.87689 -2.87689,3.45228 -3.45228,3.45227 -3.45227,3.45228 -3.45228,4.02765 -4.02765,4.60304 -3.45227,4.60303 a 11288.364,11288.364 0 0 0 -5.7538,7.47993 z m -44.8796,101.84211 -0.57538,2.30151 -0.57538,2.8769 -0.57538,3.45227 -0.57538,4.02766 -0.57537,2.30151 v 2.30152 l -1.15076,10.35683 -0.57538,5.17841 -0.57538,5.75379 -0.57538,12.08296 v 12.65834 l 0.57538,6.32917 v 6.32917 l 0.57538,2.8769 v 2.8769 l 0.57538,2.87689 v 2.8769 l 1.15076,5.75379 0.57537,5.75379 1.15076,5.17841 c 0,1.72614 1.15076,2.30152 2.8769,2.30152 h 7.47993 c 1.72614,0 2.87689,-1.15076 2.87689,-2.8769 v -1.15075 l -0.57538,-5.17842 v -5.17841 a 23125.639,23125.639 0 0 1 0,-6.90455 v -9.78144 l 0.57538,-2.8769 v -2.8769 l 0.57538,-5.75379 v -2.87689 l 0.57538,-2.8769 v -2.87689 l 0.57538,-1.72614 v -1.15076 l 1.72614,-10.9322 1.15076,-5.17842 1.15076,-5.17841 2.30151,-9.20607 0.57538,-1.72613 0.57538,-2.30152 0.57538,-3.45227 1.15076,-2.8769 1.15076,-2.8769 0.57537,-2.30151 c 0.57538,-1.72614 -0.57537,-3.45228 -1.72613,-3.45228 l -19.56289,-5.17841 c -1.15076,-0.57538 -2.8769,0.57538 -3.45228,2.30152 z m 216.91797,98.96521 a 43.728815,43.728815 0 0 0 62.71633,-29.34434 l 44.30416,-193.90277 17.2614,-73.64853 10.3568,-46.03033 c 1.1508,-5.17842 -2.8769,-8.63069 -6.9045,-8.63069 -2.8769,0 -5.1784,1.15076 -6.9046,4.02765 l -21.289,43.72882 -31.64585,64.44246 -88.03301,180.66906 c -10.35683,21.86441 -1.72614,48.33185 20.13827,58.68867 z m 21.28903,-62.14095 a 21.864408,21.864408 0 1 1 0,43.15344 21.864408,21.864408 0 0 1 0,-43.15344 z"
     inkscape:connector-curvature="0"
     style="stroke-width:0.57537913" />
  <path
     id="path870"
     d="m 1214.4572,1115.9661 v 236 H 853.45718 v -236 m -7,-15 c -5,0 -8,3 -8,7 v 251 c 0,5 3,8 8,8 h 376.00002 c 4,0 8,-3 8,-8 v -251 c 0,-4 -4,-7 -8,-7 m -381.00002,-37 c -22,0 -40,18 -40,41 v 283 h -17 c -5,0 -8,3 -8,8 v 15 c 0,31 25,56 55,56 h 402.00002 c 30,0 55,-25 55,-56 v -15 c 0,-5 -3,-8 -8,-8 h -17 v -283 c 0,-23 -18,-41 -40,-41 m 0,15 c 14,0 25,12 25,26 v 283 H 816.45718 v -283 c 0,-14 11,-26 25,-26 m 432.00002,332 c 0,22 -18,40 -40,40 H 831.45718 c -22,0 -40,-18 -40,-40 v -8 h 463.00002 c 0.9911,0.1892 2.0089,0.1892 3,0 h 16 z"
     inkscape:connector-curvature="0"
     sodipodi:nodetypes="cccccssssssccscsssssssscsccsccscssssccccs" />
  <path
     id="path938"
     d="m 402.06392,1712.388 c -5.37225,-80.5836 -71.62995,-145.0506 -152.21363,-145.0506 -47.45484,0 -94.90968,24.1751 -124.45703,62.6762 h -0.89537 a 83.269809,83.269809 0 0 0 -14.32599,-6.2676 h -3.5815 l -6.26762,-1.7908 h -2.686117 l -8.95374,-0.8953 A 80.583686,80.583686 0 0 0 8.0992334,1705.225 c -36.7103504,19.6983 -62.6762004,62.6762 -62.6762004,105.6542 0,62.6762 51.9317104,114.6079 114.60791,114.6079 H 375.20269 A 107.44491,107.44491 0 0 0 482.6476,1818.0422 c 0,-49.2456 -34.02422,-93.1189 -80.58368,-105.6542 z m -26.86123,195.1916 H 287.45601 281.18839 60.030943 c -53.7224596,0 -96.70042,-43.8733 -96.70042,-96.7004 0,-37.6057 24.1751,-76.1068 57.30395,-92.2236 l 5.37225,-2.6861 v -5.3722 -7.163 -1.7908 a 62.6762,62.6762 0 0 1 80.583677,-59.99 l 8.05837,2.6861 1.79075,0.8954 a 62.6762,62.6762 0 0 1 34.9196,56.4085 8.9537429,8.9537429 0 1 0 17.90748,0 80.583686,80.583686 0 0 0 -28.65197,-61.7808 c 25.96585,-33.1288 68.04844,-54.6178 110.13103,-54.6178 68.94382,0 127.14315,54.6178 132.5154,124.457 -8.95374,0 -22.38436,-0.8954 -35.81497,0.8954 a 9.053919,9.053919 0 0 0 2.68612,17.9075 c 19.69823,-2.6862 40.29184,0 41.18722,0 42.08259,8.0583 73.42069,46.5594 73.42069,89.5374 a 89.537429,89.537429 0 0 1 -89.53743,89.5374 z"
     inkscape:connector-curvature="0"
     style="stroke-width:8.95374298" />
  <g
     id="g110"
     transform="matrix(0.57089202,0,0,0.57089202,-380.79808,1185.1161)">
    <path
       id="path93"
       d="M 416,0 H 96 A 42.7,42.7 0 0 0 53.3,42.7 V 469.3 A 42.6,42.6 0 0 0 96,512 h 320 c 23.6,0 42.7,-19 42.7,-42.7 V 42.7 A 42.6,42.6 0 0 0 416,0 Z M 234.7,490.7 H 96 A 21.4,21.4 0 0 1 74.7,469.3 V 362.7 h 5 a 227,227 0 0 0 52,47.8 l -1.4,1 a 32,32 0 1 0 44.8,44.8 L 189.5,438 a 218.7,218.7 0 0 0 45.2,9 z m 42.6,-192 c -2.6,0 -5,1 -6.9,2.5 l -65.6,51.7 -2.8,-1.1 A 138.4,138.4 0 0 1 117.3,224 a 137.6,137.6 0 0 1 40.6,-98 138.3,138.3 0 0 1 196.2,0 138.4,138.4 0 0 1 0,196 138.5,138.5 0 0 1 -105,40.5 l 36.4,-46.3 a 10.7,10.7 0 0 0 -8.1,-17.6 z m -68.5,78.2 1.4,0.4 -51.9,65.8 -0.2,0.3 -0.2,0.3 a 10.7,10.7 0 1 1 -15,-15 l 0.4,-0.2 0.2,-0.2 z m 228.5,92.4 c 0,11.8 -9.5,21.4 -21.3,21.4 H 256 v -64 a 204,204 0 0 1 -52.2,-6.8 l 29.5,-37.5 a 160,160 0 1 0 -47.5,-14.6 l -36.4,28.7 a 204.3,204.3 0 0 1 -59,-55.2 H 74.7 V 42.7 C 74.7,30.9 84.2,21.3 96,21.3 h 320 c 11.8,0 21.3,9.6 21.3,21.4 z"
       inkscape:connector-curvature="0" />
    <path
       id="path95"
       d="m 416,32 a 10.7,10.7 0 1 0 0,21.3 10.7,10.7 0 0 0 0,-21.3 z m 0,426.7 a 10.7,10.7 0 1 0 0,21.3 10.7,10.7 0 0 0 0,-21.3 z M 96,32 A 10.7,10.7 0 1 0 96,53.3 10.7,10.7 0 0 0 96,32 Z m 160,181.3 a 10.7,10.7 0 1 0 0,21.4 10.7,10.7 0 0 0 0,-21.4 z m 0,-106.6 A 117.3,117.3 0 0 0 138.7,224 10.7,10.7 0 0 0 160,224 c 0,-25.6 10,-49.8 28.1,-67.9 a 95.4,95.4 0 0 1 68,-28.1 10.7,10.7 0 1 0 0,-21.3 z"
       inkscape:connector-curvature="0" />
    <path
       id="path97"
       d="m 256,170.7 a 53.3,53.3 0 1 0 0,106.6 53.3,53.3 0 0 0 0,-106.6 z m 0,85.3 a 32,32 0 1 1 0,-64 32,32 0 0 1 0,64 z M 96,458.7 a 10.7,10.7 0 1 0 0,21.3 10.7,10.7 0 0 0 0,-21.3 z m 210.2,-28.9 a 10.7,10.7 0 0 0 -18.2,7.5 v 32 a 10.7,10.7 0 1 0 21.3,0 v -32 c 0,-2.7 -1,-5.4 -3,-7.5 z m 32,0 a 10.7,10.7 0 0 0 -18.2,7.5 v 32 a 10.7,10.7 0 1 0 21.3,0 v -32 c 0,-2.7 -1,-5.4 -3,-7.5 z m 32,0 a 10.7,10.7 0 0 0 -18.2,7.5 v 32 a 10.7,10.7 0 1 0 21.3,0 v -32 c 0,-2.7 -1,-5.4 -3,-7.5 z"
       inkscape:connector-curvature="0" />
  </g>
</svg>
