<?xml version="1.0" encoding="UTF-8" standalone="no"?>
<!-- Created with Inkscape (http://www.inkscape.org/) -->

<svg
   xmlns:dc="http://purl.org/dc/elements/1.1/"
   xmlns:cc="http://creativecommons.org/ns#"
   xmlns:rdf="http://www.w3.org/1999/02/22-rdf-syntax-ns#"
   xmlns:svg="http://www.w3.org/2000/svg"
   xmlns="http://www.w3.org/2000/svg"
   xmlns:sodipodi="http://sodipodi.sourceforge.net/DTD/sodipodi-0.dtd"
   xmlns:inkscape="http://www.inkscape.org/namespaces/inkscape"
   width="80.778992mm"
   height="65.931641mm"
   viewBox="0 0 80.778992 65.931641"
   version="1.1"
   id="svg4600"
   inkscape:version="0.92.1 unknown"
   sodipodi:docname="folder_file.svg">
  <defs
     id="defs4594" />
  <sodipodi:namedview
     id="base"
     pagecolor="#ffffff"
     bordercolor="#666666"
     borderopacity="1.0"
     inkscape:pageopacity="0.0"
     inkscape:pageshadow="2"
     inkscape:zoom="1.4"
     inkscape:cx="-86.913929"
     inkscape:cy="0.14617322"
     inkscape:document-units="mm"
     inkscape:current-layer="layer1"
     showgrid="false"
     showguides="false"
     fit-margin-top="5"
     fit-margin-left="5"
     fit-margin-bottom="5"
     fit-margin-right="5"
     inkscape:window-width="2471"
     inkscape:window-height="1407"
     inkscape:window-x="89"
     inkscape:window-y="33"
     inkscape:window-maximized="1" />
  <metadata
     id="metadata4597">
    <rdf:RDF>
      <cc:Work
         rdf:about="">
        <dc:format>image/svg+xml</dc:format>
        <dc:type
           rdf:resource="http://purl.org/dc/dcmitype/StillImage" />
        <dc:title></dc:title>
      </cc:Work>
    </rdf:RDF>
  </metadata>
  <g
     inkscape:label="Ebene 1"
     inkscape:groupmode="layer"
     id="layer1"
     transform="translate(-36.504462,-89.339737)">
    <g
       id="g5712">
      <g
         transform="translate(0,-0.61793506)"
         id="g5687">
        <path
           style="fill:#000000;stroke:#ffffff;stroke-width:0;stroke-miterlimit:4;stroke-dasharray:none"
           id="path79"
           d="m 67.480961,100.07663 h -1.116573 v -2.005347 c 0,-0.48214 -0.39224,-0.87406 -0.874062,-0.87406 h -7.919352 l -1.599675,-2.23955 H 49.96196 c -0.481822,0 -0.874063,0.39224 -0.874063,0.87406 v 13.977007 h 0.0032 c 0,0.18012 0.05439,0.3564 0.167006,0.50389 0.156768,0.20476 0.39416,0.32186 0.651707,0.32186 h 14.319972 c 0.369844,0 0.695538,-0.24923 0.78384,-0.58004 l 3.271656,-8.97034 v -0.0566 c 0,-0.55093 -0.337852,-0.95085 -0.803037,-0.95085 z M 49.727767,95.831733 c 0,-0.12925 0.105259,-0.23419 0.234193,-0.23419 h 5.679806 l 1.599675,2.23955 h 8.248565 c 0.129253,0 0.234192,0.10494 0.234192,0.23419 v 2.005347 H 53.16099 c -0.04607,0 -0.09182,0.004 -0.136292,0.0115 -0.311297,0.0522 -0.570124,0.2793 -0.647229,0.5682 l -2.649702,7.22638 z M 64.402866,109.8612 c -0.02112,0.0784 -0.0931,0.13342 -0.174364,0.13342 H 49.908531 c -0.07774,0 -0.123175,-0.0445 -0.143331,-0.071 -0.02016,-0.0262 -0.05119,-0.0819 -0.03935,-0.13053 l 3.260458,-8.94314 c 0.02112,-0.0784 0.0931,-0.13342 0.174364,-0.13342 h 13.203718 1.116573 c 0.121575,0 0.152609,0.17469 0.160608,0.26203 z"
           inkscape:connector-curvature="0" />
        <path
           style="opacity:1;fill:#000000;fill-opacity:1;stroke:#ffffff;stroke-width:0.67593557;stroke-miterlimit:4;stroke-dasharray:none;stroke-dashoffset:0;stroke-opacity:1"
           d="m 46.429237,105.87858 v 4.18214 l -4.118779,-0.021 z"
           id="rect93"
           inkscape:connector-curvature="0"
           sodipodi:nodetypes="cccc" />
      </g>
      <text
         id="text100"
         y="104.91441"
         x="73.426979"
         style="font-style:normal;font-variant:normal;font-weight:normal;font-stretch:normal;font-size:10.58333302px;line-height:7.99837542px;font-family:Arial;-inkscape-font-specification:'Arial, Normal';font-variant-ligatures:normal;font-variant-caps:normal;font-variant-numeric:normal;font-feature-settings:normal;text-align:start;letter-spacing:0px;word-spacing:0px;writing-mode:lr-tb;text-anchor:start;fill:#000000;fill-opacity:1;stroke:#ffffff;stroke-width:0.31993502px;stroke-linecap:butt;stroke-linejoin:miter;stroke-opacity:1"
         xml:space="preserve"><tspan
           style="font-style:normal;font-variant:normal;font-weight:normal;font-stretch:normal;font-size:10.58333302px;font-family:Arial;-inkscape-font-specification:'Arial, Normal';font-variant-ligatures:normal;font-variant-caps:normal;font-variant-numeric:normal;font-feature-settings:normal;text-align:start;writing-mode:lr-tb;text-anchor:start;fill:#000000;stroke:#ffffff;stroke-width:0.31993502px"
           y="104.91441"
           x="73.426979"
           id="tspan98"
           sodipodi:role="line">path</tspan></text>
    </g>
    <g
       id="g5825">
      <g
         id="g5501"
         transform="matrix(0.30124101,0,0,0.30124101,63.425544,112.90548)">
        <path
           id="path5469"
           d="M 56.98,11.5 H 28.02 V 6.52 C 28.02,4.855 26.666,3.5 25,3.5 H 3.02 C 1.354,3.5 0,4.854 0,6.52 v 13.98 2 30.98 c 0,1.665 1.354,3.02 3.02,3.02 H 56.98 C 58.645,56.5 60,55.146 60,53.48 V 22.5 20.5 14.52 C 60,12.854 58.646,11.5 56.98,11.5 Z M 58,53.48 c 0,0.563 -0.457,1.02 -1.02,1.02 H 3.02 C 2.457,54.5 2,54.043 2,53.48 V 22.5 H 58 Z M 2,20.5 V 6.52 C 2,5.957 2.457,5.5 3.02,5.5 H 25 c 0.562,0 1.02,0.457 1.02,1.02 v 6.98 h 30.96 c 0.563,0 1.02,0.457 1.02,1.02 v 5.98 z"
           inkscape:connector-curvature="0" />
        <g
           id="g5471" />
        <g
           id="g5473" />
        <g
           id="g5475" />
        <g
           id="g5477" />
        <g
           id="g5479" />
        <g
           id="g5481" />
        <g
           id="g5483" />
        <g
           id="g5485" />
        <g
           id="g5487" />
        <g
           id="g5489" />
        <g
           id="g5491" />
        <g
           id="g5493" />
        <g
           id="g5495" />
        <g
           id="g5497" />
        <g
           id="g5499" />
      </g>
      <text
         id="text108-6"
         y="125.73318"
         x="85.489456"
         style="font-style:normal;font-variant:normal;font-weight:normal;font-stretch:normal;font-size:10.58333302px;line-height:7.99837589px;font-family:Arial;-inkscape-font-specification:'Arial, Normal';font-variant-ligatures:normal;font-variant-caps:normal;font-variant-numeric:normal;font-feature-settings:normal;text-align:start;letter-spacing:0px;word-spacing:0px;writing-mode:lr-tb;text-anchor:start;fill:#000000;fill-opacity:1;stroke:#ffffff;stroke-width:0.31993502px;stroke-linecap:butt;stroke-linejoin:miter;stroke-opacity:1"
         xml:space="preserve"><tspan
           style="font-style:normal;font-variant:normal;font-weight:normal;font-stretch:normal;font-size:10.58333302px;font-family:Arial;-inkscape-font-specification:'Arial, Normal';font-variant-ligatures:normal;font-variant-caps:normal;font-variant-numeric:normal;font-feature-settings:normal;text-align:start;writing-mode:lr-tb;text-anchor:start;fill:#000000;stroke:#ffffff;stroke-width:0.31993502px"
           y="125.73318"
           x="85.489456"
           id="tspan106-7"
           sodipodi:role="line">folder</tspan></text>
    </g>
    <g
       id="g5852">
      <g
         transform="matrix(0.2722,0,0,0.2722,64.296774,133.93938)"
         id="g5665">
        <g
           id="g5604">
          <path
             inkscape:connector-curvature="0"
             d="m 42.5,22 h -25 c -0.552,0 -1,0.447 -1,1 0,0.553 0.448,1 1,1 h 25 c 0.552,0 1,-0.447 1,-1 0,-0.553 -0.448,-1 -1,-1 z"
             id="path5592" />
          <path
             inkscape:connector-curvature="0"
             d="m 17.5,16 h 10 c 0.552,0 1,-0.447 1,-1 0,-0.553 -0.448,-1 -1,-1 h -10 c -0.552,0 -1,0.447 -1,1 0,0.553 0.448,1 1,1 z"
             id="path5594" />
          <path
             inkscape:connector-curvature="0"
             d="m 42.5,30 h -25 c -0.552,0 -1,0.447 -1,1 0,0.553 0.448,1 1,1 h 25 c 0.552,0 1,-0.447 1,-1 0,-0.553 -0.448,-1 -1,-1 z"
             id="path5596" />
          <path
             inkscape:connector-curvature="0"
             d="m 42.5,38 h -25 c -0.552,0 -1,0.447 -1,1 0,0.553 0.448,1 1,1 h 25 c 0.552,0 1,-0.447 1,-1 0,-0.553 -0.448,-1 -1,-1 z"
             id="path5598" />
          <path
             inkscape:connector-curvature="0"
             d="m 42.5,46 h -25 c -0.552,0 -1,0.447 -1,1 0,0.553 0.448,1 1,1 h 25 c 0.552,0 1,-0.447 1,-1 0,-0.553 -0.448,-1 -1,-1 z"
             id="path5600" />
          <path
             inkscape:connector-curvature="0"
             d="M 38.914,0 H 6.5 v 60 h 47 V 14.586 Z M 39.5,3.414 50.086,14 H 39.5 Z M 8.5,58 V 2 h 29 v 14 h 14 v 42 z"
             id="path5602" />
        </g>
        <g
           id="g5606" />
        <g
           id="g5608" />
        <g
           id="g5610" />
        <g
           id="g5612" />
        <g
           id="g5614" />
        <g
           id="g5616" />
        <g
           id="g5618" />
        <g
           id="g5620" />
        <g
           id="g5622" />
        <g
           id="g5624" />
        <g
           id="g5626" />
        <g
           id="g5628" />
        <g
           id="g5630" />
        <g
           id="g5632" />
        <g
           id="g5634" />
      </g>
      <text
         id="text108-6-5"
         y="145.89584"
         x="85.489456"
         style="font-style:normal;font-variant:normal;font-weight:normal;font-stretch:normal;font-size:10.58333302px;line-height:7.99837589px;font-family:Arial;-inkscape-font-specification:'Arial, Normal';font-variant-ligatures:normal;font-variant-caps:normal;font-variant-numeric:normal;font-feature-settings:normal;text-align:start;letter-spacing:0px;word-spacing:0px;writing-mode:lr-tb;text-anchor:start;fill:#000000;fill-opacity:1;stroke:#ffffff;stroke-width:0.31993502px;stroke-linecap:butt;stroke-linejoin:miter;stroke-opacity:1"
         xml:space="preserve"><tspan
           style="font-style:normal;font-variant:normal;font-weight:normal;font-stretch:normal;font-size:10.58333302px;font-family:Arial;-inkscape-font-specification:'Arial, Normal';font-variant-ligatures:normal;font-variant-caps:normal;font-variant-numeric:normal;font-feature-settings:normal;text-align:start;writing-mode:lr-tb;text-anchor:start;fill:#000000;stroke:#ffffff;stroke-width:0.31993502px"
           y="145.89584"
           x="85.489456"
           id="tspan106-7-1"
           sodipodi:role="line">file</tspan></text>
    </g>
  </g>
</svg>
