<svg xmlns="http://www.w3.org/2000/svg" width="2068" height="760.37"><g fill="#e6e6e6" stroke="#e6e6e6"><path stroke-width="2" d="M76.68 823.3l12 5.6-12 5.61z" transform="matrix(4.43517 0 0 3.02575 -107.62 -2126.76)"/><path fill-rule="evenodd" stroke-width="1.16" d="M46.04 828.9h37.54" transform="matrix(4.43517 0 0 3.02575 -107.62 -2126.76)"/><path stroke-width="2" d="M169.46 823.3l12 5.6-12 5.61z" transform="matrix(4.43517 0 0 3.02575 304.85 -2126.76)"/><path fill-rule="evenodd" stroke-width="1.89" d="M75.46 828.9h100" transform="matrix(4.43517 0 0 3.02575 304.85 -2126.76)"/><path stroke-width="2" d="M76.46 823.3l12 5.6-12 5.61z" transform="matrix(4.43517 0 0 3.02575 304.85 -2126.76)"/><path fill-rule="evenodd" stroke-width="1.89" d="M-17.55 828.9h100" transform="matrix(4.43517 0 0 3.02575 304.85 -2126.76)"/><path stroke-width="2" d="M169.46 823.3l12 5.6-12 5.61z" transform="matrix(4.43517 0 0 3.02575 687.52 -2126.76)"/><path fill-rule="evenodd" stroke-width="1.89" d="M75.46 828.9h100" transform="matrix(4.43517 0 0 3.02575 687.52 -2126.76)"/><path stroke-width="2" d="M169.46 823.3l12 5.6-12 5.61z" transform="matrix(4.43517 0 0 3.02575 1080.12 -2126.76)"/><path fill-rule="evenodd" stroke-width="1.89" d="M75.46 828.9h100" transform="matrix(4.43517 0 0 3.02575 1080.12 -2126.76)"/></g><path d="M517.46 398.08a5.79 5.79 0 1 0 .01 11.58 5.79 5.79 0 0 0 0-11.58zm0 8.14a2.36 2.36 0 1 1 0-4.72 2.36 2.36 0 0 1 0 4.72z"/><path d="M533.04 403.56a15.15 15.15 0 0 0-5.05-10.96l-34.5-31.11 30.5-30.5c.2-.06.4-.14.6-.24l6.6-3.48a3.19 3.19 0 0 0 1.68-2.37 3.19 3.19 0 0 0-.9-2.75l-7.44-7.44a3.19 3.19 0 0 0-2.75-.9 3.19 3.19 0 0 0-2.37 1.67l-3.48 6.6c-.1.2-.18.4-.24.6l-14.4 14.4a1.71 1.71 0 0 0 2.42 2.42l13.21-13.2 3.47 3.45-33.79 33.79-3.46-3.46 14.74-14.75a1.71 1.71 0 0 0-2.42-2.42l-10.7 10.7-11.64-10.5a26.3 26.3 0 0 0-34.3-33.2 1.71 1.71 0 0 0-.59 2.81l13.45 13.45a2.1 2.1 0 0 1 0 2.98l-8.73 8.74a2.1 2.1 0 0 1-2.98 0l-13.46-13.45a1.71 1.71 0 0 0-2.8.6 26.35 26.35 0 0 0 5.95 28.03 26.39 26.39 0 0 0 26.7 6.43l9.01 9.84a9.23 9.23 0 0 1-11.6 4.41 1.71 1.71 0 0 0-1.83.39l-20.98 20.98a14.58 14.58 0 0 0 10.3 24.86c3.9 0 7.55-1.51 10.3-4.26l20.98-20.98c.48-.48.63-1.2.38-1.83a9.27 9.27 0 0 1 12-12c.63.25 1.35.1 1.83-.38l3.96-3.96a6.27 6.27 0 0 0 0-8.92l-1.69-1.69 2.05-2.05 34.63 31.24a11.76 11.76 0 0 1 3.91 8.5 11.76 11.76 0 0 1-3.47 8.7 11.78 11.78 0 0 1-8.65 3.47 11.76 11.76 0 0 1-8.5-3.85l-25.74-28.16a1.71 1.71 0 1 0-2.53 2.31l25.74 28.16a15.16 15.16 0 0 0 11.3 4.97c4.08 0 7.9-1.58 10.8-4.48 3-3 4.59-6.97 4.48-11.2zm-14.01-80l3.28-6.22 7.03 7.03-6.21 3.28zm-60.9 32.8a1.7 1.7 0 0 0-1.86-.46 22.95 22.95 0 0 1-24.19-5.25 22.92 22.92 0 0 1-6-21.8l11.46 11.46a5.5 5.5 0 0 0 7.83 0l8.73-8.73a5.5 5.5 0 0 0 0-7.83l-11.46-11.46a22.87 22.87 0 0 1 26.87 30.67 1.7 1.7 0 0 0 .45 1.9l12.38 11.17-1.63 1.62-1.68-1.68a6.27 6.27 0 0 0-8.92 0l-3.96 3.96a1.7 1.7 0 0 0-.38 1.83 9.4 9.4 0 0 1 .62 3.61zm30.15 17.79l-3.2 3.2a12.7 12.7 0 0 0-15.71 15.71l-20.23 20.23c-2.1 2.1-4.9 3.27-7.88 3.27a11.15 11.15 0 0 1-7.88-19.02l20.23-20.23a12.7 12.7 0 0 0 15.71-15.71l3.21-3.2a2.88 2.88 0 0 1 4.08 0l2.9 2.89 5.88 5.88 2.9 2.9a2.88 2.88 0 0 1 0 4.08z"/><path d="M457.04 383.78a1.71 1.71 0 0 0-2.42 0l-16.23 16.23a1.71 1.71 0 0 0 2.42 2.43l16.23-16.23c.67-.67.67-1.76 0-2.43zm6 6a1.71 1.71 0 0 0-2.42 0l-16.23 16.23a1.71 1.71 0 0 0 2.42 2.42l16.23-16.23a1.7 1.7 0 0 0 0-2.42z"/><text style="line-height:1.25;-inkscape-font-specification:sans-serif" x="-1047.86" y="113.29" font-family="sans-serif" font-size="192" font-weight="400" letter-spacing="0" transform="translate(601.24 443.7) scale(.24848)" word-spacing="0"><tspan x="-1047.86" y="113.29">BuildConfig</tspan></text><path d="M859.98 401.68a6.46 6.46 0 1 0 .02 12.91 6.46 6.46 0 0 0-.02-12.91zm0 8.6a2.15 2.15 0 1 1 0-4.3 2.15 2.15 0 0 1 0 4.3z"/><path d="M859.98 393.08c-8.3 0-15.05 6.75-15.05 15.05s6.75 15.05 15.05 15.05 15.05-6.75 15.05-15.05-6.75-15.05-15.05-15.05zm0 25.8a10.76 10.76 0 0 1 0-21.5 10.76 10.76 0 0 1 0 21.5z"/><path d="M844.93 371.57h4.3v36.55h-4.3z"/><path d="M821.3 319.17a10.74 10.74 0 0 0-9.44-5.65h-16.38v4.3h16.38a6.44 6.44 0 0 1 5.66 3.4l40.57 75.03 3.78-2.05zm50.56 89.23l43-23.65 2.08 3.77-43.01 23.64zm17.94-61.54l-19.35-34.4a2.14 2.14 0 0 0-2.93-.82l-34.4 19.35a2.15 2.15 0 0 0-.82 2.93l19.35 34.4a2.14 2.14 0 0 0 2.93.83l34.4-19.36c1.04-.58 1.4-1.9.82-2.93zm-35.46 17.49l-17.24-30.66 30.66-17.25L885 347.1z"/><path d="M863.64 328.55l-5.38-9.3a2.15 2.15 0 0 0-2.94-.8l-9.3 5.38a2.15 2.15 0 0 0-.8 2.94l5.38 9.3a2.15 2.15 0 0 0 2.94.8l9.3-5.38a2.13 2.13 0 0 0 .8-2.94zm-10.39 3.52l-3.22-5.59 5.58-3.23 3.23 5.59zm55.9 49.2l-19.36-34.4a2.15 2.15 0 0 0-2.92-.82l-34.4 19.35a2.15 2.15 0 0 0-.83 2.93l19.36 34.4a2.14 2.14 0 0 0 2.92.82l34.4-19.35a2.14 2.14 0 0 0 .83-2.93zm-35.46 17.48l-17.24-30.66 30.65-17.24 17.25 30.65z"/><path d="M882.97 362.97l-5.37-9.31a2.15 2.15 0 0 0-2.94-.79l-9.3 5.38a2.15 2.15 0 0 0-.8 2.93l5.38 9.31a2.15 2.15 0 0 0 2.94.79l9.3-5.37a2.16 2.16 0 0 0 .8-2.94zm-10.38 3.51l-3.23-5.58 5.59-3.23 3.23 5.59z"/><text style="line-height:1.25;-inkscape-font-specification:sans-serif" x="113.52" y="82.46" font-family="sans-serif" font-size="192" font-weight="400" letter-spacing="0" transform="translate(605.31 448.16) scale(.24848)" word-spacing="0"><tspan x="113.52" y="82.46">DeploymentConfig</tspan></text><path d="M1290.81 310h-111.8a9.31 9.31 0 0 0-9.32 9.31v93.19a9.32 9.32 0 0 0 9.32 9.32h111.8a9.34 9.34 0 0 0 9.33-9.32v-93.2c0-5.15-4.2-9.31-9.33-9.31zm-90.84 7a4.66 4.66 0 1 1 0 9.31 4.66 4.66 0 0 1 0-9.32zm-13.98 0a4.66 4.66 0 1 1 0 9.3 4.66 4.66 0 0 1 0-9.3zm104.82 95.5h-111.8v-79.1h111.8z"/><path d="M1215.15 355.49l-23.13 9.85v6.6l29.9-13.66v-5.75l-29.9-13.66v6.6l23.13 9.89zm20.85-3.22h16.27v6.3H1236z"/><text style="line-height:1.25;-inkscape-font-specification:sans-serif" x="2390.07" y="77.8" font-family="sans-serif" font-size="192" font-weight="400" letter-spacing="0" transform="translate(597.57 459.93) scale(.24848)" word-spacing="0"><tspan x="2390.07" y="77.8">Pod</tspan></text><path d="M1667.67 367.94h-13.05v-3.73c0-1.12-.74-1.86-1.86-1.86v-3.73c1.12 0 1.86-.75 1.86-1.86 0-7.27-5.77-13.05-13.04-13.05a12.97 12.97 0 0 0-13.05 13.05c0 1.11.75 1.86 1.87 1.86v3.73c-1.12 0-1.87.74-1.87 1.86v3.73h-22.17v-11.18a16.6 16.6 0 0 0-7.09-13.6c-.74-.38-1.67-.38-2.23 0a13.18 13.18 0 0 1-15.1 0c-.74-.38-1.67-.38-2.23 0a16.62 16.62 0 0 0-7.09 13.6v11.18h-13.04c-1.12 0-1.86.74-1.86 1.86v11.18c0 1.12.74 1.87 1.86 1.87v39.13a5.5 5.5 0 0 0 5.59 5.6h96.9a5.5 5.5 0 0 0 5.6-5.6v-39.13c1.12 0 1.86-.75 1.86-1.87V369.8c0-1.12-.74-1.86-1.86-1.86zm-26.1-20.5c4.48 0 8.2 3.17 9.14 7.45h-18.26a9.37 9.37 0 0 1 9.13-7.45zm-7.45 11.18h14.91v3.73h-14.9zm-1.86 7.45h18.64v1.87h-18.64zm-42.86-16.02l3.17 3.35-3.17 5.4-3.17-5.4zm-13.05 6.7a13.6 13.6 0 0 1 4.47-9.87c1.45.88 3.01 1.51 4.62 1.9l-2.94 2.94c-.74.56-.74 1.5-.37 2.24l5.59 9.32c.37.56.93.93 1.68.93.74 0 1.3-.37 1.67-.93l5.6-9.32a2 2 0 0 0-.38-2.24l-2.94-2.94a16.28 16.28 0 0 0 4.62-1.9 13.6 13.6 0 0 1 4.47 9.88v11.18h-26.09zm-14.9 14.91h104.35v7.46h-104.36zm102.5 37.28h-11.19c-1.12 0-1.86.74-1.86 1.86s.74 1.86 1.86 1.86h11.18v3.73h-11.18c-1.12 0-1.86.75-1.86 1.87 0 1.11.74 1.86 1.86 1.86h11.18v1.86c0 1.12-.74 1.87-1.86 1.87h-96.91c-1.12 0-1.86-.75-1.86-1.87v-1.86h11.18c1.12 0 1.86-.75 1.86-1.86 0-1.12-.74-1.87-1.86-1.87h-11.18v-3.73h11.18c1.12 0 1.86-.74 1.86-1.86s-.74-1.86-1.86-1.86h-11.18v-26.1h100.63zm-74.55-67.09c7.26 0 13.04-5.78 13.04-13.05 0-7.27-5.78-13.04-13.04-13.04a12.97 12.97 0 0 0-13.05 13.04c0 7.27 5.78 13.05 13.05 13.05zm0-22.37c5.22 0 9.31 4.1 9.31 9.32 0 5.22-4.1 9.32-9.31 9.32a9.23 9.23 0 0 1-9.32-9.32c0-5.22 4.1-9.32 9.32-9.32z"/><path d="M1611.76 420.12a16.7 16.7 0 0 0 16.77-16.77 16.7 16.7 0 0 0-16.77-16.78 16.7 16.7 0 0 0-16.77 16.78 16.7 16.7 0 0 0 16.77 16.77zm0-29.82c7.27 0 13.05 5.78 13.05 13.05 0 7.26-5.78 13.04-13.05 13.04a12.97 12.97 0 0 1-13.05-13.04c0-7.27 5.78-13.05 13.05-13.05z"/><path d="M1611.76 412.66c1.12 0 1.86-.74 1.86-1.86s-.74-1.86-1.86-1.86a5.5 5.5 0 0 1-5.6-5.6c0-1.11-.74-1.86-1.85-1.86-1.12 0-1.87.75-1.87 1.87 0 5.21 4.1 9.31 9.32 9.31zm0-14.9a5.5 5.5 0 0 1 5.6 5.59c0 1.11.74 1.86 1.85 1.86 1.12 0 1.87-.75 1.87-1.86 0-5.22-4.1-9.32-9.32-9.32-1.12 0-1.86.74-1.86 1.86s.74 1.87 1.86 1.87z"/><text style="line-height:1.25;-inkscape-font-specification:sans-serif" x="3209.26" y="93.14" font-family="sans-serif" font-size="192" font-weight="400" letter-spacing="0" transform="translate(727.68 450.36) scale(.24848)" word-spacing="0"><tspan x="3209.26" y="93.14">Service</tspan></text><path d="M2031.86 334.74a55.54 55.54 0 0 0-39.53-16.37 55.54 55.54 0 0 0-39.53 16.37 55.54 55.54 0 0 0-16.38 39.54 55.54 55.54 0 0 0 16.38 39.53 55.54 55.54 0 0 0 39.53 16.38 55.54 55.54 0 0 0 39.53-16.38 55.54 55.54 0 0 0 16.38-39.53 55.54 55.54 0 0 0-16.38-39.54zm-84.82 55.66l-1 8.96a52.04 52.04 0 0 1-5.62-16.36l6.06 5.85c.41.4.62.98.56 1.55zm91.51-21.24l2.44 4.51a5.13 5.13 0 0 0 2.97 2.46l.96.29a52.26 52.26 0 0 1-15.37 35.07 52.29 52.29 0 0 1-37.22 15.42 52.29 52.29 0 0 1-37.22-15.42 53.21 53.21 0 0 1-6.29-7.58l1.47-13.15a5.17 5.17 0 0 0-1.54-4.27l-8.93-8.61a52.29 52.29 0 0 1 15.3-40.82 52.37 52.37 0 0 1 21.86-13.15l-1.06 2.81a1.64 1.64 0 1 0 3.06 1.16l1.89-4.99c2.72-.6 5.51-.99 8.34-1.15l-2.3 9-.64.17h-8.9a3.4 3.4 0 0 0-3.35 2.95l-.79 5.88-4 .21a3.37 3.37 0 0 0-3.22 3.25l-.18 4.67a3.39 3.39 0 0 0 3.66 3.51l.29-.02-3.32 3.07a1.64 1.64 0 1 0 2.22 2.4l6.06-5.6 13.49 5.31c.2.08.4.12.6.12h16.41c.57 0 1.06-.29 1.36-.72l1.86-2.73a1.64 1.64 0 0 0-.61-2.38l-4.13-2.11 4.92-.57a4.1 4.1 0 0 0 2.05-7.27 4.07 4.07 0 0 0-3.34-.78l-2.2.45a5.11 5.11 0 0 0-3.76 3.22l-.82 2.16-3.7 1.03c-.79.22-1.61-.1-2.06-.77l-2.64-4a1.64 1.64 0 0 0-1.43-.73l-12.25.43c-.51.02-.98.27-1.28.69l-3.71 5.18-4.28.36a.1.1 0 0 1-.09-.03.1.1 0 0 1-.03-.09l.19-4.67c0-.06.04-.1.1-.1l5.37-.29a1.64 1.64 0 0 0 1.54-1.42l.97-7.23c0-.06.05-.1.1-.1h9.13c.14 0 .29-.02.43-.06l9.04-2.48c.52-.14.93-.52 1.11-1.02l1.17-3.2a1.64 1.64 0 0 0-3.08-1.13l-.88 2.42-3.75 1.02 2.08-8.1a52.28 52.28 0 0 1 36.93 15.42 52.27 52.27 0 0 1 15.4 35.94 1.86 1.86 0 0 1-1.08-.89l-2.44-4.5a1.64 1.64 0 1 0-2.88 1.55zm-50.38-17.64c.8 0 1.47-.58 1.61-1.35.12-.39.69-1.84 1.37-3.57l.93 1.4a5.13 5.13 0 0 0 5.66 2.12l2.36-.66v.04c-.02.63.33 1.22.9 1.5l3.7 1.9-.32.48h-15.24l-12.2-4.8 2.47-3.44 8.92-.32c-1.8 4.48-1.8 4.73-1.8 5.06 0 .9.74 1.64 1.64 1.64zm16.12-6.17l.16-.42c.23-.6.74-1.04 1.37-1.17l2.2-.45a.8.8 0 0 1 .97.75.8.8 0 0 1-.72.84z"/><path d="M2021.61 394.47a1.62 1.62 0 0 0-2.3.2l-4.6 5.47a1.64 1.64 0 0 0 2.5 2.1l4.6-5.46c.59-.7.5-1.73-.2-2.31zm16.3-33.37a5.11 5.11 0 0 0-5.1-2.6l-7.99.94-5-4.47a1.64 1.64 0 0 0-2.44.3c-.47.68-.31 1.62.3 2.17l5.5 4.93c.36.31.82.46 1.29.4l2.84-.32 1.2 1.64-10.42 7c-.3.2-.72.1-.92-.2l-6.84-10.86c-.49-.78-1.53-1-2.3-.48-.74.5-.9 1.53-.43 2.29l7.42 11.78c.25.4.66.67 1.13.74l3.8.6c.02 0 .06 0 .08.07.02.06 0 .1-.02.11l-8.54 9.42c-.22.24-.36.54-.4.86l-1.27 8.64a3.62 3.62 0 0 1-1.14 2.16l-11.82 10.75a3.44 3.44 0 0 1-5.54-1.32l-4.36-11.4-1.1-11.88a6.93 6.93 0 0 0-6.49-6.25l-13.23-.71a1.85 1.85 0 0 1-1.7-1.42l-2.4-9.7c-.15-.65.05-1.35.55-1.8l1.28-1.19c.66-.6.76-1.65.17-2.32a1.64 1.64 0 0 0-2.34-.13l-1.33 1.22a5.14 5.14 0 0 0-1.5 5l2.38 9.7a5.11 5.11 0 0 0 4.72 3.9l13.23.72c1.77.1 3.24 1.5 3.4 3.28l1.12 12.1c.01.16.04.3.1.44l4.44 11.61a6.71 6.71 0 0 0 10.81 2.57l11.81-10.75a6.9 6.9 0 0 0 2.18-4.1l1.2-8.15 8.2-9.04a3.38 3.38 0 0 0-.43-4.95l9.72-6.51a1.64 1.64 0 0 0 .44-2.35l-1.12-1.54 2.15-.25c.76-.1 1.5.28 1.86.96a1.64 1.64 0 0 0 2.4.55c.68-.49.86-1.43.45-2.17zm-16.21-13.12l-3.65-5.4a1.64 1.64 0 0 0-2.71 1.83l3.64 5.4a1.64 1.64 0 1 0 2.72-1.83z"/><text style="line-height:1.25;-inkscape-font-specification:sans-serif" x="4310.71" y="71.67" font-family="sans-serif" font-size="192" font-weight="400" letter-spacing="0" transform="translate(850.85 453.09) scale(.24848)" word-spacing="0"><tspan x="4310.71" y="71.67">Route</tspan></text><path d="M1252.16 13.8a37.84 37.84 0 0 0-35.34 51.2l-36.14 36.14c-.51.51-.8 1.21-.8 1.94v19.78a2.75 2.75 0 0 0 2.75 2.75h16.3c.73 0 1.43-.29 1.94-.8l5.5-5.49c.51-.51.8-1.21.8-1.95v-6.74h6.74a2.75 2.75 0 0 0 2.75-2.75v-2.7h2.7a2.75 2.75 0 0 0 2.75-2.76V96.5h5.93c.73 0 1.43-.3 1.95-.81l8.76-8.76a37.84 37.84 0 0 0 51.2-35.34 37.83 37.83 0 0 0-37.79-37.8zm0 70.07c-4.5 0-8.86-.91-12.96-2.7a2.75 2.75 0 0 0-3.02.55l-.03.02-9.25 9.25h-7.54a2.75 2.75 0 0 0-2.75 2.75v5.93h-2.7a2.75 2.75 0 0 0-2.76 2.75v2.7h-6.73a2.75 2.75 0 0 0-2.76 2.76v8.35l-3.87 3.87h-12.4v-3.89l33.66-33.66a2.48 2.48 0 1 0-3.5-3.5l-30.16 30.15v-4.98L1222 67.6l.02-.03a2.75 2.75 0 0 0 .55-3.03 32.32 32.32 0 0 1 29.58-45.24 32.32 32.32 0 0 1 32.29 32.29 32.32 32.32 0 0 1-32.29 32.28z"/><path d="M1263.66 29.77a10.33 10.33 0 0 0 0 20.63 10.33 10.33 0 0 0 0-20.63zm0 15.12a4.81 4.81 0 1 1 .02-9.62 4.81 4.81 0 0 1-.02 9.62z"/><text style="line-height:1.25;-inkscape-font-specification:sans-serif" x="1954.4" y="-1493.08" font-family="sans-serif" font-size="192" font-weight="400" letter-spacing="0" transform="translate(671.98 544.23) scale(.24848)" word-spacing="0"><tspan x="1954.4" y="-1493.08">Secret</tspan></text><path d="M1665.1 34.67l-50.76-24.5a1.64 1.64 0 0 0-1.43 0l-50.77 24.5c-.56.28-.92.85-.92 1.48v59.52c0 .63.36 1.2.92 1.47l50.77 24.51a1.64 1.64 0 0 0 1.43 0l50.76-24.5c.57-.28.93-.85.93-1.48V36.15c0-.63-.36-1.2-.93-1.48zm-51.48-21.21l47 22.69-13.62 6.57a1.62 1.62 0 0 0-.28-.17l-46.68-22.54zm-17.28 8.4l46.93 22.66-9.6 4.64-46.92-22.64zm48.03 25.77v17.15l-8.98 4.34V51.97zm18.38 47.01l-47.49 22.93V61.68l11.33-5.46a1.64 1.64 0 1 0-1.42-2.95l-11.55 5.57-4.54-2.2a1.64 1.64 0 1 0-1.42 2.95l4.33 2.1v55.88l-47.5-22.93V38.76l36.17 17.46a1.63 1.63 0 0 0 2.19-.77c.39-.81.05-1.8-.77-2.18l-35.46-17.12 16.27-7.86 49.2 23.75.03.03v19.66a1.64 1.64 0 0 0 2.35 1.47l12.25-5.91c.57-.28.93-.85.93-1.48V46.05l15.1-7.3z"/><path d="M1578.01 88.29l-7.45-3.6a1.64 1.64 0 1 0-1.43 2.95l7.46 3.6a1.63 1.63 0 0 0 2.18-.76c.4-.82.05-1.8-.76-2.2zm6.86-4.46l-14.3-6.9a1.64 1.64 0 1 0-1.42 2.94l14.3 6.9a1.63 1.63 0 0 0 2.18-.76c.4-.81.05-1.8-.76-2.18z"/><text style="line-height:1.25;-inkscape-font-specification:sans-serif" x="536.92" y="-1394.78" font-family="sans-serif" font-size="192" font-weight="400" letter-spacing="0" transform="translate(1318.8 514.36) scale(.24848)" word-spacing="0"><tspan x="536.92" y="-1394.78">ImageStream</tspan></text><path d="M903.66 111.46h-94.9a8.47 8.47 0 0 1-8.46-8.46V34.48c0-4.66 3.8-8.46 8.46-8.46h94.9c4.66 0 8.46 3.8 8.46 8.46V103c0 4.67-3.8 8.46-8.46 8.46zm-94.9-82.06a5.08 5.08 0 0 0-5.08 5.08V103c0 2.8 2.28 5.08 5.08 5.08h94.9c2.8 0 5.07-2.28 5.07-5.08V34.48c0-2.8-2.27-5.08-5.07-5.08h-94.9z"/><path d="M885.27 29.4h-58.12a1.7 1.7 0 0 1 0-3.38h58.12a1.7 1.7 0 1 1 0 3.38zm-27.15 65.4h-39.8a1.7 1.7 0 0 1-1.7-1.69v-4.53a7.37 7.37 0 0 1 4.21-6.63l8.96-5.51a13.01 13.01 0 0 1-4.84-9.6l-.34-8.91c0-6.82 5.57-12.3 12.42-12.3h2.36c6.85 0 12.42 5.48 12.42 12.23l-.34 8.99a12.99 12.99 0 0 1-4.84 9.6l9.05 5.54a7.38 7.38 0 0 1 4.12 6.6v4.52c0 .93-.75 1.7-1.68 1.7zm-38.1-3.38h36.4v-2.83a3.98 3.98 0 0 0-2.43-3.67l-11.41-7a1.7 1.7 0 0 1 .12-2.95 9.67 9.67 0 0 0 5.4-8.26l.34-8.91c0-4.82-4.05-8.8-9.04-8.8h-2.36a8.96 8.96 0 0 0-9.04 8.86l.34 8.85a9.67 9.67 0 0 0 5.38 8.25 1.7 1.7 0 0 1 .13 2.95l-11.4 7a4.08 4.08 0 0 0-2.43 3.67v2.84zm74.32-34.54h-20.9a1.7 1.7 0 0 1 0-3.38h20.9a1.7 1.7 0 0 1 0 3.38zm0 15.02h-20.9a1.7 1.7 0 0 1 0-3.39h20.9a1.7 1.7 0 0 1 0 3.39zm0 15.02h-20.9a1.7 1.7 0 0 1 0-3.38h20.9a1.7 1.7 0 0 1 0 3.38z"/><text style="line-height:1.25;-inkscape-font-specification:sans-serif" x="-1073.84" y="-810.36" font-family="sans-serif" font-size="192" font-weight="400" letter-spacing="0" transform="translate(952.6 362.37) scale(.24848)" word-spacing="0"><tspan x="-1073.84" y="-810.36">ServiceAccout</tspan></text><path d="M1285.45 605.5c-2.36-8.71-19.88-17.3-50.53-17.3-30.66 0-48.18 8.59-50.53 17.3a2 2 0 0 0-.3 1v75.23c0 .32.09.64.24.91 2.4 9.95 23.88 17.38 50.59 17.38 26.64 0 48.09-7.4 50.57-17.31a2 2 0 0 0 .25-.98V606.5a2 2 0 0 0-.3-1zm-3.93 51.8a5 5 0 0 1-.53 1.34 6.9 6.9 0 0 1-.92 1.31c-.22.27-.46.54-.73.8l-.53.48c-.34.3-.68.58-1.07.87l-.52.36a22 22 0 0 1-1.47.94l-.43.25c-.6.34-1.24.68-1.92 1-.09.05-.18.1-.27.13-.76.36-1.56.72-2.41 1.06-.03 0-.05.02-.08.03a78.81 78.81 0 0 1-17.4 4.4l-.1.02c-1.34.2-2.71.37-4.12.53l-.7.06c-1.24.13-2.48.25-3.76.34-.59.05-1.2.07-1.8.1-.96.06-1.91.12-2.9.16a156.77 156.77 0 0 1-9.89 0c-.99-.04-1.94-.1-2.9-.16l-1.8-.1c-1.28-.1-2.52-.22-3.75-.34l-.7-.07a116.45 116.45 0 0 1-4.23-.54 78.81 78.81 0 0 1-17.4-4.41c-.03 0-.05-.02-.08-.03a43.2 43.2 0 0 1-2.4-1.05l-.28-.13a48.3 48.3 0 0 1-1.92-1l-.43-.25c-.53-.31-1-.63-1.47-.94l-.52-.37a20.1 20.1 0 0 1-1.07-.87 10.61 10.61 0 0 1-2.18-2.59 6.29 6.29 0 0 1-.52-1.34 4.1 4.1 0 0 1-.16-.98c0-.23.02-.46.06-.68.05-.31.02-.62-.06-.91v-15.1c.05.06.12.11.18.16.45.4.9.78 1.4 1.16 7.66 5.79 22.98 10.29 45.18 10.29 22.1 0 37.38-4.46 45.07-10.22.61-.45 1.16-.91 1.68-1.38v15.09c-.08.3-.1.6-.06.9.04.23.07.46.07.7 0 .32-.09.65-.16.98zm.16-42.07v15.1c-.09.28-.12.6-.07.9.04.23.07.46.07.69 0 .32-.09.65-.16.98a5 5 0 0 1-.53 1.34 6.9 6.9 0 0 1-.92 1.32c-.22.26-.46.53-.73.8l-.53.47c-.34.3-.68.58-1.07.87l-.52.37c-.46.31-.94.63-1.47.94l-.43.24c-.6.34-1.24.68-1.92 1.01l-.27.13c-.76.36-1.56.7-2.41 1.05l-.08.03a78.81 78.81 0 0 1-17.4 4.41c-.03 0-.07 0-.1.02-1.34.2-2.71.37-4.12.52l-.7.07c-1.24.12-2.48.24-3.76.34l-1.8.1c-.96.05-1.91.12-2.9.15a156.77 156.77 0 0 1-9.89 0c-.99-.04-1.94-.1-2.9-.16l-1.8-.1c-1.28-.1-2.52-.21-3.75-.34l-.7-.06c-1.42-.16-2.79-.34-4.13-.53-.03 0-.07 0-.1-.02a78.81 78.81 0 0 1-17.48-4.44 43.2 43.2 0 0 1-2.4-1.05l-.28-.12a31.2 31.2 0 0 1-1.92-1.02l-.43-.24c-.53-.3-1-.62-1.47-.94l-.52-.37c-.39-.28-.73-.57-1.07-.86l-.53-.48a10.61 10.61 0 0 1-1.65-2.11 6.29 6.29 0 0 1-.52-1.34 4.26 4.26 0 0 1-.16-.98c0-.23.02-.46.06-.7.05-.3.02-.6-.06-.9v-15.09c.24.22.52.44.78.66l.44.37c.61.48 1.27.95 1.98 1.41l.47.29a34.78 34.78 0 0 0 2.64 1.48c.75.38 1.52.75 2.34 1.1l.4.18c.95.4 1.96.8 3.01 1.16l.9.3c.84.29 1.7.56 2.6.82a76.4 76.4 0 0 0 4.68 1.21c.17.05.37.08.54.12a92.78 92.78 0 0 0 8.34 1.42l.92.13c1.52.18 3.08.34 4.7.47l1.2.09c1.29.09 2.6.17 3.95.23l1.48.06a159.2 159.2 0 0 0 10.77 0l1.48-.06c1.35-.06 2.66-.14 3.95-.23l1.21-.09c1.61-.13 3.18-.29 4.69-.47l.93-.13a109.66 109.66 0 0 0 8.33-1.42l.55-.12c1.28-.28 2.51-.6 3.7-.93l.97-.28c.9-.26 1.77-.53 2.6-.81l.9-.3c1.05-.38 2.07-.77 3.02-1.17l.39-.18a43.46 43.46 0 0 0 4.98-2.58l.47-.29c.71-.46 1.37-.93 1.98-1.41l.44-.37.79-.66zm-46.76-22.96c27.55 0 46.76 8.04 46.76 15.25 0 7.21-19.2 15.25-46.76 15.25s-46.76-8.04-46.76-15.25c0-7.21 19.2-15.25 46.76-15.25zm46.76 88.85l-.07.28c-1.15 7.03-20.2 14.56-46.7 14.56-26.5 0-45.54-7.53-46.69-14.56-.01-.1-.04-.19-.06-.27v-17.1l.18.15c.45.39.9.78 1.4 1.15 7.66 5.8 22.98 10.3 45.18 10.3 22.1 0 37.38-4.47 45.07-10.23.61-.44 1.16-.9 1.68-1.37z"/><text style="line-height:1.25;-inkscape-font-specification:sans-serif" x="15.34" y="1251.42" font-family="sans-serif" font-size="192" font-weight="400" letter-spacing="0" transform="translate(956.2 438.74) scale(.24848)" word-spacing="0"><tspan x="15.34" y="1251.42">PersistentVolumeClaim</tspan></text><path fill="#fff" d="M865.97 383.97a939.67 939.67 0 0 1-8.25-14.85c-.25-.56 6.61-5.3 7.67-5.3.13 0 1.13 1.66 2.23 3.7s2.59 3.94 3.3 4.2c2.07.8 12.45-5.7 12.45-7.8 0-1.02-.72-2.8-1.59-3.95-2.37-3.13-2-4.55 1.69-6.45 1.83-.95 3.47-1.57 3.63-1.38 1.16 1.35 15.67 27.82 15.67 28.58 0 1.03-.27 1.2-17.4 10.88l-11.47 6.48zm313.89-11v-39.35h109.97v78.71h-109.97zm27.92-7.54l14.2-6.47-.3-3.67c-.3-3.58-.6-3.8-14.21-9.97-7.65-3.47-14.32-6.3-14.83-6.3-.5 0-.92 1.57-.91 3.5 0 3.4.28 3.62 10.32 7.78 5.68 2.36 10.5 4.57 10.72 4.93.22.35-4.3 2.62-10.06 5.04-10.36 4.36-10.45 4.43-10.8 8.4-.18 2.2.12 3.82.67 3.61.55-.21 7.39-3.3 15.2-6.85zm45.2-9.98l.33-3.5h-17.39v7.64l8.36-.32 8.36-.31zm308.55 20.22v-3.23h103.5v6.46h-103.5z"/><g fill="#ccc"><path d="M94.38 316.66a8 8 0 0 0-6.06 2.7 9.17 9.17 0 0 0-2.5 6.48c0 2.44.84 4.57 2.5 6.36a8 8 0 0 0 6.07 2.7c2.28 0 4.26-.9 5.93-2.7a9.03 9.03 0 0 0 2.51-6.36c0-2.53-.84-4.69-2.5-6.49a7.87 7.87 0 0 0-5.95-2.69zM130.37 387c-3.6 0-5.36-2.72-5.36-8.19v-21.57h11.29v-13.5H125c-.05-1.77-.15-5.86-.22-7.78H111.6v7.79h-7.29v13.48h7.29v20.96c0 6.86.86 11.88 2.58 15.05 2.28 4.24 6.3 6.36 12.24 6.36 4.24 0 7.97-.81 10.77-2.44v-12.23a12.22 12.22 0 0 1-6.82 2.08zm-43.78-43.06c-4.8 1.87-9.26 2.82-13.09 2.82a21.42 21.42 0 0 0-10.96-2.94 20.43 20.43 0 0 0-14.31 5.5 19.34 19.34 0 0 0-6.25 14.69 19.4 19.4 0 0 0 3.43 11c2.03 3.19 4.16 5.23 6.96 6.12v.25c-2.8 1.14-4.04 4-4.04 8.57 0 3.5 1.24 6.11 4.04 7.82v.25c-7.72 2.52-11.25 7.21-11.25 14.07 0 5.95 2.6 10.31 7.65 13.08 4 2.2 9.13 3.31 15.33 3.31 15.08 0 22.65-6.32 22.65-18.96 0-7.92-5.83-12.77-17.49-14.57-2.7-.4-4.72-1.38-6.11-2.93-1.07-1.07-1.59-2.12-1.59-3.18 0-3.03 1.63-4.78 4.9-5.26a18.69 18.69 0 0 0 12.17-6.91 21.04 21.04 0 0 0 4.71-13.64c0-1.63-.5-3.39-1.14-5.26a43.5 43.5 0 0 0 4.39-1.23v43.01h14.76v-58.17H86.6zm-22.7 60.93c6.85 0 10.27 2.08 10.27 6.23 0 4.41-3.14 6.61-9.42 6.61-7.17 0-10.76-2.12-10.76-6.36 0-4.32 3.3-6.48 9.9-6.48zm-.86-32.3c-5.14 0-7.7-2.81-7.7-8.44 0-6.03 2.56-9.05 7.7-9.05 2.45 0 4.37.94 5.75 2.81a10.76 10.76 0 0 1 1.7 6.12c.01 5.71-2.47 8.56-7.45 8.56z"/><text style="line-height:1.25;-inkscape-font-specification:sans-serif" x="-1353.04" y="1867.45" font-family="sans-serif" font-size="192" font-weight="400" letter-spacing="0" transform="translate(343.06 8.57) scale(.24848)" word-spacing="0"><tspan x="-1353.04" y="1867.45">Source</tspan></text></g><path fill="#fff" d="M436.26 414.91c-4.55-2.4-6.73-7.6-5.34-12.77.56-2.1 2.1-3.88 11.62-13.47l10.96-11.05 2.82.2c3.78.25 6.56-.67 9.22-3.06a12.79 12.79 0 0 0 4.35-10.08c-.02-2.88.16-3.42 1.63-4.98 2.75-2.92 3.59-2.56 10.74 4.57 7.17 7.15 7.51 7.96 4.56 10.82-1.6 1.54-2.1 1.72-4.98 1.73-7.9.01-13.6 6.02-13.11 13.82l.14 2.38-10.48 10.53c-5.77 5.8-11.4 11-12.5 11.57-2.77 1.45-6.65 1.36-9.63-.21zm18.85-14.58c7.37-7.38 8.75-9.01 8.44-9.97-.78-2.47-2.5-1.34-11.2 7.33-8 8-9.37 9.87-8.13 11.1 1.01 1.03 2.8-.36 10.89-8.46zm-5.93-5.93c7.37-7.38 8.75-9.01 8.45-9.97-.79-2.47-2.52-1.34-11.2 7.33-8 8-9.38 9.87-8.14 11.1 1.02 1.03 2.8-.36 10.89-8.46z"/></svg>