<svg xmlns="http://www.w3.org/2000/svg" width="256" height="170" preserveAspectRatio="xMidYMid"><path fill="#002B64" d="M250.4 0c-3.96.13-2.7 1.27-11.24 3.37-8.62 2.12-19.15 1.47-28.43 5.36-27.7 11.62-33.27 51.33-58.45 65.56-18.83 10.63-37.83 11.47-54.9 16.82-11.23 3.52-23.5 10.74-33.67 19.5-7.88 6.8-8.1 12.8-16.34 21.32-8.82 9.13-35.05.16-46.94 14.13 3.83 3.87 5.5 4.96 13.05 3.95-1.56 2.96-10.77 5.46-8.97 9.82 1.9 4.58 24.17 7.7 44.42-4.53 9.43-5.7 16.94-13.9 31.62-15.85 19-2.53 40.9 1.62 62.9 4.8-3.27 9.72-9.8 16.2-15.06 23.94-1.62 1.74 3.26 1.93 8.84.88 10.03-2.48 17.26-4.48 24.83-8.9 9.3-5.4 10.7-19.28 22.12-22.28 6.35 9.77 23.65 12.08 34.38 4.26-9.42-2.67-12.02-22.7-8.84-31.54 3.02-8.36 6-21.73 9.02-32.78 3.26-11.86 4.46-26.82 8.4-32.86 5.92-9.1 12.47-12.22 18.16-17.35 5.68-5.13 10.9-10.12 10.72-21.85-.06-3.78-2-5.9-5.6-5.78z"/><path fill="#FFF" d="M8.6 159c14.4 2.07 23.18 0 34.76-5.02 9.85-4.27 19.36-13.08 31-16.8 17.08-5.5 35.82 0 54.08 1.1 4.45.25 8.87.26 13.23-.22 6.8-4.18 6.66-19.82 13.3-21.25-.2 21.95-9.2 35.1-18.6 47.83 19.82-3.5 31.68-14.97 39.7-30.3 2.43-4.63 4.5-9.63 6.34-14.87 2.85 2.18 1.24 8.8 2.67 12.4 13.66-7.6 21.48-24.97 26.66-42.53 6-20.33 8.44-40.9 12.3-46.92 3.78-5.86 9.65-9.48 15-13.24 6.1-4.27 11.53-8.73 12.47-16.87-6.42-.6-7.9-2.1-8.86-5.32-3.2 1.8-6.17 2.2-9.5 2.3-2.9.1-6.1-.04-9.98.36-32.16 3.3-36.25 38.74-56.86 58.84-1.5 1.46-3.12 2.82-4.84 4.1-7.22 5.38-16.07 9.23-24.22 12.34-13.18 5.04-25.7 5.4-38.08 9.74-9.08 3.2-18.3 7.82-25.76 12.93-1.87 1.26-3.62 2.57-5.24 3.9-4.38 3.57-7.25 7.54-10.03 11.63-2.86 4.2-5.63 8.54-9.85 12.68-6.83 6.72-32.37 1.97-41.36 8.2-1 .68-1.8 1.52-2.34 2.5 4.9 2.24 8.18.87 13.83 1.5.75 5.35-11.64 8.53-9.8 11zM203.44 120.43c.38 6.14 3.94 18.33 7.1 21.3-6.17 1.5-16.8-1-19.52-5.34 1.4-6.3 8.7-12.03 12.42-15.97z"/><path fill="#002B64" d="M212.47 22.93c4.55 3.96 14.1.8 12.4-7.08-7.08-.58-11.18 1.82-12.4 7.08zM244.2 13.74c-1.2 2.54-3.52 5.82-3.52 12.28 0 1.1-.84 1.88-.86.16.06-6.32 1.74-9.05 3.5-12.64.84-1.47 1.34-.86.9.2z"/><path fill="#002B64" d="M243 12.8c-1.44 2.4-4.88 6.83-5.45 13.27-.1 1.1-1 1.8-.87.08.62-6.28 3.37-10.22 5.46-13.64.95-1.38 1.4-.73.85.3zM241.88 11.52c-1.63 2.3-6.93 7.6-8.03 13.97-.2 1.08-1.15 1.7-.87 0 1.14-6.2 5.7-11.1 8.07-14.33 1.06-1.3 1.45-.62.83.35z"/><path fill="#002B64" d="M240.88 10.1c-1.93 2.05-8.24 8.82-10.23 14.97-.35 1.05-1.38 1.52-.86-.1 2-6 7.52-12.46 10.32-15.33 1.23-1.14 1.52-.4.76.47z"/></svg>