<svg xmlns="http://www.w3.org/2000/svg" width="256" height="255" preserveAspectRatio="xMidYMid"><path fill="#464342" d="M18.12 127.5c0 43.3 25.16 80.7 61.65 98.44L27.6 83c-6.08 13.6-9.48 28.64-9.48 44.5zm183.23-5.52c0-13.52-4.86-22.88-9.03-30.17-5.54-9-10.74-16.63-10.74-25.64 0-10.05 7.63-19.4 18.37-19.4.5 0 .95.05 1.42.08C181.9 29 155.97 18.12 127.5 18.12c-38.2 0-71.83 19.6-91.4 49.3 2.58.08 5 .14 7.05.14 11.44 0 29.15-1.4 29.15-1.4 5.9-.34 6.6 8.32.7 9.02 0 0-5.92.7-12.5 1.04L100.3 194.7l23.94-71.8-17.05-46.68c-5.88-.35-11.46-1.05-11.46-1.05-5.9-.34-5.2-9.35.7-9 0 0 18.06 1.38 28.8 1.38 11.45 0 29.16-1.4 29.16-1.4 5.9-.33 6.6 8.33.7 9.02 0 0-5.94.7-12.52 1.05L182.1 193.8l10.92-36.46c4.73-15.13 8.33-26 8.33-35.36zm-71.93 15.1l-32.8 95.35c9.78 2.88 20.15 4.46 30.88 4.46 12.74 0 24.96-2.2 36.33-6.2-.3-.48-.56-.98-.78-1.52l-33.63-92.1zM223.48 75c.47 3.5.74 7.23.74 11.25 0 11.1-2.07 23.58-8.32 39.18l-33.4 96.6c32.5-18.96 54.38-54.2 54.38-94.55 0-19-4.85-36.9-13.4-52.48zM127.5 0C57.2 0 0 57.2 0 127.5S57.2 255 127.5 255s127.52-57.2 127.52-127.5S197.82 0 127.5 0zm0 249.16c-67.08 0-121.65-54.58-121.65-121.66S60.42 5.85 127.5 5.85c67.08 0 121.66 54.57 121.66 121.65 0 67.08-54.58 121.66-121.66 121.66z"/></svg>