<svg xmlns="http://www.w3.org/2000/svg" width="256" height="76" preserveAspectRatio="xMidYMid"><defs><linearGradient id="a" x1="48.38%" x2="51.44%" y1="-14.47%" y2="108.2%"><stop stop-color="#6A3894" offset="0%"/><stop stop-color="#8A2F83" offset="10.58%"/><stop stop-color="#B4256C" offset="26.53%"/><stop stop-color="#D31C5D" offset="40.92%"/><stop stop-color="#E51E54" offset="53.09%"/><stop stop-color="#EC1E4F" offset="61.58%"/><stop stop-color="#F8E47F" offset="100%"/></linearGradient><linearGradient id="b" x1="49.46%" x2="52.04%" y1="25.14%" y2="134.88%"><stop stop-color="#6A3894" offset="0%"/><stop stop-color="#8A2F83" offset="10.58%"/><stop stop-color="#B4256C" offset="26.53%"/><stop stop-color="#D31C5D" offset="40.92%"/><stop stop-color="#E51E54" offset="53.09%"/><stop stop-color="#EC1E4F" offset="61.58%"/><stop stop-color="#F8E47F" offset="100%"/></linearGradient><linearGradient id="c" x1="48.22%" x2="51.66%" y1="-15.77%" y2="108.58%"><stop stop-color="#6A3894" offset="0%"/><stop stop-color="#8A2F83" offset="10.58%"/><stop stop-color="#B4256C" offset="26.53%"/><stop stop-color="#D31C5D" offset="40.92%"/><stop stop-color="#E51E54" offset="53.09%"/><stop stop-color="#EC1E4F" offset="61.58%"/><stop stop-color="#F8E47F" offset="100%"/></linearGradient><linearGradient id="d" x1="48.85%" x2="52.55%" y1="14.37%" y2="133.91%"><stop stop-color="#6A3894" offset="0%"/><stop stop-color="#8A2F83" offset="10.58%"/><stop stop-color="#B4256C" offset="26.53%"/><stop stop-color="#D31C5D" offset="40.92%"/><stop stop-color="#E51E54" offset="53.09%"/><stop stop-color="#EC1E4F" offset="61.58%"/><stop stop-color="#F8E47F" offset="100%"/></linearGradient><linearGradient id="e" x1="48.48%" x2="51.65%" y1="-17.02%" y2="108.53%"><stop stop-color="#6A3894" offset="0%"/><stop stop-color="#8A2F83" offset="10.58%"/><stop stop-color="#B4256C" offset="26.53%"/><stop stop-color="#D31C5D" offset="40.92%"/><stop stop-color="#E51E54" offset="53.09%"/><stop stop-color="#EC1E4F" offset="61.58%"/><stop stop-color="#F8E47F" offset="100%"/></linearGradient><linearGradient id="f" x1="48.96%" x2="52.14%" y1="4.91%" y2="155.04%"><stop stop-color="#6A3894" offset="0%"/><stop stop-color="#8A2F83" offset="10.58%"/><stop stop-color="#B4256C" offset="26.53%"/><stop stop-color="#D31C5D" offset="40.92%"/><stop stop-color="#E51E54" offset="53.09%"/><stop stop-color="#EC1E4F" offset="61.58%"/><stop stop-color="#F8E47F" offset="100%"/></linearGradient><linearGradient id="g" x1="48.75%" x2="51.57%" y1="-20.57%" y2="111.81%"><stop stop-color="#6A3894" offset="0%"/><stop stop-color="#8A2F83" offset="10.58%"/><stop stop-color="#B4256C" offset="26.53%"/><stop stop-color="#D31C5D" offset="40.92%"/><stop stop-color="#E51E54" offset="53.09%"/><stop stop-color="#EC1E4F" offset="61.58%"/><stop stop-color="#F8E47F" offset="100%"/></linearGradient><linearGradient id="h" x1="48.9%" x2="51.96%" y1="-8.26%" y2="139.51%"><stop stop-color="#6A3894" offset="0%"/><stop stop-color="#8A2F83" offset="10.58%"/><stop stop-color="#B4256C" offset="26.53%"/><stop stop-color="#D31C5D" offset="40.92%"/><stop stop-color="#E51E54" offset="53.09%"/><stop stop-color="#EC1E4F" offset="61.58%"/><stop stop-color="#F8E47F" offset="100%"/></linearGradient><linearGradient id="i" x1="48.88%" x2="49.75%" y1="-40.57%" y2="35.51%"><stop stop-color="#F8E47F" offset="0%"/><stop stop-color="#F7DB7C" offset="10.57%"/><stop stop-color="#F3C87B" offset="34.93%"/><stop stop-color="#F2C179" offset="51.98%"/><stop stop-color="#F6D17B" offset="70.96%"/><stop stop-color="#F8E47F" offset="100%"/></linearGradient><linearGradient id="j" x1="61.3%" x2="47.17%" y1="-95.75%" y2="83.38%"><stop stop-color="#F8E47F" offset="0%"/><stop stop-color="#F7DB7C" offset="10.57%"/><stop stop-color="#F3C87B" offset="34.93%"/><stop stop-color="#F2C179" offset="51.98%"/><stop stop-color="#F6D17B" offset="70.96%"/><stop stop-color="#F8E47F" offset="100%"/></linearGradient><linearGradient id="k" x1="48.76%" x2="49.83%" y1="-62.55%" y2="31.52%"><stop stop-color="#F8E47F" offset="0%"/><stop stop-color="#F7DB7C" offset="10.57%"/><stop stop-color="#F3C87B" offset="34.93%"/><stop stop-color="#F2C179" offset="51.98%"/><stop stop-color="#F6D17B" offset="70.96%"/><stop stop-color="#F8E47F" offset="100%"/></linearGradient><linearGradient id="l" x1="61.89%" x2="44.03%" y1="-134.19%" y2="133.25%"><stop stop-color="#F8E47F" offset="0%"/><stop stop-color="#F7DB7C" offset="10.57%"/><stop stop-color="#F3C87B" offset="34.93%"/><stop stop-color="#F2C179" offset="51.98%"/><stop stop-color="#F6D17B" offset="70.96%"/><stop stop-color="#F8E47F" offset="100%"/></linearGradient><linearGradient id="m" x1="47.96%" x2="49.58%" y1="-127.5%" y2="28.73%"><stop stop-color="#F8E47F" offset="0%"/><stop stop-color="#F7DB7C" offset="10.57%"/><stop stop-color="#F3C87B" offset="34.93%"/><stop stop-color="#F2C179" offset="51.98%"/><stop stop-color="#F6D17B" offset="70.96%"/><stop stop-color="#F8E47F" offset="100%"/></linearGradient><linearGradient id="n" x1="48.01%" x2="50%" y1="-165.23%" y2="24.96%"><stop stop-color="#F8E47F" offset="0%"/><stop stop-color="#F7DB7C" offset="10.57%"/><stop stop-color="#F3C87B" offset="34.93%"/><stop stop-color="#F2C179" offset="51.98%"/><stop stop-color="#F6D17B" offset="70.96%"/><stop stop-color="#F8E47F" offset="100%"/></linearGradient><linearGradient id="o" x1="49.42%" x2="51.33%" y1="-96.09%" y2="148.65%"><stop stop-color="#F8E47F" offset="0%"/><stop stop-color="#F7DB7C" offset="10.57%"/><stop stop-color="#F3C87B" offset="34.93%"/><stop stop-color="#F2C179" offset="51.98%"/><stop stop-color="#F6D17B" offset="70.96%"/><stop stop-color="#F8E47F" offset="100%"/></linearGradient><linearGradient id="p" x1="47.29%" x2="50.25%" y1="-269.55%" y2="94.97%"><stop stop-color="#F8E47F" offset="0%"/><stop stop-color="#F7DB7C" offset="10.57%"/><stop stop-color="#F3C87B" offset="34.93%"/><stop stop-color="#F2C179" offset="51.98%"/><stop stop-color="#F6D17B" offset="70.96%"/><stop stop-color="#F8E47F" offset="100%"/></linearGradient><linearGradient id="q" x1="36.81%" x2="63.32%" y1="136.87%" y2="-33.29%"><stop stop-color="#6A3894" offset="0%"/><stop stop-color="#8A2F83" offset="10.58%"/><stop stop-color="#B4256C" offset="26.53%"/><stop stop-color="#D31C5D" offset="40.92%"/><stop stop-color="#E51E54" offset="53.09%"/><stop stop-color="#EC1E4F" offset="61.58%"/><stop stop-color="#F8E47F" offset="100%"/></linearGradient><linearGradient id="r" x1="51.27%" x2="111.2%" y1="47.8%" y2="-92.98%"><stop stop-color="#6A3894" offset="0%"/><stop stop-color="#8A2F83" offset="10.58%"/><stop stop-color="#B4256C" offset="26.53%"/><stop stop-color="#D31C5D" offset="40.92%"/><stop stop-color="#E51E54" offset="53.09%"/><stop stop-color="#EC1E4F" offset="61.58%"/><stop stop-color="#F8E47F" offset="100%"/></linearGradient><linearGradient id="s" x1="28.86%" x2="66.47%" y1="154.57%" y2="-25.94%"><stop stop-color="#6A3894" offset="0%"/><stop stop-color="#8A2F83" offset="10.58%"/><stop stop-color="#B4256C" offset="26.53%"/><stop stop-color="#D31C5D" offset="40.92%"/><stop stop-color="#E51E54" offset="53.09%"/><stop stop-color="#EC1E4F" offset="61.58%"/><stop stop-color="#F8E47F" offset="100%"/></linearGradient><linearGradient id="t" x1="39.41%" x2="98.6%" y1="88.52%" y2="-60.13%"><stop stop-color="#6A3894" offset="0%"/><stop stop-color="#8A2F83" offset="10.58%"/><stop stop-color="#B4256C" offset="26.53%"/><stop stop-color="#D31C5D" offset="40.92%"/><stop stop-color="#E51E54" offset="53.09%"/><stop stop-color="#EC1E4F" offset="61.58%"/><stop stop-color="#F8E47F" offset="100%"/></linearGradient><linearGradient id="u" x1="30.21%" x2="63.34%" y1="198.32%" y2="-44.55%"><stop stop-color="#6A3894" offset="0%"/><stop stop-color="#8A2F83" offset="10.58%"/><stop stop-color="#B4256C" offset="26.53%"/><stop stop-color="#D31C5D" offset="40.92%"/><stop stop-color="#E51E54" offset="53.09%"/><stop stop-color="#EC1E4F" offset="61.58%"/><stop stop-color="#F8E47F" offset="100%"/></linearGradient><linearGradient id="v" x1="23.35%" x2="83.03%" y1="145.5%" y2="-60.88%"><stop stop-color="#6A3894" offset="0%"/><stop stop-color="#8A2F83" offset="10.58%"/><stop stop-color="#B4256C" offset="26.53%"/><stop stop-color="#D31C5D" offset="40.92%"/><stop stop-color="#E51E54" offset="53.09%"/><stop stop-color="#EC1E4F" offset="61.58%"/><stop stop-color="#F8E47F" offset="100%"/></linearGradient><linearGradient id="w" x1="27.96%" x2="59.91%" y1="228.38%" y2="-21.3%"><stop stop-color="#6A3894" offset="0%"/><stop stop-color="#8A2F83" offset="10.58%"/><stop stop-color="#B4256C" offset="26.53%"/><stop stop-color="#D31C5D" offset="40.92%"/><stop stop-color="#E51E54" offset="53.09%"/><stop stop-color="#EC1E4F" offset="61.58%"/><stop stop-color="#F8E47F" offset="100%"/></linearGradient><linearGradient id="x" x1="50.05%" x2="50.95%" y1="55.25%" y2="155.8%"><stop stop-color="#F8E47F" offset="0%"/><stop stop-color="#F7DB7C" offset="10.57%"/><stop stop-color="#F3C87B" offset="34.93%"/><stop stop-color="#F2C179" offset="51.98%"/><stop stop-color="#F6D17B" offset="70.96%"/><stop stop-color="#F8E47F" offset="100%"/></linearGradient><linearGradient id="y" x1="52.93%" x2="41%" y1="4.42%" y2="204.29%"><stop stop-color="#F8E47F" offset="0%"/><stop stop-color="#F7DB7C" offset="10.57%"/><stop stop-color="#F3C87B" offset="34.93%"/><stop stop-color="#F2C179" offset="51.98%"/><stop stop-color="#F6D17B" offset="70.96%"/><stop stop-color="#F8E47F" offset="100%"/></linearGradient><linearGradient id="z" x1="54.56%" x2="39.84%" y1="-13.07%" y2="224.28%"><stop stop-color="#F8E47F" offset="0%"/><stop stop-color="#F7DB7C" offset="10.57%"/><stop stop-color="#F3C87B" offset="34.93%"/><stop stop-color="#F2C179" offset="51.98%"/><stop stop-color="#F6D17B" offset="70.96%"/><stop stop-color="#F8E47F" offset="100%"/></linearGradient><linearGradient id="A" x1="58.24%" x2="35.88%" y1="-110.72%" y2="341.38%"><stop stop-color="#F8E47F" offset="0%"/><stop stop-color="#F7DB7C" offset="10.57%"/><stop stop-color="#F3C87B" offset="34.93%"/><stop stop-color="#F2C179" offset="51.98%"/><stop stop-color="#F6D17B" offset="70.96%"/><stop stop-color="#F8E47F" offset="100%"/></linearGradient><linearGradient id="B" x1="48.74%" x2="50.61%" y1="-111.61%" y2="138.35%"><stop stop-color="#F8E47F" offset="0%"/><stop stop-color="#F7DB7C" offset="10.57%"/><stop stop-color="#F3C87B" offset="34.93%"/><stop stop-color="#F2C179" offset="51.98%"/><stop stop-color="#F6D17B" offset="70.96%"/><stop stop-color="#F8E47F" offset="100%"/></linearGradient><linearGradient id="C" x1="49.45%" x2="50.6%" y1="4.04%" y2="145.15%"><stop stop-color="#F8E47F" offset="0%"/><stop stop-color="#F7DB7C" offset="10.57%"/><stop stop-color="#F3C87B" offset="34.93%"/><stop stop-color="#F2C179" offset="51.98%"/><stop stop-color="#F6D17B" offset="70.96%"/><stop stop-color="#F8E47F" offset="100%"/></linearGradient><linearGradient id="D" x1="106.72%" x2=".73%" y1="8.25%" y2="121.34%"><stop stop-color="#7F3996" offset="0%"/><stop stop-color="#9C2F82" offset="7.1%"/><stop stop-color="#B92770" offset="15.99%"/><stop stop-color="#D02162" offset="25.42%"/><stop stop-color="#DF1E57" offset="35.54%"/><stop stop-color="#E91F52" offset="46.82%"/><stop stop-color="#EC1E4F" offset="61.58%"/><stop stop-color="#F8E47F" offset="100%"/></linearGradient><linearGradient id="E" x1="99.54%" x2="9.97%" y1="11.09%" y2="104.95%"><stop stop-color="#7F3996" offset="0%"/><stop stop-color="#9C2F82" offset="7.1%"/><stop stop-color="#B92770" offset="15.99%"/><stop stop-color="#D02162" offset="25.42%"/><stop stop-color="#DF1E57" offset="35.54%"/><stop stop-color="#E91F52" offset="46.82%"/><stop stop-color="#EC1E4F" offset="61.58%"/><stop stop-color="#F8E47F" offset="100%"/></linearGradient><linearGradient id="F" x1="87.2%" x2="13.24%" y1="12.43%" y2="100.15%"><stop stop-color="#7F3996" offset="0%"/><stop stop-color="#9C2F82" offset="7.1%"/><stop stop-color="#B92770" offset="15.99%"/><stop stop-color="#D02162" offset="25.42%"/><stop stop-color="#DF1E57" offset="35.54%"/><stop stop-color="#E91F52" offset="46.82%"/><stop stop-color="#EC1E4F" offset="61.58%"/><stop stop-color="#F8E47F" offset="100%"/></linearGradient><linearGradient id="G" x1="80.29%" x2="21.4%" y1="14.09%" y2="97.16%"><stop stop-color="#7F3996" offset="0%"/><stop stop-color="#9C2F82" offset="7.1%"/><stop stop-color="#B92770" offset="15.99%"/><stop stop-color="#D02162" offset="25.42%"/><stop stop-color="#DF1E57" offset="35.54%"/><stop stop-color="#E91F52" offset="46.82%"/><stop stop-color="#EC1E4F" offset="61.58%"/><stop stop-color="#F8E47F" offset="100%"/></linearGradient><linearGradient id="H" x1="76.03%" x2="25.92%" y1="-4.78%" y2="100.05%"><stop stop-color="#7F3996" offset="0%"/><stop stop-color="#873A93" offset="9.59%"/><stop stop-color="#9E3B90" offset="24.69%"/><stop stop-color="#C23B89" offset="43.29%"/><stop stop-color="#EC3E81" offset="61.58%"/><stop stop-color="#F8E47F" offset="100%"/></linearGradient><linearGradient id="I" x1="54.8%" x2="35.23%" y1="35.23%" y2="97.28%"><stop stop-color="#7F3996" offset="0%"/><stop stop-color="#9C2F82" offset="7.1%"/><stop stop-color="#B92770" offset="15.99%"/><stop stop-color="#D02162" offset="25.42%"/><stop stop-color="#DF1E57" offset="35.54%"/><stop stop-color="#E91F52" offset="46.82%"/><stop stop-color="#EC1E4F" offset="61.58%"/><stop stop-color="#F8E47F" offset="100%"/></linearGradient><linearGradient id="J" x1="56.07%" x2="41.89%" y1="31.59%" y2="89.9%"><stop stop-color="#7F3996" offset="0%"/><stop stop-color="#9C2F82" offset="7.1%"/><stop stop-color="#B92770" offset="15.99%"/><stop stop-color="#D02162" offset="25.42%"/><stop stop-color="#DF1E57" offset="35.54%"/><stop stop-color="#E91F52" offset="46.82%"/><stop stop-color="#EC1E4F" offset="61.58%"/><stop stop-color="#F8E47F" offset="100%"/></linearGradient><linearGradient id="K" x1="54.69%" x2="32.08%" y1="22.49%" y2="154.95%"><stop stop-color="#7F3996" offset="0%"/><stop stop-color="#9C2F82" offset="7.1%"/><stop stop-color="#B92770" offset="15.99%"/><stop stop-color="#D02162" offset="25.42%"/><stop stop-color="#DF1E57" offset="35.54%"/><stop stop-color="#E91F52" offset="46.82%"/><stop stop-color="#EC1E4F" offset="61.58%"/><stop stop-color="#F8E47F" offset="100%"/></linearGradient><linearGradient id="L" x1="56.25%" x2="40.59%" y1="25.1%" y2="88.79%"><stop stop-color="#7F3996" offset="0%"/><stop stop-color="#9C2F82" offset="7.1%"/><stop stop-color="#B92770" offset="15.99%"/><stop stop-color="#D02162" offset="25.42%"/><stop stop-color="#DF1E57" offset="35.54%"/><stop stop-color="#E91F52" offset="46.82%"/><stop stop-color="#EC1E4F" offset="61.58%"/><stop stop-color="#F8E47F" offset="100%"/></linearGradient><linearGradient id="M" x1="55.8%" x2="33.19%" y1="12.81%" y2="155.29%"><stop stop-color="#7F3996" offset="0%"/><stop stop-color="#9C2F82" offset="7.1%"/><stop stop-color="#B92770" offset="15.99%"/><stop stop-color="#D02162" offset="25.42%"/><stop stop-color="#DF1E57" offset="35.54%"/><stop stop-color="#E91F52" offset="46.82%"/><stop stop-color="#EC1E4F" offset="61.58%"/><stop stop-color="#F8E47F" offset="100%"/></linearGradient><linearGradient id="N" x1="54.1%" x2="46.78%" y1="7.86%" y2="83.49%"><stop stop-color="#7F3996" offset="0%"/><stop stop-color="#9C2F82" offset="7.1%"/><stop stop-color="#B92770" offset="15.99%"/><stop stop-color="#D02162" offset="25.42%"/><stop stop-color="#DF1E57" offset="35.54%"/><stop stop-color="#E91F52" offset="46.82%"/><stop stop-color="#EC1E4F" offset="61.58%"/><stop stop-color="#F8E47F" offset="100%"/></linearGradient><linearGradient id="O" x1="52.81%" x2="44.77%" y1="16.02%" y2="115.37%"><stop stop-color="#7F3996" offset="0%"/><stop stop-color="#9C2F82" offset="7.1%"/><stop stop-color="#B92770" offset="15.99%"/><stop stop-color="#D02162" offset="25.42%"/><stop stop-color="#DF1E57" offset="35.54%"/><stop stop-color="#E91F52" offset="46.82%"/><stop stop-color="#EC1E4F" offset="61.58%"/><stop stop-color="#F8E47F" offset="100%"/></linearGradient><linearGradient id="P" x1="53.1%" x2="44.41%" y1="11.8%" y2="118.91%"><stop stop-color="#7F3996" offset="0%"/><stop stop-color="#9C2F82" offset="7.1%"/><stop stop-color="#B92770" offset="15.99%"/><stop stop-color="#D02162" offset="25.42%"/><stop stop-color="#DF1E57" offset="35.54%"/><stop stop-color="#E91F52" offset="46.82%"/><stop stop-color="#EC1E4F" offset="61.58%"/><stop stop-color="#F8E47F" offset="100%"/></linearGradient><linearGradient id="Q" x1="55.46%" x2="37.3%" y1=".98%" y2="159.67%"><stop stop-color="#7F3996" offset="0%"/><stop stop-color="#9C2F82" offset="7.1%"/><stop stop-color="#B92770" offset="15.99%"/><stop stop-color="#D02162" offset="25.42%"/><stop stop-color="#DF1E57" offset="35.54%"/><stop stop-color="#E91F52" offset="46.82%"/><stop stop-color="#EC1E4F" offset="61.58%"/><stop stop-color="#F8E47F" offset="100%"/></linearGradient><linearGradient id="R" x1="54.84%" x2="39.38%" y1="-.94%" y2="157.76%"><stop stop-color="#7F3996" offset="0%"/><stop stop-color="#9C2F82" offset="7.1%"/><stop stop-color="#B92770" offset="15.99%"/><stop stop-color="#D02162" offset="25.42%"/><stop stop-color="#DF1E57" offset="35.54%"/><stop stop-color="#E91F52" offset="46.82%"/><stop stop-color="#EC1E4F" offset="61.58%"/><stop stop-color="#F8E47F" offset="100%"/></linearGradient><linearGradient id="S" x1="54.57%" x2="44.51%" y1="15.51%" y2="89.97%"><stop stop-color="#7F3996" offset="0%"/><stop stop-color="#9C2F82" offset="7.1%"/><stop stop-color="#B92770" offset="15.99%"/><stop stop-color="#D02162" offset="25.42%"/><stop stop-color="#DF1E57" offset="35.54%"/><stop stop-color="#E91F52" offset="46.82%"/><stop stop-color="#EC1E4F" offset="61.58%"/><stop stop-color="#F8E47F" offset="100%"/></linearGradient><linearGradient id="T" x1="54.24%" x2="41.21%" y1="-3.01%" y2="160.55%"><stop stop-color="#7F3996" offset="0%"/><stop stop-color="#9C2F82" offset="7.1%"/><stop stop-color="#B92770" offset="15.99%"/><stop stop-color="#D02162" offset="25.42%"/><stop stop-color="#DF1E57" offset="35.54%"/><stop stop-color="#E91F52" offset="46.82%"/><stop stop-color="#EC1E4F" offset="61.58%"/><stop stop-color="#F8E47F" offset="100%"/></linearGradient><linearGradient id="U" x1="53.78%" x2="45.32%" y1="17.45%" y2="92.29%"><stop stop-color="#7F3996" offset="0%"/><stop stop-color="#9C2F82" offset="7.1%"/><stop stop-color="#B92770" offset="15.99%"/><stop stop-color="#D02162" offset="25.42%"/><stop stop-color="#DF1E57" offset="35.54%"/><stop stop-color="#E91F52" offset="46.82%"/><stop stop-color="#EC1E4F" offset="61.58%"/><stop stop-color="#F8E47F" offset="100%"/></linearGradient><linearGradient id="V" x1="53.99%" x2="41.86%" y1="-4.16%" y2="155.33%"><stop stop-color="#7F3996" offset="0%"/><stop stop-color="#9C2F82" offset="7.1%"/><stop stop-color="#B92770" offset="15.99%"/><stop stop-color="#D02162" offset="25.42%"/><stop stop-color="#DF1E57" offset="35.54%"/><stop stop-color="#E91F52" offset="46.82%"/><stop stop-color="#EC1E4F" offset="61.58%"/><stop stop-color="#F8E47F" offset="100%"/></linearGradient><linearGradient id="W" x1="52.89%" x2="45.15%" y1="20.82%" y2="98.46%"><stop stop-color="#7F3996" offset="0%"/><stop stop-color="#9C2F82" offset="7.1%"/><stop stop-color="#B92770" offset="15.99%"/><stop stop-color="#D02162" offset="25.42%"/><stop stop-color="#DF1E57" offset="35.54%"/><stop stop-color="#E91F52" offset="46.82%"/><stop stop-color="#EC1E4F" offset="61.58%"/><stop stop-color="#F8E47F" offset="100%"/></linearGradient><linearGradient id="X" x1="18.8%" x2="117.4%" y1="73.65%" y2="-83.5%"><stop stop-color="#6A3894" offset="0%"/><stop stop-color="#8A2F83" offset="10.58%"/><stop stop-color="#B4256C" offset="26.53%"/><stop stop-color="#D31C5D" offset="40.92%"/><stop stop-color="#E51E54" offset="53.09%"/><stop stop-color="#EC1E4F" offset="61.58%"/><stop stop-color="#F8E47F" offset="100%"/></linearGradient><linearGradient id="Y" x1="27.74%" x2="110%" y1="80.15%" y2="-58.87%"><stop stop-color="#6A3894" offset="0%"/><stop stop-color="#8A2F83" offset="10.58%"/><stop stop-color="#B4256C" offset="26.53%"/><stop stop-color="#D31C5D" offset="40.92%"/><stop stop-color="#E51E54" offset="53.09%"/><stop stop-color="#EC1E4F" offset="61.58%"/><stop stop-color="#F8E47F" offset="100%"/></linearGradient><linearGradient id="Z" x1="38.21%" x2="91.4%" y1="76.92%" y2="-54.68%"><stop stop-color="#6A3894" offset="0%"/><stop stop-color="#8A2F83" offset="10.58%"/><stop stop-color="#B4256C" offset="26.53%"/><stop stop-color="#D31C5D" offset="40.92%"/><stop stop-color="#E51E54" offset="53.09%"/><stop stop-color="#EC1E4F" offset="61.58%"/><stop stop-color="#F8E47F" offset="100%"/></linearGradient><linearGradient id="aa" x1="32.74%" x2="87.58%" y1="82.69%" y2="-44.69%"><stop stop-color="#6A3894" offset="0%"/><stop stop-color="#8A2F83" offset="10.58%"/><stop stop-color="#B4256C" offset="26.53%"/><stop stop-color="#D31C5D" offset="40.92%"/><stop stop-color="#E51E54" offset="53.09%"/><stop stop-color="#EC1E4F" offset="61.58%"/><stop stop-color="#F8E47F" offset="100%"/></linearGradient><linearGradient id="ab" x1="40.24%" x2="84.91%" y1="78.53%" y2="-52.42%"><stop stop-color="#6A3894" offset="0%"/><stop stop-color="#8A2F83" offset="10.58%"/><stop stop-color="#B4256C" offset="26.53%"/><stop stop-color="#D31C5D" offset="40.92%"/><stop stop-color="#E51E54" offset="53.09%"/><stop stop-color="#EC1E4F" offset="61.58%"/><stop stop-color="#F8E47F" offset="100%"/></linearGradient><linearGradient id="ac" x1="33.92%" x2="78.72%" y1="87.72%" y2="-34.24%"><stop stop-color="#6A3894" offset="0%"/><stop stop-color="#8A2F83" offset="10.58%"/><stop stop-color="#B4256C" offset="26.53%"/><stop stop-color="#D31C5D" offset="40.92%"/><stop stop-color="#E51E54" offset="53.09%"/><stop stop-color="#EC1E4F" offset="61.58%"/><stop stop-color="#F8E47F" offset="100%"/></linearGradient><linearGradient id="ad" x1="41.13%" x2="78.05%" y1="77.81%" y2="-44.17%"><stop stop-color="#6A3894" offset="0%"/><stop stop-color="#8A2F83" offset="10.58%"/><stop stop-color="#B4256C" offset="26.53%"/><stop stop-color="#D31C5D" offset="40.92%"/><stop stop-color="#E51E54" offset="53.09%"/><stop stop-color="#EC1E4F" offset="61.58%"/><stop stop-color="#F8E47F" offset="100%"/></linearGradient><linearGradient id="ae" x1="40.87%" x2="80.11%" y1="82%" y2="-43.42%"><stop stop-color="#6A3894" offset="0%"/><stop stop-color="#8A2F83" offset="10.58%"/><stop stop-color="#B4256C" offset="26.53%"/><stop stop-color="#D31C5D" offset="40.92%"/><stop stop-color="#E51E54" offset="53.09%"/><stop stop-color="#EC1E4F" offset="61.58%"/><stop stop-color="#F8E47F" offset="100%"/></linearGradient><linearGradient id="af" x1="33.91%" x2="77.48%" y1="98.21%" y2="-29.17%"><stop stop-color="#6A3894" offset="0%"/><stop stop-color="#8A2F83" offset="10.58%"/><stop stop-color="#B4256C" offset="26.53%"/><stop stop-color="#D31C5D" offset="40.92%"/><stop stop-color="#E51E54" offset="53.09%"/><stop stop-color="#EC1E4F" offset="61.58%"/><stop stop-color="#F8E47F" offset="100%"/></linearGradient><linearGradient id="ag" x1="40.31%" x2="78.45%" y1="85.98%" y2="-51.02%"><stop stop-color="#6A3894" offset="0%"/><stop stop-color="#8A2F83" offset="10.58%"/><stop stop-color="#B4256C" offset="26.53%"/><stop stop-color="#D31C5D" offset="40.92%"/><stop stop-color="#E51E54" offset="53.09%"/><stop stop-color="#EC1E4F" offset="61.58%"/><stop stop-color="#F8E47F" offset="100%"/></linearGradient><linearGradient id="ah" x1="32.38%" x2="74.78%" y1="106.14%" y2="-27.15%"><stop stop-color="#6A3894" offset="0%"/><stop stop-color="#8A2F83" offset="10.58%"/><stop stop-color="#B4256C" offset="26.53%"/><stop stop-color="#D31C5D" offset="40.92%"/><stop stop-color="#E51E54" offset="53.09%"/><stop stop-color="#EC1E4F" offset="61.58%"/><stop stop-color="#F8E47F" offset="100%"/></linearGradient><linearGradient id="ai" x1="39.51%" x2="78.19%" y1="90.21%" y2="-48.94%"><stop stop-color="#6A3894" offset="0%"/><stop stop-color="#8A2F83" offset="10.58%"/><stop stop-color="#B4256C" offset="26.53%"/><stop stop-color="#D31C5D" offset="40.92%"/><stop stop-color="#E51E54" offset="53.09%"/><stop stop-color="#EC1E4F" offset="61.58%"/><stop stop-color="#F8E47F" offset="100%"/></linearGradient><linearGradient id="aj" x1="31.24%" x2="72.91%" y1="113.21%" y2="-28.09%"><stop stop-color="#6A3894" offset="0%"/><stop stop-color="#8A2F83" offset="10.58%"/><stop stop-color="#B4256C" offset="26.53%"/><stop stop-color="#D31C5D" offset="40.92%"/><stop stop-color="#E51E54" offset="53.09%"/><stop stop-color="#EC1E4F" offset="61.58%"/><stop stop-color="#F8E47F" offset="100%"/></linearGradient><linearGradient id="ak" x1="40.42%" x2="72.37%" y1="97.37%" y2="-52.71%"><stop stop-color="#6A3894" offset="0%"/><stop stop-color="#8A2F83" offset="10.58%"/><stop stop-color="#B4256C" offset="26.53%"/><stop stop-color="#D31C5D" offset="40.92%"/><stop stop-color="#E51E54" offset="53.09%"/><stop stop-color="#EC1E4F" offset="61.58%"/><stop stop-color="#F8E47F" offset="100%"/></linearGradient><linearGradient id="al" x1="28.39%" x2="69.16%" y1="127.88%" y2="-23.33%"><stop stop-color="#6A3894" offset="0%"/><stop stop-color="#8A2F83" offset="10.58%"/><stop stop-color="#B4256C" offset="26.53%"/><stop stop-color="#D31C5D" offset="40.92%"/><stop stop-color="#E51E54" offset="53.09%"/><stop stop-color="#EC1E4F" offset="61.58%"/><stop stop-color="#F8E47F" offset="100%"/></linearGradient><linearGradient id="am" x1="39.34%" x2="68.74%" y1="105.27%" y2="-45.67%"><stop stop-color="#6A3894" offset="0%"/><stop stop-color="#8A2F83" offset="10.58%"/><stop stop-color="#B4256C" offset="26.53%"/><stop stop-color="#D31C5D" offset="40.92%"/><stop stop-color="#E51E54" offset="53.09%"/><stop stop-color="#EC1E4F" offset="61.58%"/><stop stop-color="#F8E47F" offset="100%"/></linearGradient><linearGradient id="an" x1="38.57%" x2="67.75%" y1="109.27%" y2="-46.05%"><stop stop-color="#6A3894" offset="0%"/><stop stop-color="#8A2F83" offset="10.58%"/><stop stop-color="#B4256C" offset="26.53%"/><stop stop-color="#D31C5D" offset="40.92%"/><stop stop-color="#E51E54" offset="53.09%"/><stop stop-color="#EC1E4F" offset="61.58%"/><stop stop-color="#F8E47F" offset="100%"/></linearGradient><linearGradient id="ao" x1="39.2%" x2="65.89%" y1="117.02%" y2="-33.06%"><stop stop-color="#6A3894" offset="0%"/><stop stop-color="#8A2F83" offset="10.58%"/><stop stop-color="#B4256C" offset="26.53%"/><stop stop-color="#D31C5D" offset="40.92%"/><stop stop-color="#E51E54" offset="53.09%"/><stop stop-color="#EC1E4F" offset="61.58%"/><stop stop-color="#F8E47F" offset="100%"/></linearGradient><linearGradient id="ap" x1="31.86%" x2="99.21%" y1="87.33%" y2="-50.69%"><stop stop-color="#6A3894" offset="0%"/><stop stop-color="#8A2F83" offset="10.58%"/><stop stop-color="#B4256C" offset="26.53%"/><stop stop-color="#D31C5D" offset="40.92%"/><stop stop-color="#E51E54" offset="53.09%"/><stop stop-color="#EC1E4F" offset="61.58%"/><stop stop-color="#F8E47F" offset="100%"/></linearGradient><linearGradient id="aq" x1="24.99%" x2="90.17%" y1="105.67%" y2="-33.2%"><stop stop-color="#6A3894" offset="0%"/><stop stop-color="#8A2F83" offset="10.58%"/><stop stop-color="#B4256C" offset="26.53%"/><stop stop-color="#D31C5D" offset="40.92%"/><stop stop-color="#E51E54" offset="53.09%"/><stop stop-color="#EC1E4F" offset="61.58%"/><stop stop-color="#F8E47F" offset="100%"/></linearGradient><linearGradient id="ar" x1="139.78%" x2="-149.96%" y1=".61%" y2="198.32%"><stop stop-color="#D4E5EE" offset="0%"/><stop stop-color="#CDDFE8" offset="7.22%"/><stop stop-color="#B4CBD7" offset="18.58%"/><stop stop-color="#90ABBB" offset="32.67%"/><stop stop-color="#5F8096" offset="48.78%"/><stop stop-color="#486D86" offset="55.37%"/><stop stop-color="#5D7E95" offset="59.41%"/><stop stop-color="#88A3B5" offset="68.5%"/><stop stop-color="#AAC1CE" offset="77.34%"/><stop stop-color="#C1D5E0" offset="85.72%"/><stop stop-color="#D0E1EA" offset="93.48%"/><stop stop-color="#D4E5EE" offset="100%"/></linearGradient><linearGradient id="as" x1="110.79%" x2="29.3%" y1="-267.69%" y2="157.98%"><stop stop-color="#D4E5EE" offset="0%"/><stop stop-color="#CDDFE8" offset="7.22%"/><stop stop-color="#B4CBD7" offset="18.58%"/><stop stop-color="#90ABBB" offset="32.67%"/><stop stop-color="#5F8096" offset="48.78%"/><stop stop-color="#486D86" offset="55.37%"/><stop stop-color="#5D7E95" offset="59.41%"/><stop stop-color="#88A3B5" offset="68.5%"/><stop stop-color="#AAC1CE" offset="77.34%"/><stop stop-color="#C1D5E0" offset="85.72%"/><stop stop-color="#D0E1EA" offset="93.48%"/><stop stop-color="#D4E5EE" offset="100%"/></linearGradient><linearGradient id="at" x1="103.52%" x2="-26.87%" y1="-125.98%" y2="304.09%"><stop stop-color="#D4E5EE" offset="0%"/><stop stop-color="#CDDFE8" offset="7.22%"/><stop stop-color="#B4CBD7" offset="18.58%"/><stop stop-color="#90ABBB" offset="32.67%"/><stop stop-color="#5F8096" offset="48.78%"/><stop stop-color="#486D86" offset="55.37%"/><stop stop-color="#5D7E95" offset="59.41%"/><stop stop-color="#88A3B5" offset="68.5%"/><stop stop-color="#AAC1CE" offset="77.34%"/><stop stop-color="#C1D5E0" offset="85.72%"/><stop stop-color="#D0E1EA" offset="93.48%"/><stop stop-color="#D4E5EE" offset="100%"/></linearGradient><linearGradient id="au" x1="154.58%" x2="-217.94%" y1="-23.7%" y2="218.84%"><stop stop-color="#D4E5EE" offset="0%"/><stop stop-color="#CDDFE8" offset="7.22%"/><stop stop-color="#B4CBD7" offset="18.58%"/><stop stop-color="#90ABBB" offset="32.67%"/><stop stop-color="#5F8096" offset="48.78%"/><stop stop-color="#486D86" offset="55.37%"/><stop stop-color="#5D7E95" offset="59.41%"/><stop stop-color="#88A3B5" offset="68.5%"/><stop stop-color="#AAC1CE" offset="77.34%"/><stop stop-color="#C1D5E0" offset="85.72%"/><stop stop-color="#D0E1EA" offset="93.48%"/><stop stop-color="#D4E5EE" offset="100%"/></linearGradient><linearGradient id="av" x1="99.21%" x2="-47.29%" y1="-20.86%" y2="216.17%"><stop stop-color="#D4E5EE" offset="0%"/><stop stop-color="#CDDFE8" offset="7.22%"/><stop stop-color="#B4CBD7" offset="18.58%"/><stop stop-color="#90ABBB" offset="32.67%"/><stop stop-color="#5F8096" offset="48.78%"/><stop stop-color="#486D86" offset="55.37%"/><stop stop-color="#5D7E95" offset="59.41%"/><stop stop-color="#88A3B5" offset="68.5%"/><stop stop-color="#AAC1CE" offset="77.34%"/><stop stop-color="#C1D5E0" offset="85.72%"/><stop stop-color="#D0E1EA" offset="93.48%"/><stop stop-color="#D4E5EE" offset="100%"/></linearGradient><linearGradient id="aw" x1="116.14%" x2="-120.92%" y1="-19.3%" y2="219.08%"><stop stop-color="#D4E5EE" offset="0%"/><stop stop-color="#CDDFE8" offset="7.22%"/><stop stop-color="#B4CBD7" offset="18.58%"/><stop stop-color="#90ABBB" offset="32.67%"/><stop stop-color="#5F8096" offset="48.78%"/><stop stop-color="#486D86" offset="55.37%"/><stop stop-color="#5D7E95" offset="59.41%"/><stop stop-color="#88A3B5" offset="68.5%"/><stop stop-color="#AAC1CE" offset="77.34%"/><stop stop-color="#C1D5E0" offset="85.72%"/><stop stop-color="#D0E1EA" offset="93.48%"/><stop stop-color="#D4E5EE" offset="100%"/></linearGradient><linearGradient id="ax" x1="107.11%" x2="17.81%" y1="-1209.89%" y2="686.31%"><stop stop-color="#D4E5EE" offset="0%"/><stop stop-color="#CDDFE8" offset="7.22%"/><stop stop-color="#B4CBD7" offset="18.58%"/><stop stop-color="#90ABBB" offset="32.67%"/><stop stop-color="#5F8096" offset="48.78%"/><stop stop-color="#486D86" offset="55.37%"/><stop stop-color="#5D7E95" offset="59.41%"/><stop stop-color="#88A3B5" offset="68.5%"/><stop stop-color="#AAC1CE" offset="77.34%"/><stop stop-color="#C1D5E0" offset="85.72%"/><stop stop-color="#D0E1EA" offset="93.48%"/><stop stop-color="#D4E5EE" offset="100%"/></linearGradient><linearGradient id="ay" x1="103.17%" x2="33.44%" y1="-263.87%" y2="149.16%"><stop stop-color="#D4E5EE" offset="0%"/><stop stop-color="#CDDFE8" offset="7.22%"/><stop stop-color="#B4CBD7" offset="18.58%"/><stop stop-color="#90ABBB" offset="32.67%"/><stop stop-color="#5F8096" offset="48.78%"/><stop stop-color="#486D86" offset="55.37%"/><stop stop-color="#5D7E95" offset="59.41%"/><stop stop-color="#88A3B5" offset="68.5%"/><stop stop-color="#AAC1CE" offset="77.34%"/><stop stop-color="#C1D5E0" offset="85.72%"/><stop stop-color="#D0E1EA" offset="93.48%"/><stop stop-color="#D4E5EE" offset="100%"/></linearGradient><linearGradient id="az" x1="120.65%" x2="27.52%" y1="-176.67%" y2="107.12%"><stop stop-color="#D4E5EE" offset="0%"/><stop stop-color="#CDDFE8" offset="7.22%"/><stop stop-color="#B4CBD7" offset="18.58%"/><stop stop-color="#90ABBB" offset="32.67%"/><stop stop-color="#5F8096" offset="48.78%"/><stop stop-color="#486D86" offset="55.37%"/><stop stop-color="#5D7E95" offset="59.41%"/><stop stop-color="#88A3B5" offset="68.5%"/><stop stop-color="#AAC1CE" offset="77.34%"/><stop stop-color="#C1D5E0" offset="85.72%"/><stop stop-color="#D0E1EA" offset="93.48%"/><stop stop-color="#D4E5EE" offset="100%"/></linearGradient><linearGradient id="aA" x1="164.29%" x2="3.32%" y1="-159.75%" y2="104.28%"><stop stop-color="#D4E5EE" offset="0%"/><stop stop-color="#CDDFE8" offset="7.22%"/><stop stop-color="#B4CBD7" offset="18.58%"/><stop stop-color="#90ABBB" offset="32.67%"/><stop stop-color="#5F8096" offset="48.78%"/><stop stop-color="#486D86" offset="55.37%"/><stop stop-color="#5D7E95" offset="59.41%"/><stop stop-color="#88A3B5" offset="68.5%"/><stop stop-color="#AAC1CE" offset="77.34%"/><stop stop-color="#C1D5E0" offset="85.72%"/><stop stop-color="#D0E1EA" offset="93.48%"/><stop stop-color="#D4E5EE" offset="100%"/></linearGradient></defs><path fill="#DCDDDE" d="M254.8 62.05l-.2-.1v-.6l-.3-.78-.6-.7-.8-.5-.1-.2-.6-.58-.9-.5-.8-.3h-.2l-.8-.7-1.1-.6-1.2-.58-1.28-.4h-.2l-1-1.1-1.2-.97-1.2-.6-1.2-.3h-.2l-1.1-.8-1.8-.68-.8-.1-1.1-.7-1.2-.48-1.1-.2-1.18-.1-1.2.1-.9.2-.5-.9-1.5-1-1.9-.4h-1.7l-2.1.4-.6.2-1.48-.6-1.7-.48-1.8-.2h-1.7l-1.8.2h-.2l-1.8-.7-1.9-.5-1.88-.3-1-.1-1.6-1.47-1.8-1.3-1.8-.88-1.6-.5-2-.1-.9.1-.8-.68-1.38-.6-1.7-.2-1 .2-1.4-.5-1.5-.4-1.4-.2h-.5l-2.1-.78-2.6-.7-2.38-.2h-.3l-2.2-1.28-2.5-.6h-1.7l-3.7-.88-2.38-.2h-.8l-1.2-1.2-1.7-.98-1.9-.5-1.9.2-1.2.3-1.6-.3-1.68-.1-2 .1h-.1v-.3l-3-.68-2.8-.4-2.6-.1-.9.1v-.1l-1.98-.3-2-.2h-.2l-2.2-.88-2.3-.6-2.1-.3h-1.5l-2.18-.78-1.8-.4-1.9-.1h-.3l-2.1-1.38-2-.8-1.5-.2-1.6-.78-2.38-.6-2.1.1-2.1-1-2.2-.48h-1.1l-2.2-1.2-2.18-.58-2.2-.1-.4.1-2.9-1.48-2.2-.8-2.3-.2h-.1l-1.2-.7-1.28-.58-1.4-.4-1.5-.1-1.2.1-1.4-.98-1.7-.7-1.9-.3-1.6.1-1.88.4-.2.1-1.9-.9-2-.48-1.9-.1-1.5-1-1.6-.6-1.7-.18-1.58.2-1.4.4-1.1-1.1-1.4-.9-1.7-.28-1.5.3-1.1.5-.7-.5-.7-.3-.8-.3-.6-.1-.9.1-.88.3-.9.6-.2.2-1.7-.4-1.7.1-1.5.48-1.2.9-1 1.18-.7 1.48-.5 1.6-.4 1.67-.2 1.68.1 7.52c-1-.4-2-.8-2.88-1.1l.1-1.08.2-1.2.1-1.27.1-1.3.1-1.17.1-1.2-.1-1.18-.1-1.2-.1-1.17-.2-1-.3-.98-.1-.4.1-.3.3-.98.4-1 .3-.98.5-1-1.7 1.6-.8.7-.3-.4-.7-.7-.8-.6.2 1.2.2 1.18.2.8-.5.68-.3.7-.1-.3-.2-.6-.2-.7-.2-.78v-.7l-.1-.78-.1-.7-.1-.8v-.78l.1-.7.1-.68.1-.7.2-.7.2-.58-.9 1.2-.7 1.27-.5 1.3-.3 1.27-.1 1.4v1.37l.2 1.4.3 1.38.3 1.1-.5-.3-.5-.7-.6-.8-.6-.78-.5-.9-.5-.98-.4-1.2-.3-1.37-.1-1.58-1.1.98-.6 1.1-.3 1.18v1.2l.2 1.17.5 1.3.6 1.27.6 1-1.1-.2-1.2-.1.8.5.8.5.8.48.7.5.7.5.6.58 1 1.1 1 .98.9 1 .8.9.7.78.4.5.4.5.2.3C27.96 19.9 15.38 14.37 0 7.05c3.1 5.04 14.48 10.3 19.17 13.85 5 2.68 11.88 5.55 17.87 7.82l-1.3.3-1.3.2-.5.1h-.3l-.9.1-.9.1h-.9l-.9.1h-1.78l-.9-.1-.9-.1-.9-.1-.9-.1-.9-.2-.9-.2 1 .7 1 .58 1 .4 1 .3.6.1-1.3.4-1.3.5-1.6.88-1.2.8-1 .78-.9 1-.8.98-.6 1.18-.4 1.4.4-.5.5-.5.5-.5.5-.5.6-.4.6-.38.6-.4.6-.4.7-.3.6-.3.7-.18.7-.3.7-.2.7-.2.6-.1.7-.1 1.2-.5 1.3-.68 1.3-.8 1.3-.78 1.2-.7.6-.2h.1l-.9.5-.9.6-1 .6-1 .68-.9.6-1 .6-.9.58-1 .6-1 .6-1 .58-1 .6-1 .6-1.2.78-1.1.6 1.1.1 1.1-.1 1-.2 1-.3 1-.4-.3.3-.7 1.1-.5 1.17-.2 1.28.2 1.28.5 1.3.8-1.5.8-1.18.8-1.1.8-.88.8-.7.9-.58.9-.6.9-.5.5-.3-.1.1-.3 1.3-.2 1.58.1 1.68.3 1.88.6 2.18.2-1.1.2-.98.3-1 .3-.98.3-1 .4-.88.4-1 .48-.98.5-.9.5-.88.5-1 .5-.88.6-.9.6-.98.6-.98.5-.8c.8.3 1.5.6 2.2.8l-1.3 2.17-1.2 2.38-1 2.86-.4 1.6-.1 1.48.1 1.48.3 1.3.7 1.37 1.1 1.2 1.6.88 1.6.5.4.9.9 1.18.9.8.8.6.9.48.88.3.8.1h1l.9 1.18 1.3 1 1.5.6 1.8.08 1.4-.4.2.3 1.3 1.2 1.3.88 1.28.6 1.8.3 1.1-.1 1.1.78 1.7.7 1.5.4 1.1.78 1.8.8 2.3.5 2.08.1.1.1 1.6 1.17 1.6.9 1.5.5 1.9.2 1.7-.3.7.4 1.3.58 1.38.3 1.3.1 1.2-.2.4.3 2.1.7 2.4.3 2.6-.1.5.3 2.08.68 2.1.3 2.8-.1 1.8.6 2.2.3 2.1-.1.7.4 2.08.78 2.4.3 2.4-.3v-.1l1.2.3h2l2.2-.5 1.28.5 1.7.4 1.7.2h2.1l.5.2 2 .58 2.1.4 2.3.1 2.28-.2v-.1l1.2.3 1.9.3 1.9.1.1-.2 1.3.4 2.5.38 2.68.1 2.9-.1.4.1 1.8.4 1.7.2 1.7.1.1.1 1.6.8 1.88.48h1.7l1.8-.4 1.5-.9 1.7.5 2.3.2h2.4l.5.2 2.38.4 2.3-.2 2.4-.8 2 .2 2.5-.1 1.88-.3 1.1.2 1.4.1 3.1-.3 1 .4 1.5.2 1.3-.3 1-.48h.1l1.6.5 1.68.3h1.7l1.8-.4 1.9-.9 1.8-1.1 1.4.1 1.9-.1 1.58-.18.9.3 1.6.3 1.6.2 1.7-.1 1.6-.3.3.1 2 .68 1.8.4h1.58l1.6-.5.8-.8.4.1 1.1.3 1.1.2 1.2-.1 1.1-.2.8-.3 1.4.1 1.5-.2 1.38-.58h.2l1.4-.1 1.2-.2 1.4-.6 1-.68h1.3l1.2-.2 1.1-.3 1.2-.5h.5l.7-.1.7-.3.2-.2.78-.08.9-.4.4-.7.1-.5h.3l.9-.88.1-.4.2.1.1-2.47-1.2-1.38zM41.24 25.25l-1.5-.6-.1-.18v-.2l.1.2-.1-.3v-.4l.1-1.18.1-1.2.1-1.2.1-1.07.1-.8.1.9.1.98.2 1 .2 1 .2.98.2 1 .1 1.08zm-4.2 3.57h.1l-.5.3H36.04l.3-.2.7-.1zm-2.6 2.77l.9-.9.9-1 .4-.4.6-.28-.4.1.2-.2c.5.2 1.1.4 1.6.6l-.6.4-1 .48-1.2.6-1.2.6-.7.28.5-.3zm5.2-1.4l-.5.5-.7.4-.6.4.2-.4.8-1.6c.4.2.8.3 1.2.4l-.4.3z"/><g stroke="#231F20"><path fill="#231F20" stroke-width=".6" d="M255.8 61.8C235.2 59 159 55.1 125.1 49.6c-27.3-4.5-54-12.6-79.5-21.1-6.6-2.2-18.2-6.7-25.7-10.8-4.7-3.6-16.1-9-19.2-14C50.1 27.1 70 33.5 127.9 45.3c23.5 4.8 108.9 11.7 127.9 16.5z"/><path fill="url(#a)" stroke-width=".25" d="M182.8 70.9l-2.2.8-2.2.1-2.1-.3-2.2-.9-2.1-1.1-2.1-1.6-2-1.7-1.9-1.9-1.9-1.9-1.8-1.9-1.7-1.9-1.5-1.7-1.5-1.5-1.3-1.1-1.2-.8-1-.3h.8l1 .1 1 .1 1.1.1 1 .1 1.1.1 1 .1.9.1 1.5 1.4 1.4 1.2 1.2 1.3 1.1 1.3 1.1 1.2 1.1 1.2 1 1.2 1 1.1 1.1 1.1 1.1 1 1.2 1 1.3.9 1.4.9 1.6.8 1.7.8 2 .6z"/><path fill="url(#b)" stroke-width=".25" d="M190 70.6l-2.5.4-2.4.1-2.2-.2-2.1-.6-2-.8-1.7-1-1.8-1.1-1.5-1.4-1.6-1.4-1.5-1.5-1.4-1.6-1.4-1.6-1.5-1.6-1.4-1.5-1.5-1.5L162 54h1.2l.6.1h.6l.7.1.6.1.7.1h.6l.6.1.7.1.7.1h.7l.7.1h1.4l.7.1.5.8.6 1 .9 1.2.8 1.2 1.1 1.3 1.1 1.4 1.2 1.4 1.2 1.3 1.3 1.3 1.2 1.2 1.4 1.1 1.3.9 1.2.8 1.3.5 1.3.3h1.1z"/><path fill="url(#c)" stroke-width=".25" d="M194.8 70.7l-1.5.1-1.4.2-1.3-.1-1.3-.2-1.4-.3-1.3-.5-1.2-.7-1.4-.9-1.3-.9-1.4-1.2-1.3-1.4-1.4-1.5-1.5-1.8-1.5-2-1.6-2.2-1.6-2.4h1l.9.1 1 .1.9.1.9.1 1 .1h2.1l1 .9.8 1 .9 1 .9 1 .8 1 .9 1.1.8.9.9 1.1.8 1 .9 1 .9 1 .9.9 1 .9 1 .8 1 .9 1.1.8z"/><path fill="url(#d)" stroke-width=".25" d="M199.9 70.4l-1.1.6-1.3.2-1.2-.1-1.3-.5-1.3-.8-1.3-1.1-1.3-1.1-1.4-1.4-1.3-1.5-1.3-1.5-1.2-1.5-1.3-1.5-1.1-1.4-1.1-1.3-1.1-1.1-.9-.9 6.2.6.7.9.8.9.7 1 .7.9.7.9.7.9.7 1 .8.9.8.9.8.9.8.9 1 .9.9.8 1 .9 1.1.8 1.1.8z"/><path fill="url(#e)" stroke-width=".25" d="M210.2 69.1l-1.8 1.1-1.7.8-1.7.4h-1.6l-1.6-.3-1.5-.6-1.5-.8-1.4-1-1.4-1.3-1.4-1.3-1.3-1.6-1.4-1.6-1.3-1.7-1.2-1.7-1.3-1.8-1.2-1.6 1.1.1.8.1h.6l.5.1.5.1h1.3l1 .1 1.1 1.5 1.1 1.5L196 61l1.2 1.2 1.2 1.1 1.2 1.1 1.2.9 1.2.8 1.1.7 1.2.7 1.1.4 1 .4 1.1.4.9.2 1 .1.8.1z"/><path fill="url(#f)" stroke-width=".25" d="M215.6 68.7l-1.9.3-1.8.1-1.7-.1-1.7-.3-1.6-.3-1.6-.5-1.4-.7-1.4-.8-1.4-.9-1.3-1-1.3-1.1-1.2-1.2-1.2-1.3-1.1-1.4-1.1-1.4-1-1.5h1.1l1.3.1 1.2.2h1.3l1 .1.9.1h.6l.3.1.1.1.3.3.5.5.6.6.6.7.8.8.9.8 1 1 1.1.9 1.2 1 1.1.9 1.3 1 1.3.8 1.4.8 1.4.7 1.4.6z"/><path fill="url(#g)" stroke-width=".25" d="M222.7 69.1l-1.5.3-1.5.1-1.6-.1-1.6-.3-1.6-.5-1.5-.7-1.5-.7-1.5-1-1.4-1-1.4-1-1.3-1.1-1.3-1.2-1.2-1.2-1.2-1.2-1.1-1.1-1-1.2h.7l.9.1h1.9l1 .1.9.1.8.1.6.1v.1l.2.3.6.5.8.6 1 .9 1.2.9 1.3 1 1.3 1 1.4 1 1.4 1.1 1.4.9 1.2.9 1.2.8 1.1.7.8.4.5.3z"/><path fill="url(#h)" stroke-width=".25" d="M230.7 69.1l-1 .9-1.2.4H227l-1.7-.4-1.9-.7-1.9-1-2-1.1-2-1.3-2-1.4-1.8-1.4-1.8-1.4-1.5-1.2-1.3-1.1-1-.9-.7-.5-.3-.3.8.1h.8l.9.1.8.1 1 .1h.9l.9.1h1l1.1.7 1 .6 1.1.7 1 .7 1 .7 1 .7 1.1.7 1 .7 1 .8 1 .7 1 .7 1 .7 1.1.6 1 .6 1 .7 1.1.6z"/><path fill="url(#i)" stroke-width=".25" d="M236.5 69.2l-1 .3-1 .2-1 .1-1-.2-1-.3-1-.4-1.1-.6-1.2-.7-1.3-.8-1.3-.9-1.5-1.1-1.6-1.1-1.8-1.2-1.9-1.3-2.1-1.4-2.3-1.5.9.1h2.1l1 .1h.9l.7.1.5.1h.1l.2.2.3.3.5.5.7.6.9.8 1 .9 1 .8 1.3 1 1.2.9 1.3.9 1.3.8 1.3.9 1.3.7 1.3.5 1.2.4 1.1.3z"/><path fill="url(#j)" stroke-width=".25" d="M240.7 68.5l-1.3.6-1.4.2-1.6-.1-1.5-.4-1.7-.6-1.5-.8-1.7-.9-1.5-1-1.4-1.1-1.4-1.1-1.3-1-1.1-1.1-1-.9-.8-.7-.6-.5-.3-.4.9.1h.9l.9.1.8.1.9.1h.8l1 .1.9.1.7.6.8.7.6.6.8.7.8.8.7.7.8.7.9.7.8.6.8.6.9.6.8.5.9.5.9.4.9.3.9.2z"/><path fill="url(#k)" stroke-width=".25" d="M245.9 66.9l-1.2.8-1.2.5-1.1.3h-1.2l-1.2-.2-1.1-.4-1.2-.5-1.1-.7-1.2-.7-1.1-1-1.1-.9-1.1-1-1.1-1-1.1-1-1-1-1.1-.9h.7l.6.1.8.1.8.1.9.1h.9l1 .1 1 .1.2.7.4.7.5.6.5.7.6.6.6.5.6.6.8.5.8.5.8.4.9.4.8.3 1 .2.9.2 1 .1 1 .1z"/><path fill="url(#l)" stroke-width=".25" d="M250.5 66l-1 .4-1.1.3-1.1.2h-1.2l-1.2-.1-1.2-.1-1.3-.4-1.2-.3-1.2-.6-1.1-.5-1-.7-.9-.7-.8-.8-.7-.9-.5-1-.4-1 .7.1h.7l.8.1.7.1h.8l.8.1.9.1h1l.4.6.5.6.4.5.5.5.4.4.6.4.5.4.5.3.6.3.6.3.7.3.7.3.7.2.7.2.9.2.8.2z"/><path fill="url(#m)" stroke-width=".25" d="M252.9 65.2l-.4.4-.5.2-.7.1h-.7l-.8-.1-.8-.1-1-.3-.9-.3-.9-.4-1-.5-.9-.5-.8-.6-.8-.6-.7-.7-.6-.7-.4-.8.5.1h.5l.5.1.6.1h.5l.5.1h.8v.2l.5.5.9.6 1.1.8 1.4.7 1.4.8 1.4.6 1.3.3z"/><path fill="url(#n)" stroke-width=".25" d="M254.5 63.6l-.1.8-.3.5-.4.2-.7.2-.7-.2-.9-.2-.9-.4-.9-.5-.9-.5-.9-.6-.9-.5-.7-.6-.6-.4-.5-.4-.3-.2v-.1l4.5.5.4.2.5.3.7.4.8.3.8.4.8.3.7.3.5.2z"/><path fill="url(#o)" stroke-width=".25" d="M249.3 61.2h1l.9.1.8.1h.7l.7.1h.8l.8.2.8.1-.1 1.1-.6.6h-.8l-1-.3-1.1-.6-1.1-.5-1-.6-.8-.3z"/><path fill="url(#p)" stroke-width=".25" d="M249.5 60.6l1 .2.8.1.8.2.8.1.7.2.7.1.8.2.8.2.1-1.2-.5-.9-.8-.2-1.1-.1-1.2.2-1.2.3-1 .4-.7.2z"/><path fill="url(#q)" stroke-width=".25" d="M188.9 36.9l-2.6-.9-2.4-.7-2.3-.2-2.2.2-2.1.4-1.9.7-1.8 1-1.8 1.1-1.8 1.3-1.7 1.4-1.7 1.5-1.6 1.5-1.6 1.4-1.7 1.4-1.6 1.4-1.7 1.2.6.1.7.1h.6l.6.2h.6l.7.1h.7l.6.1h.6l.7.1.7.1.7.1h.7l.7.1.7.1.7.1.6-.8.8-1 .8-1.1 1.1-1.2 1.1-1.3 1.2-1.3 1.4-1.3 1.3-1.2 1.5-1.2 1.4-1 1.5-.9 1.5-.8 1.4-.6 1.5-.3 1.4-.1 1.4.2z"/><path fill="url(#r)" stroke-width=".25" d="M193.3 37.9l-1.5-.5-1.4-.3-1.3-.3-1.4-.1-1.4.1-1.4.3-1.3.4-1.4.7-1.5.8-1.4 1-1.5 1.3-1.6 1.4-1.7 1.7-1.7 1.9-1.8 2.2-1.9 2.4h1l1 .2h.8l.9.1.8.1.8.2 1 .1 1.2.2 1.1-.9.9-.9 1.1-1 .9-1 1-1 1-1 .9-1 1-.9 1-1 1.1-.8.9-.9 1.1-.9 1.1-.8 1.2-.6 1.1-.6 1.3-.6z"/><path fill="url(#s)" stroke-width=".25" d="M198.1 39.2l-1.1-.9-1.2-.5-1.3-.1-1.4.3-1.4.6-1.5.8-1.5 1-1.5 1.3-1.5 1.3-1.5 1.4-1.5 1.4-1.4 1.5-1.3 1.3-1.2 1.2-1.1 1.1-1.1.9 6.4.7.8-.9.8-1 .7-.9.9-.9.8-1 .8-.9.9-1 .8-.9.9-.8.9-.9 1-.8 1.1-.8 1.1-.7 1.1-.7 1.3-.6 1.2-.5z"/><path fill="url(#t)" stroke-width=".25" d="M207.7 43.3l-1.7-1.7-1.7-1.2-1.7-.8-1.6-.5-1.6-.1-1.6.3-1.6.6-1.5.7-1.5 1.1-1.5 1.2-1.5 1.4-1.4 1.5-1.4 1.6-1.4 1.7-1.4 1.7-1.4 1.6 1.1.1.9.1h.8l.7.1.7.2.7.1.9.1 1.1.2 1.2-1.6 1.1-1.4 1.3-1.3 1.1-1.1 1.3-.9 1.1-.9 1.1-.7 1.2-.5 1.1-.5 1-.4 1.2-.2 1-.3 1-.1 1-.1h1.9z"/><path fill="url(#u)" stroke-width=".25" d="M214.5 44.8l-1.9-.7-1.8-.5-1.8-.3-1.7-.1h-1.7l-1.6.3-1.6.3-1.5.5-1.5.7-1.4.8-1.5.9-1.3 1.1-1.4 1.1-1.2 1.3-1.3 1.4-1.2 1.5 1.2.2 1.4.2 1.4.2 1.4.1 1.3.2 1 .1.8.1h.3l.1-.1.3-.3.4-.4.5-.5.6-.6.8-.7.9-.7 1-.9 1.1-.7 1.1-.8 1.3-.8 1.4-.7 1.4-.7 1.5-.6 1.6-.5 1.6-.4z"/><path fill="url(#v)" stroke-width=".25" d="M223.1 45.9l-1.5-.6-1.6-.5-1.7-.2h-1.6l-1.7.2-1.7.3-1.6.6-1.7.6-1.6.8-1.6.8-1.5 1-1.5 1-1.3 1-1.4 1.1-1.2 1.1-1.1 1.1.8.1.9.1 1 .1 1.1.1 1.2.2.9.1h1.6v-.1l.2-.3.6-.4.9-.6 1-.6 1.3-.8 1.4-.8 1.4-.8 1.5-.8 1.5-.8 1.5-.8 1.4-.7 1.3-.6 1.1-.4 1-.3.7-.2z"/><path fill="url(#w)" stroke-width=".25" d="M231.3 47.6l-.8-1.3-1.2-.8-1.6-.2H226l-1.9.4-2.1.6-2.2.9-2.2 1-2.2 1.1-2 1.1-2 1.2-1.7 1.1-1.5.9-1.1.7-.7.5-.4.2.8.2 1 .1 1 .1 1 .1 1.1.1 1.1.1 1.1.2 1 .1 1.1-.5 1.1-.5 1.1-.6 1-.6 1.1-.5 1-.6 1.1-.6 1.1-.6 1-.5 1.1-.6 1.1-.5 1-.5 1.1-.5 1.1-.4 1.1-.5 1.1-.4z"/><path fill="url(#x)" stroke-width=".25" d="M241.7 50.4l-1.3-1-1.4-.5-1.5-.2h-1.7l-1.7.3-1.7.5-1.7.6-1.7.8-1.5.9-1.6.8-1.4 1-1.2.8-1.1.8-.9.7-.7.4-.3.3.9.1.9.1.8.2h.7l.8.1.8.1.9.1.9.1.8-.5.8-.5.9-.7.9-.6.9-.6.9-.6 1-.7.9-.6.9-.5 1-.5 1-.5.9-.3 1-.3 1-.2h.9l.9.1z"/><path fill="url(#y)" stroke-width=".25" d="M237.9 48.7l-1-.7-1.1-.4-1-.3-1-.1-1 .1-1.2.2-1.2.4-1.3.5-1.4.6-1.4.7-1.6.9-1.8.9-1.9 1-2.1 1.1-2.3 1.1-2.5 1.2 1 .1 1 .1 1 .1 1.1.2.9.1.7.1.6.1.2-.1.1-.1.4-.3.5-.5.7-.5.9-.6 1.1-.7 1.1-.8 1.2-.7 1.3-.8 1.4-.8 1.4-.6 1.5-.6 1.4-.5 1.5-.3 1.4-.1h1.4z"/><path fill="url(#z)" stroke-width=".25" d="M246.4 53.3l-1.1-1.1-1.1-.9-1.1-.6-1.1-.3-1.2-.1-1.2.1-1.3.3-1.2.4-1.3.7-1.2.6-1.3.8-1.3.8-1.3.9-1.2.8-1.2.9-1.2.8.6.1h.8l.9.2.9.1 1 .1 1.1.2.9.1 1 .1.4-.8.4-.6.5-.7.5-.5.6-.6.7-.4.7-.4.8-.3.8-.3.9-.3.8-.1 1-.1 1-.1h.9l1 .1 1.1.1z"/><path fill="url(#A)" stroke-width=".25" d="M253.6 57.2l-.3-.5-.5-.4-.6-.4-.7-.2-.9-.2H247.7l-1 .2-1 .3-1 .3-.9.4-.9.5-.8.6-.7.6-.5.7.5.1.6.1.7.1.6.2h.6l.5.1h.4l.3-.1.5-.4 1-.5 1.2-.5 1.3-.4 1.5-.5 1.5-.2 1.5.1z"/><path fill="url(#B)" stroke-width=".25" d="M255 59.6v-1l-.2-.7-.4-.4-.7-.3-.7-.2-.9.1-.9.1-1.1.3-1 .3-1 .4-.9.3-.8.4-.7.3-.6.2-.3.3h-.1l4.7.8.4-.1.6-.2.7-.2.8-.3.8-.1.9-.2h.7l.7.2z"/><path fill="url(#C)" stroke-width=".25" d="M251.1 55.7l-.9-.8-1-.6-1.1-.5-1.2-.4-1.3-.2-1.2-.2h-1.3l-1.3.2-1.2.2-1.2.4-1.1.5-1.1.5-.9.8-.9.8-.6.9-.5 1 .7.1.7.1.8.1.8.1.8.1.9.1.9.1 1 .2.4-.6.4-.4.4-.4.6-.4.5-.4.7-.3.6-.3.7-.3.7-.2.8-.2.7-.1.7-.1h2.3l.7.2z"/><path fill="url(#D)" stroke-width=".25" d="M43.7 27.8l-.1.2-.3.4-.4.8-.5.9-.6 1.1-.6 1.3-.5 1.4-.5 1.4-.3 1.4-.1 1.4v1.4l.3 1.3.7 1.2 1 1 1.4.8 1.8.6-.3-.9-.2-.9-.2-.9-.1-1.1-.1-1v-1.1l.1-1.1.1-1.1.1-1.1.1-1.1.2-1.1.2-1 .2-.9.2-.9.3-.9.2-.7-.3-.2h-.2l-.3-.1-.2-.1-.3-.1-.2-.1-.3-.1-.3-.1z"/><path fill="url(#E)" stroke-width=".25" d="M45.7 28.6l-.8 3.2-.6 2.9-.3 2.5v2.2l.1 2 .3 1.6.5 1.4.5 1.2.7.9.8.7.7.6.8.4.8.3.7.1h1.2l-.3-.9-.4-.9-.3-1.1-.2-1-.2-1.2-.2-1.1-.2-1.2-.1-1.2-.1-1.3v-1.2l.1-1.3.1-1.2.2-1.3.2-1.2.3-1.2.4-1.2-.7-.3-.7-.2-.7-.2-.6-.2-.5-.2-.6-.2-.5-.1-.4-.1z"/><path fill="url(#F)" stroke-width=".25" d="M50.4 30.1l-.3 1.1-.4 1.5-.2 1.6-.1 1.8-.1 2v2l.2 2 .3 1.9.4 1.8.5 1.7.8 1.4.9 1.2 1.1.9 1.3.4 1.4.1 1.7-.5-.6-1-.7-1.1-.5-1.2-.5-1.1-.3-1.2-.4-1.2-.2-1.2-.2-1.2-.2-1.3V38l.1-1.2.1-1.3.2-1.2.3-1.3.3-1.3-.6-.2-.7-.2-.7-.2-.7-.3-.7-.2-.5-.2-.6-.2-.4-.1z"/><path fill="url(#G)" stroke-width=".25" d="M65.2 54.2l-1.5.1-1.6-.2-1.3-.6-1.2-.8-1.2-1.1-1-1.3-.8-1.5-.7-1.7-.6-1.8-.5-2-.3-1.9-.1-2v-2l.2-2 .3-1.9.5-1.8.7.2.6.3.7.1.7.3.7.2.8.2.7.3.7.2V36.1l.1 1.5v1.5l.1 1.6.1 1.6.1 1.7.2 1.6.3 1.6.2 1.4.3 1.4.4 1.3.5 1 .6.9.6.6.7.4z"/><path fill="url(#H)" stroke-width=".25" d="M61.1 33.5l.6.3.6.2.5.1.6.1.5.2.6.2.6.2.5.2.1 1.2.1 1.2.1 1.4v4.5l.1 1.6v1.5l.2 1.5.1 1.5.3 1.4.3 1.3.5 1.2.5 1.2.7.9.8.7-1.7-.4-1.4-.5-1.2-.9-1-.9-.8-1.1-.6-1.3-.5-1.4-.3-1.4-.3-1.7-.2-1.7v-1.7l-.1-1.9v-1.8l-.1-1.9v-2l-.1-2z"/><path fill="url(#I)" stroke-width=".25" d="M76.5 58.4l-2.3-.1-2-.5-1.6-.7-1.3-1-1.1-1.3-.8-1.5-.6-1.6-.4-1.8-.2-1.9-.2-1.9-.1-2v-5.7l-.1-1.8-.1-1.6.6.2.6.1.5.2.6.2.6.2.5.1.6.2.7.1-.1.2-.1.4-.1.7-.2.8-.1 1-.1 1.2-.1 1.3.1 1.5.1 1.6.3 1.8.6 1.8.6 1.8.9 2 1.2 2 1.4 2 1.7 2z"/><path fill="url(#J)" stroke-width=".25" d="M84.5 60.9l-1.6.3-1.6-.1-1.5-.5-1.5-.9-1.5-1.1-1.4-1.3-1.2-1.6-1.2-1.8-1-2-.9-2.1-.7-2.2-.5-2.2-.2-2.3-.1-2.3.2-2.2.5-2.3 5.5 1.8v.9l-.1 1.1.1 1.2.1 1.4.2 1.5.3 1.6.2 1.6.5 1.7.5 1.7.7 1.6.7 1.6.9 1.6.9 1.5 1.1 1.4 1.2 1.3 1.4 1.1z"/><path fill="url(#K)" stroke-width=".25" d="M75.7 38l.9.3 1.1.2 1.2.5 1.3.3 1.2.4 1.2.4 1.1.2.8.2.1 1.4.1 1.4.1 1.5.1 1.5.1 1.5.2 1.6.1 1.5.3 1.5.3 1.5.3 1.4.5 1.4.5 1.2.6 1.3.8 1 .8 1 1 .9-1.2.1H88l-1.2-.3-1.2-.5-1.3-.8-1.2-.9-1.1-1.2-1.2-1.4-1.1-1.6-.9-1.9-.9-2-.7-2.3-.6-2.5-.5-2.7-.3-3-.1-3.1z"/><path fill="url(#L)" stroke-width=".25" d="M98 63.2l-2.6.1-2.2-.2-1.9-.6-1.5-1-1.3-1.2-1.1-1.5-.7-1.6-.6-1.9-.5-1.8-.3-2.1-.1-2-.2-1.9-.1-2-.1-1.8-.1-1.7-.2-1.5.8.1.7.2.7.2.6.2.7.2.6.2.8.2.9.2.2 1.6.1 1.5.2 1.5.2 1.5.2 1.4.2 1.4.3 1.4.3 1.3.4 1.3.5 1.3.6 1.2.6 1.2.8 1.2.9 1.2 1.1 1.1 1.1 1.1z"/><path fill="url(#M)" stroke-width=".25" d="M105.1 64.5l-2.3.1-2.1-.3-1.8-.6-1.6-1-1.3-1.2-1.2-1.5-.9-1.7-.8-1.8-.7-1.8-.5-2-.5-1.9-.2-2-.3-1.9-.2-1.7-.2-1.7-.1-1.4.8.2.7.2.6.2.7.1.6.2.6.1.8.2.8.2.3 2.3.4 2.1.4 2 .4 1.9.5 1.6.5 1.7.6 1.4.6 1.3.5 1.2.7 1.1.7 1 .6.8.7.9.7.6.8.6.7.5z"/><path fill="url(#N)" stroke-width=".25" d="M111.7 65.4l-2.2.1-2-.3-1.7-.6-1.6-1-1.4-1.2-1.2-1.4-1.1-1.6-.9-1.8-.8-1.8-.7-1.9-.5-1.9-.4-1.9-.5-1.8-.2-1.8-.3-1.6-.2-1.4.7.2.7.1.7.2.7.2.7.2.7.1.7.2.7.2.1 1.1.2 1.2.2 1.3.4 1.4.4 1.5.6 1.5.6 1.5.6 1.5.8 1.6.8 1.4.8 1.4.9 1.2.9 1.3.9 1 1 .9.9.7z"/><path fill="url(#O)" stroke-width=".25" d="M119 66.7l-2.3.3-2.1-.3-1.9-.7-1.7-1.2-1.7-1.5-1.4-1.7-1.2-2-1.2-2-.9-2.2-.9-2.1-.7-2-.5-1.9-.4-1.6-.3-1.4-.2-.9v-.6l.9.1.8.2.8.3.9.1.8.3.7.1.8.2.7.1.3 1 .3 1.2.4 1.3.4 1.5.5 1.6.5 1.6.6 1.7.6 1.7.7 1.6.8 1.5.8 1.5.9 1.2.9 1.1 1 .9 1.1.7 1.2.3z"/><path fill="url(#P)" stroke-width=".25" d="M124.3 66.4l-2.1.5h-1.8l-1.7-.4-1.6-.8-1.4-1.1-1.2-1.4-1.1-1.6-1-1.8-.8-1.8-.8-1.9-.5-2-.6-1.8-.5-1.8-.3-1.6-.4-1.4-.3-1.1.7.2h.6l.6.1.5.1.6.2.5.1.5.1.5.1.2 1.3.3 1.4.3 1.4.4 1.3.4 1.4.6 1.4.5 1.3.7 1.2.7 1.3.9 1.2.9 1.2.9 1 1.1 1.1 1.1.9 1.3.9 1.3.8z"/><path fill="url(#Q)" stroke-width=".25" d="M131 67.5h-1.8l-1.7-.2-1.6-.4-1.6-.6-1.4-.8-1.5-1-1.3-1.2-1.3-1.3-1.1-1.4-1-1.6-1-1.7-.8-1.8-.7-2-.6-2-.5-2.1-.4-2.1.8.1.7.1.8.2.8.1.7.2.7.1.8.1.7.2.4 1.2.2 1.3.4 1.2.3 1.3.3 1.2.4 1.2.5 1.2.5 1.2.6 1.2.7 1.2.9 1.2 1 1.1 1.2 1.1 1.4 1.2 1.6 1.2 1.9 1.1z"/><path fill="url(#R)" stroke-width=".25" d="M140.4 68.6l-2.3.1-2.2-.1-2-.3-2-.6-1.8-.8-1.7-1-1.5-1.1-1.4-1.4-1.3-1.5-1.2-1.6-1-1.8-.9-1.8-.8-2-.6-2-.5-2.1-.3-2.1.6.1.7.2.7.1.7.1.7.1.8.2.7.1.8.2.2 1.4.4 1.5.4 1.4.6 1.4.7 1.4.8 1.4.9 1.4.9 1.3 1.1 1.2 1.2 1.2 1.2 1.1 1.3 1.1 1.4.9 1.5.9 1.6.7 1.6.7z"/><path fill="url(#S)" stroke-width=".25" d="M145.6 69.1l-2-.1-1.8-.3-1.9-.4-1.8-.7-1.7-.9-1.7-.9-1.5-1.1-1.5-1.3-1.3-1.4-1.3-1.5-1.1-1.7-1-1.7-.8-1.8-.7-1.8-.6-1.9-.3-2 .6.1h.6l.5.1.6.1h.5l.6.1.7.2.8.1.8 1.7.7 1.5.7 1.5.6 1.4.7 1.4.7 1.2.7 1.2.7 1.1.9 1.1.9 1 1 1 1.2 1 1.3.9 1.6 1 1.6.9 2 .9z"/><path fill="url(#T)" stroke-width=".25" d="M154.9 69.7l-2.9.1-2.6-.1-2.4-.4-2.2-.6-2.1-.9-1.8-1.1-1.7-1.2-1.5-1.4-1.4-1.5L135 61l-1.1-1.7-1-1.8-1-1.8-.9-1.8-.8-1.9-.8-1.8.5.1.7.1.9.1.9.1.9.2.8.1.7.1.6.1.7 1.6.7 1.6.9 1.6.9 1.4 1 1.4 1 1.3 1.1 1.2 1.2 1.2 1.3 1.1 1.3 1.1 1.4 1 1.5 1 1.5.8 1.6.9 1.6.7 1.8.7z"/><path fill="url(#U)" stroke-width=".25" d="M160.4 70.5h-1.5l-1.7-.3-1.7-.4-1.8-.6-1.8-.8-1.8-.9-1.9-1.1-1.8-1.2-1.7-1.4-1.7-1.5-1.6-1.6-1.5-1.8-1.3-1.8-1.2-1.9-1.1-2-.9-2.1.9.1.9.1.9.1.9.1h.8l.7.2.6.1.3.2 1.1.8 1 .8 1.1 1.1 1.1 1 1.1 1.2 1.2 1.2 1.2 1.3 1.1 1.3 1.2 1.3 1.2 1.3 1.3 1.3 1.2 1.3 1.3 1.2 1.3 1.2 1.3 1.2 1.3 1z"/><path fill="url(#V)" stroke-width=".25" d="M168.9 70.5l-1.5 1-1.6.4h-1.5l-1.7-.4-1.6-.8-1.6-1.1-1.7-1.4-1.7-1.6-1.7-1.8-1.7-1.8-1.9-2-1.8-2-1.8-1.9-1.8-1.9-1.9-1.8-1.9-1.6h.7l.7.2h.9l.9.2.9.1 1 .2.8.1.8.2 1.4 1.3 1.5 1.3 1.4 1.4 1.4 1.4 1.3 1.4 1.4 1.4 1.3 1.4 1.3 1.3 1.3 1.3 1.3 1.2 1.2 1 1.2.9 1.2.8 1.2.7 1.2.6 1.1.3z"/><path fill="url(#W)" stroke-width=".25" d="M175.5 71.3h-2.4l-2.2-.3-2.1-.5-2-.8-1.8-.9-1.7-1.2-1.6-1.3-1.5-1.4-1.5-1.5-1.5-1.6-1.4-1.5-1.4-1.7-1.5-1.6-1.5-1.6-1.6-1.4-1.6-1.4h.6l.7.1.8.1.9.1.9.1h.7l.6.1h.3l1 .2 1 .5 1 .6 1 .9 1.1 1.1 1.1 1.2 1.2 1.3 1.1 1.4 1.4 1.4 1.3 1.5 1.5 1.5 1.6 1.4 1.7 1.5 1.8 1.3 1.9 1.3 2.1 1.1z"/><path fill="url(#X)" stroke-width=".25" d="M45.9 23.3v-.2l-.1-.7v-1l-.1-1.2-.1-1.4.1-1.6.1-1.6.1-1.7.4-1.6.4-1.5.6-1.4.9-1.1 1-.8 1.3-.4L52 7l1.8.5-.5.5-.6.7-.5.9-.5.9-.4 1.1-.4 1-.4 1.2-.4 1.2-.4 1.2-.3 1.2-.3 1.2-.3 1.2-.2 1.2-.2 1.1-.2 1-.2.9h-.3l-.2-.1-.3-.1-.2-.1-.2-.1-.3-.1-.3-.1-.3-.1z"/><path fill="url(#Y)" stroke-width=".25" d="M48 24.2l.8-3.8.8-3.2.8-2.7.8-2.3.8-1.8.9-1.5.8-1 .7-.8.8-.5.7-.2.8-.1.6.1.7.2.6.3.5.4.5.3-.9.8-.8.9-.7.8-.7.9-.7.9-.6 1-.6 1-.5 1.1-.5 1.1-.5 1.1-.5 1.2-.4 1.2-.3 1.3-.4 1.3-.3 1.3-.3 1.4-.7-.1h-.5l-.4-.2-.2-.1h-.3l-.2-.1-.2-.1-.4-.1z"/><path fill="url(#Z)" stroke-width=".25" d="M50.9 25.3l.2-1.4.3-1.6.5-1.7.6-1.9.7-1.9.9-1.9.9-1.8 1.1-1.7 1.1-1.5 1.1-1.3 1.3-1 1.2-.6 1.4-.2 1.3.2 1.3.7 1.3 1.4-1 .7-1 .9-.9.9-.9.9-.9.9-.7 1-.7 1.1-.7 1-.6 1.2-.5 1.2-.6 1.2-.4 1.3-.4 1.3-.3 1.4-.3 1.5-.2 1.5-.6-.2-.7-.2-.8-.3-.7-.2-.7-.3-.7-.3-.5-.2-.4-.1z"/><path fill="url(#aa)" stroke-width=".25" d="M73.7 10l-1.4-.9-1.4-.5-1.5-.2-1.4.2-1.5.4-1.4.8-1.3 1-1.3 1.3-1.1 1.4-1.2 1.6-1 1.8-.9 1.9-.7 1.9-.6 2.1-.5 2.1-.2 2.2.7.2.7.1.7.3.7.2.8.3.7.2.7.2.8.1.5-1.3.5-1.5.5-1.4.6-1.5.5-1.5.7-1.5.6-1.5.7-1.4.7-1.3.7-1.2.8-1.2.9-1 .9-.9.9-.7 1-.5 1.1-.3z"/><path fill="url(#ab)" stroke-width=".25" d="M80.1 11.7l-2.3-.9-1.9-.6h-1.8l-1.6.3-1.4.6-1.2 1-1.1 1.2-1 1.5-.8 1.6-.8 1.8-.8 1.9-.7 1.9-.6 1.9-.7 1.9-.7 1.8-.7 1.7.6.1.6.1.6.2.5.2.6.2.6.2.7.2.6.1.1-.2v-.6l.2-.7.2-1.1.2-1.2.5-1.4.4-1.5.7-1.6.7-1.6.9-1.5 1.1-1.6 1.2-1.5 1.5-1.4 1.6-1.1 1.9-1.1 2.1-.8z"/><path fill="url(#ac)" stroke-width=".25" d="M88.3 13L87 12l-1.5-.7-1.7-.2-1.6.1-1.7.3-1.8.7-1.7 1-1.7 1.1-1.6 1.5-1.5 1.6-1.3 1.9-1.3 2-1 2.2-.8 2.3-.5 2.4-.3 2.6 6 1.5.3-1 .5-1.1.4-1.3.6-1.3.7-1.4.7-1.5.8-1.4.9-1.5 1-1.4L80 19l1.2-1.3 1.2-1.2 1.3-1.1 1.5-1 1.5-.8 1.6-.6z"/><path fill="url(#ad)" stroke-width=".25" d="M72.9 32.5l.9.2 1.1.2 1.1.3 1.2.4 1.2.4 1.1.3 1 .3 1 .3-.2-.1.8-1.4.7-1.5.6-1.5.6-1.6.7-1.6.6-1.4.6-1.6.8-1.6.8-1.4.8-1.2 1-1.3 1-1.1.9-1 1.2-.8 1.2-.6 1.2-.5-1.1-.7-1.1-.5-1.2-.4L90 13l-1.4.1-1.4.4-1.5.6-1.5.9-1.5 1.1-1.5 1.4-1.5 1.7-1.5 2-1.4 2.3-1.4 2.6-1.3 3.1-1.2 3.3z"/><path fill="url(#ae)" stroke-width=".25" d="M102.1 17.2l-2.4-1.3-2.1-.7-2-.2-1.8.3-1.6.7-1.5 1-1.3 1.4-1.2 1.6-1 1.8-1 1.9-.9 2.1-.8 2-.8 2-.8 1.9-.7 1.8-.7 1.5.8.2.7.1.7.2.6.1.7.2.7.2.7.1.9.2.8-1.6.7-1.6.7-1.5.7-1.5.6-1.4.8-1.3.8-1.4.7-1.2.9-1.2.9-1.1.9-1.1 1.1-1 1.2-.9 1.2-.8 1.4-.8 1.4-.7z"/><path fill="url(#af)" stroke-width=".25" d="M109.4 19.3l-2.2-1.2-2-.5-2-.2-1.8.3-1.7.7-1.6 1.1-1.5 1.3-1.4 1.5-1.3 1.7-1.2 1.8-1.2 1.9-.9 1.9-1 2-.8 1.7-.7 1.7-.6 1.4.8.2.8.2.7.2.6.1.7.2.7.1.9.1.9.2 1-2.3 1.1-2.2 1-1.9 1-1.9.9-1.6.9-1.4.9-1.3.9-1.3.9-.9.9-.9 1-.8 1-.6.9-.5 1.1-.4 1.1-.2 1.2-.2z"/><path fill="url(#ag)" stroke-width=".25" d="M114.8 20.9l-2.1-1-1.9-.5h-1.9l-1.8.4-1.6.7-1.6 1-1.5 1.2-1.4 1.5-1.2 1.6-1.1 1.8-1.2 1.8-.9 1.8-.9 1.8-.8 1.7-.7 1.6-.6 1.5.7.2.6.1.7.1.6.2.6.1.6.1.7.2.8.1.3-1.1.6-1.3.6-1.3.8-1.4.8-1.4 1-1.4 1-1.4 1.1-1.4 1.1-1.3 1.2-1.3 1.3-1.1 1.2-1 1.3-.9 1.2-.8 1.2-.6 1.2-.3z"/><path fill="url(#ah)" stroke-width=".25" d="M121.4 22.6l-2.1-1.2-2.1-.5h-2.1l-2 .6-1.9.9-1.9 1.4-1.7 1.6-1.7 1.7-1.5 1.9-1.3 1.9-1.2 1.9-1 1.8-.8 1.5-.7 1.4-.3 1-.2.6.9.1.7.2.8.2.7.2.8.1.7.1.8.2.7.1.5-1 .6-1.2.7-1.4.8-1.4.9-1.6.9-1.5 1-1.5 1.1-1.6 1.1-1.5 1.1-1.3 1.3-1.2 1.2-1 1.3-.8 1.2-.6 1.4-.2 1.3.1z"/><path fill="url(#ai)" stroke-width=".25" d="M126.2 24.4l-1.9-1.3-1.9-.7-1.7-.1-1.8.3-1.6.7-1.6 1-1.4 1.3-1.4 1.6-1.3 1.7-1.2 1.8-1.1 1.8-1.1 1.9-.9 1.7-.8 1.7-.6 1.4-.6 1.1.7.1.6.2.5.2.5.2.5.1.5.2.4.1.6.1.5-1.4.6-1.5.7-1.4.7-1.4.8-1.4.8-1.2.9-1.3 1-1.2 1.1-1.2 1.1-1.1 1.2-.9 1.3-.9 1.4-.7 1.4-.7 1.5-.4 1.6-.4z"/><path fill="url(#aj)" stroke-width=".25" d="M132.3 25.8l-1.7-.6-1.7-.4-1.8-.2-1.6.2-1.7.3-1.6.5-1.5.9-1.6.9-1.5 1.2-1.4 1.4-1.3 1.5-1.3 1.7-1.2 1.9-1 2-1.1 2.2-.9 2.2.8.2.8.1.7.2.8.2.7.2.8.2.7.2.8.1.5-1.3.5-1.3.6-1.3.5-1.4.6-1.2.7-1.3.7-1.2.8-1.2 1-1.1 1.1-1.1 1.2-1 1.3-1 1.6-.8 1.6-.7 2-.7 2.1-.5z"/><path fill="url(#ak)" stroke-width=".25" d="M140.9 27.8l-2.2-.9-2.2-.6-2.1-.3h-2l-1.9.3-1.9.5-1.8.8-1.6.9-1.6 1.3-1.5 1.4-1.3 1.5-1.3 1.8-1.2 1.9-.9 2.1-1 2.1-.8 2.2.7.1.7.2.8.1.8.1.8.1.8.1.8.1.8.2.5-1.7.5-1.5.7-1.5.8-1.5.9-1.3 1-1.3 1-1.2 1.2-1.1 1.2-1.1 1.4-.8 1.5-.9 1.5-.7 1.6-.5 1.7-.5 1.8-.2 1.8-.2z"/><path fill="url(#al)" stroke-width=".25" d="M145.1 28.3l-1.9-.3-2-.2-1.9.1-1.9.2-1.8.5-1.8.6-1.7.7-1.6 1L129 32l-1.5 1.3-1.2 1.4-1.3 1.5-1 1.8-.9 1.9-.8 2-.6 2.1.7.1.6.1.6.1.6.1.6.1.5.1.7.2.8.1 1-1.7.9-1.6.8-1.5.8-1.4.8-1.3.8-1.2.7-1.2.9-1 .9-1 1.1-.9 1.1-.8 1.3-.8 1.5-.6 1.7-.6 1.9-.5 2.1-.5z"/><path fill="url(#am)" stroke-width=".25" d="M154.4 29.5l-2.9-.7-2.8-.4-2.5-.1-2.3.2-2.1.5-2 .7-1.8.9-1.7 1.1-1.5 1.3-1.4 1.5-1.3 1.6-1.2 1.7-1.1 1.7-1.1 1.9-.9 1.8-.9 1.9.4.1.7.1.7.1.7.2.8.1.7.2.6.1h.5l.9-1.7.9-1.6 1.1-1.5 1.1-1.4 1.2-1.4 1.2-1.2 1.3-1.1 1.4-1 1.5-1 1.5-.8 1.6-.8 1.6-.8 1.7-.6 1.7-.6 1.8-.5 1.9-.5z"/><path fill="url(#an)" stroke-width=".25" d="M159.9 30.1l-1.6-.3-1.7-.1-1.9.1-1.9.3-1.9.4-2 .6-2 .8-1.9.9-2 1.1-1.9 1.3-1.8 1.4-1.7 1.6-1.6 1.7-1.5 1.9-1.2 2-1.1 2.2.8.1.8.1.8.2.8.1.7.2.6.2h.8l1.1-.7 1.2-.8 1.2-1 1.3-1 1.3-1.1 1.3-1.2 1.4-1.2 1.4-1.2 1.5-1.2 1.4-1.2 1.5-1.2 1.5-1.2 1.6-1.1 1.5-1 1.7-.9 1.5-.8z"/><path fill="url(#ao)" stroke-width=".25" d="M167.7 32.3l-1.5-1.5-1.6-.8-1.6-.4-1.7.1-1.7.5-1.9.9-1.8 1.2-2 1.3-2 1.6-2 1.7-2.1 1.8-2 1.8-2.1 1.8-2.1 1.7-2.1 1.6-2.1 1.4.6.1.8.1h.9l1 .1.9.1h1.9l.8-.1 1.5-1.1 1.6-1.2 1.5-1.3 1.4-1.2 1.4-1.3L153 40l1.3-1.2 1.4-1.2 1.4-1 1.3-1 1.4-.9 1.5-.8 1.5-.6 1.6-.5 1.6-.3 1.7-.2z"/><path fill="url(#ap)" stroke-width=".25" d="M173.5 33l-2.4-.6-2.3-.2-2.2.1-2 .4-1.9.7-1.9.9-1.8 1.1-1.7 1.2-1.7 1.4-1.7 1.4-1.7 1.5-1.6 1.6-1.7 1.4-1.7 1.5-1.8 1.2-1.8 1.3h.6l.7.1.9.2h.9l.8.1.8.2h.6l.3.1h1.1l1-.3 1.1-.6 1.2-.7 1.2-.9L156 45l1.4-1.3 1.4-1.3 1.4-1.3 1.6-1.4 1.7-1.3 1.7-1.3 2-1.2 1.9-1.2 2.1-.9 2.3-.8z"/><path fill="url(#aq)" stroke-width=".25" d="M180.8 35l-2.1-1.2-2.3-.5h-2.2l-2.3.5-2.2.8-2.3 1.3-2.2 1.4-2.2 1.6-2 1.7-2 1.8-1.9 1.6-1.8 1.5-1.5 1.3-1.5 1-1.3.6-1.1.2 1 .1.9.2 1.2.1 1.1.2 1.2.1 1.1.2 1.2.1h.9l1.7-1.2 1.4-1.2 1.4-1.1 1.2-1.2 1.2-1.1 1.1-1.1 1.2-1 1.1-1 1.1-.9 1.2-.9 1.3-.8 1.4-.8 1.5-.7 1.6-.6 1.9-.5 2-.5z"/><g stroke-width=".25"><path fill="url(#ar)" d="M20.7 11.1l-.2-.5-.3-.7-.2-.6-.2-.7-.2-.7-.1-.7-.1-.7-.1-.8-.1-.7V2.8l.1-.7.1-.7.2-.7.2-.6-1 1.2-.7 1.3-.5 1.3-.3 1.4-.1 1.4v1.4l.2 1.4.3 1.4.3 1.3.5 1.4.5 1.3.5 1.4.6 1.2.5 1.3.6 1.2.5 1.2-.1-.3-.1-.4v-.9l-.1-.7V16.9l-.1-.8v-1.6l-.1-.7v-.7l-.2-.7-.1-.7-.2-.6z" transform="translate(19)"/><path fill="url(#as)" d="M3 35.3l1.1-.6 1.1-.7 1.1-.7 1-.6 1-.6 1-.6.9-.6 1-.6.9-.6 1-.6.9-.7 1-.5.9-.6 1-.5 1.1-.6 1-.6-.9.9-.9 1-1 .9-.9.9-1 .9-1 .8-1 .8-1 .8-1 .7-1.1.6-1 .5-1 .4-1 .4-1.1.1-1 .1-1.1-.1z" transform="translate(19)"/><path fill="url(#at)" d="M11.7 12l.8.5.7.5.8.5.7.6.7.5.6.6.7.6.6.6.6.6.6.7.6.6.5.7.6.6.5.7.5.7.5.7-.2-.7-.3-.8-.3-.8-.3-.8-.4-.8-.4-.8-.4-.7-.6-.8-.5-.7-.8-.6-.7-.6-.8-.5-1-.4-.9-.3-1.2-.3-1.2-.1z" transform="translate(19)"/><path fill="url(#au)" d="M20.3 5l.3 1.2.1 1.2.3 1.1.2 1.1.1 1.1.1 1 .2 1.1.1 1 .2 1.1.1 1 .1 1 .2 1.1.2 1 .2 1.1.2 1 .2 1.1.2-1.3.1-1.2.2-1.3.1-1.3v-1.2l.1-1.2-.1-1.2v-1.2l-.2-1.2-.1-1-.3-1.1-.4-.9-.4-.9-.6-.8-.6-.7-.8-.7z" transform="translate(19)"/><path fill="url(#av)" d="M14.1 3.1l-1 1-.7 1.1-.3 1.2v1.2l.2 1.2.5 1.3.6 1.3.8 1.3.8 1.2 1 1.2 1 1.2 1 1 .9 1.1.8.8.7.9.6.6-.1-1.8-.3-1.5-.3-1.3-.4-1.1-.5-1-.6-.9-.6-.8-.6-.8-.6-.7-.6-.8-.6-.8-.5-.9-.4-1.1-.4-1.1-.3-1.4-.1-1.6z" transform="translate(19)"/><path fill="url(#aw)" d="M21.6 21.7v-2.3l.1-1.2V17l.1-1.1.1-1.1.1-1.1.1-1 .2-1.1.2-1.1.3-1.1.2-1 .3-1 .4-1.1.4-1 .4-1.1-1.7 1.6-1.4 1.6-.9 1.5-.7 1.4-.5 1.3-.2 1.2-.1 1.3.1 1.1.3 1 .3 1 .4.9.4.8.4.9.3.7.3.7.1.5z" transform="translate(19)"/><path fill="url(#ax)" d="M4.5 25.8l.9.1 1 .2.9.1.9.2h1l.9.1h1.8l.9-.1h.9l.9-.1.9-.1h1l.8-.1 1-.2.8-.1-.7.4-.8.3-.8.3-.8.3-.9.3-.9.2-.9.3-.9.1H9.5l-1-.2-1-.3-1-.4-1-.6-1-.7z" transform="translate(19)"/><path fill="url(#ay)" d="M9.9 30.5l-.7.1-.6.1-.7.2-.7.2-.7.3-.7.2-.6.3-.7.3-.7.4-.6.4-.6.4-.6.4-.5.5-.5.4-.4.5-.5.5.5-1.4.6-1.2.7-1 1-1 1-.8 1.2-.8 1.3-.6 1.3-.6 1.4-.4 1.4-.5L12 27l1.4-.3 1.5-.3 1.4-.3 1.3-.2 1.2-.3-.6.2-.9.5-1 .7-1.3.7-1.3.9-1.3.7-1.3.7-1.2.5z" transform="translate(19)"/><path fill="url(#az)" d="M7.3 40.9l-.6-1.3-.1-1.3.1-1.3.5-1.2.7-1.1.9-1.1 1.1-1 1.3-.9 1.2-1 1.4-.8 1.4-.8 1.3-.7 1.2-.7 1.2-.5 1-.6.7-.4-.8 1.7-.8 1.4-.9 1.1-.8 1-.8.7-.9.7-.9.5-.9.6-.8.5-.9.6-.9.6-.8.7-.8.8-.8 1.1-.8 1.2-.7 1.5z" transform="translate(19)"/><path fill="url(#aA)" d="M21.9 26.6l-.6 1-.7 1-.6.9-.6 1-.5.9-.5 1-.5.9-.5 1-.5 1-.4 1-.4.9-.3 1-.3 1-.3 1-.3 1.1-.2 1.1-.6-2.2-.3-2v-1.7L14 35l.3-1.3.5-1.2.7-1 .7-.8.8-.7.8-.7.9-.5.8-.5.7-.4.7-.4.6-.5.4-.4z" transform="translate(19)"/></g></g></svg>