<svg width="256" height="242" xmlns="http://www.w3.org/2000/svg" preserveAspectRatio="xMidYMid"><path d="M0 0h256L128 241.5 0 0"/><path d="M159 64.2a7.2 7.2 0 1 1-14.5 0 7.2 7.2 0 0 1 14.5 0" fill="#00ADCC"/><path d="M159 84a7.2 7.2 0 1 1-14.5 0 7.2 7.2 0 0 1 14.5 0" fill="#005766"/><path d="M159 103.9a7.2 7.2 0 1 1-14.5 0 7.2 7.2 0 0 1 14.5 0" fill="#00D8FE"/><path d="M115.5 103.9a7.2 7.2 0 1 1-14.4 0 7.2 7.2 0 0 1 14.4 0" fill="#008DA6"/><path d="M115.5 84a7.2 7.2 0 1 1-14.4 0 7.2 7.2 0 0 1 14.4 0m0-19.8a7.2 7.2 0 1 1-14.4 0 7.2 7.2 0 0 1 14.4 0" fill="#00D8FE"/><path d="M137.3 64.2a7.2 7.2 0 1 1-14.5 0 7.2 7.2 0 0 1 14.5 0" fill="#005766"/><path d="M137.3 84a7.2 7.2 0 1 1-14.5 0 7.2 7.2 0 0 1 14.5 0" fill="#00C3E6"/><path d="M137.3 103.9a7.2 7.2 0 1 1-14.5 0 7.2 7.2 0 0 1 14.5 0" fill="#008DA6"/><path d="M137.3 124a7.2 7.2 0 1 1-14.5 0 7.2 7.2 0 0 1 14.5 0" fill="#00D8FE"/></svg>