<svg xmlns="http://www.w3.org/2000/svg" viewBox="0 0 256 256" preserveAspectRatio="xMidYMid"><path fill="#FFF" d="M255.96 134.4c0-21.53-13.37-40.12-33.22-47.44.83-4.6 1.25-8.98 1.25-13.8C224 33.26 191.6.9 151.7.9c-23.2 0-44.93 11.07-58.5 30.08-6.7-5.22-14.85-7.94-23.4-7.94-21.12 0-38.46 17.14-38.46 38.45 0 4.6.84 9.2 2.3 13.3C13.58 81.7 0 100.9 0 122.2c0 21.58 13.37 40.38 33.43 47.7-.83 4.4-1.25 9-1.25 13.8 0 39.7 32.38 72.1 72.08 72.1 23.4 0 44.93-11.3 58.5-30.1 6.7 5.26 15.05 8.2 23.62 8.2 21.1 0 38.45-17.15 38.45-38.46 0-4.6-.84-9.2-2.3-13.37 19.64-7.1 33.43-26.35 33.43-47.67z"/><path fill="#F4BD19" d="M100.1 110.36l57.03 26.12 57.67-50.56c.83-4.18 1.25-8.36 1.25-12.75 0-35.52-28.83-64.35-64.36-64.35-21.4 0-41.2 10.44-53.1 28L89 86.54l11.08 23.82z"/><path fill="#3CBEB1" d="M40.95 170.75c-.83 4.18-1.25 8.57-1.25 12.95 0 35.53 29.04 64.57 64.56 64.57 21.53 0 41.38-10.66 53.5-28.2l9.4-49.74-12.75-24.24-57.2-26.2L41 170.7z"/><path fill="#E9478C" d="M40.54 71.92l39.07 9.2 8.8-44.5c-5.4-4.2-11.9-6.28-18.8-6.28-16.9 0-30.9 13.8-30.9 30.92 0 3.55.6 7.32 1.9 10.66z"/><path fill="#2C458F" d="M37.2 81.32C19.63 86.96 7.5 103.9 7.5 122.27c0 17.97 11.08 34.06 27.8 40.33l54.94-49.73-10.02-21.52L37.2 81.32z"/><path fill="#95C63D" d="M167.78 219.85c5.44 4.18 11.9 6.48 18.6 6.48 16.92 0 30.92-13.8 30.92-30.92 0-3.7-.62-7.3-1.88-10.6l-39.07-9.2-8.57 44.3z"/><path fill="#176655" d="M175.72 165.32l43.05 10.03c17.55-5.85 29.67-22.57 29.67-40.96 0-18-11.08-33.9-27.8-40.4l-56.4 49.3 11.48 21.93z"/></svg>