<svg xmlns="http://www.w3.org/2000/svg" viewBox="0 0 256 249" preserveAspectRatio="xMidYMid"><path fill="#326DE6" d="M82.085 244.934c-5.946 0-11.56-2.642-15.36-7.432L8.92 165.657c-3.8-4.79-5.286-10.9-3.8-16.847l20.645-89.682c1.32-5.946 5.285-10.736 10.736-13.378l83.58-39.97c2.65-1.32 5.62-1.98 8.59-1.98s5.95.66 8.59 1.98l83.57 39.805c5.45 2.642 9.42 7.432 10.74 13.378l20.65 89.682c1.33 5.946 0 12.057-3.79 16.847l-57.81 71.845c-3.8 4.624-9.41 7.432-15.36 7.432l-93.15.16z"/><path fill="#FFF" d="M128.495 7.928c2.313 0 4.625.495 6.772 1.486l83.572 39.804c4.29 2.147 7.59 6.11 8.58 10.736l20.64 89.682c1.15 4.79 0 9.745-3.14 13.543l-57.81 71.84c-2.98 3.8-7.6 5.94-12.39 5.94H82.08c-4.79 0-9.414-2.15-12.387-5.95l-57.81-71.84c-2.973-3.8-4.13-8.76-3.138-13.55l20.65-89.68c1.155-4.79 4.293-8.76 8.587-10.74l83.572-39.97c2.14-.83 4.62-1.32 6.93-1.32zm0-7.763c-3.468 0-6.936.826-10.24 2.312l-83.57 39.97c-6.608 3.138-11.232 8.918-12.884 16.02L1.16 148.15c-1.65 7.102 0 14.37 4.625 20.15l57.807 71.845c4.46 5.615 11.23 8.753 18.332 8.753h92.655c7.1 0 13.87-3.138 18.33-8.753l57.81-71.845c4.62-5.62 6.27-13.05 4.62-20.15L234.7 58.463c-1.65-7.102-6.277-12.882-12.883-16.02L138.57 2.473C135.432.99 131.964.168 128.495.168z"/><path fill="#FFF" d="M212.232 142.534c-.165 0-.165 0 0 0h-.165c-.165 0-.33 0-.33-.165-.33 0-.66-.17-.99-.17-1.157-.17-2.148-.33-3.14-.33-.495 0-.99 0-1.65-.17h-.166c-3.46-.33-6.27-.66-8.91-1.49-1.15-.5-1.48-1.16-1.81-1.82 0-.17-.16-.17-.16-.33l-2.14-.66c.99-7.6.66-15.53-1.15-23.29s-4.95-15.03-9.25-21.64l1.65-1.49v-.33c0-.83.17-1.65.83-2.48 1.98-1.82 4.46-3.31 7.43-5.12.5-.33.99-.5 1.49-.83.99-.5 1.82-.99 2.81-1.65.17-.17.5-.33.83-.66.17-.17.33-.17.33-.33 2.31-1.98 2.81-5.29 1.16-7.44-.82-1.16-2.31-1.82-3.8-1.82-1.32 0-2.47.49-3.63 1.32l-.33.33c-.33.16-.49.49-.82.66-.825.83-1.486 1.49-2.146 2.31-.33.33-.66.824-1.155 1.154-2.314 2.48-4.46 4.46-6.608 5.95-.493.33-.99.497-1.484.497-.33 0-.66 0-.99-.164h-.33l-1.982 1.32c-2.145-2.31-4.46-4.296-6.77-6.278-9.91-7.767-21.97-12.557-34.52-13.71l-.163-2.15-.33-.33c-.493-.5-1.153-.99-1.32-2.15-.164-2.647.167-5.62.497-8.92V50c0-.5.165-1.16.33-1.65.165-.99.33-1.98.496-3.14v-1.49c0-2.974-2.316-5.45-5.12-5.45-1.32 0-2.646.66-3.637 1.65-.99.99-1.49 2.31-1.49 3.8v1.32c0 1.156.166 2.147.496 3.14.16.494.16.99.33 1.65V50c.33 3.302.82 6.275.49 8.92-.166 1.154-.827 1.65-1.32 2.145l-.33.33-.167 2.147c-2.97.33-5.944.66-8.92 1.32-12.714 2.81-23.945 9.25-32.7 18.5l-1.65-1.16h-.33c-.33 0-.66.166-.99.166-.497 0-.99-.162-1.49-.492-2.145-1.484-4.29-3.63-6.604-6.11-.33-.33-.66-.825-1.155-1.155-.66-.82-1.324-1.48-2.15-2.31-.165-.16-.495-.33-.825-.66-.166-.16-.33-.16-.33-.33-.99-.82-2.31-1.32-3.63-1.32-1.49 0-2.98.66-3.8 1.82-1.65 2.15-1.16 5.45 1.15 7.44.167 0 .167.17.33.17.33.166.498.496.828.66.99.66 1.82 1.157 2.81 1.65.49.168.99.498 1.482.83 2.97 1.817 5.45 3.3 7.43 5.12.82.826.82 1.65.82 2.48v.33l1.64 1.5c-.33.496-.66.827-.826 1.32-8.26 13.05-11.397 28.41-9.25 43.6l-2.147.66c0 .167-.166.167-.166.33-.33.66-.824 1.32-1.82 1.818-2.472.827-5.45 1.158-8.92 1.488h-.17c-.49 0-1.152 0-1.65.16-.99 0-1.98.16-3.14.33-.33 0-.66.16-.99.16-.16 0-.33 0-.492.168-2.98.66-4.79 3.468-4.3 6.11.49 2.31 2.64 3.8 5.28 3.8.49 0 .82 0 1.32-.16.16 0 .33 0 .33-.167.33 0 .66-.164.99-.164 1.15-.33 1.98-.66 2.97-1.16.49-.163.99-.494 1.48-.66h.167c3.14-1.155 5.943-2.146 8.59-2.476h.33c.99 0 1.65.5 2.143.83.17 0 .17.166.33.166l2.318-.33c3.967 12.22 11.56 23.12 21.64 31.05 2.313 1.816 4.625 3.303 7.103 4.79l-.99 2.146c0 .17.162.17.162.33.33.66.66 1.49.33 2.647-.99 2.48-2.474 4.957-4.29 7.765v.164c-.33.493-.66.823-.99 1.32-.66.824-1.158 1.65-1.82 2.64-.166.17-.33.5-.496.83 0 .162-.168.33-.168.33-1.32 2.805-.33 5.943 2.145 7.1.66.33 1.32.494 1.986.494 1.98 0 3.965-1.32 4.956-3.14 0-.163.17-.33.17-.33.16-.33.33-.66.49-.824.496-1.153.66-1.98.99-2.97l.5-1.486c1.153-3.3 1.98-5.942 3.465-8.254.66-.99 1.49-1.157 2.15-1.488.17 0 .17 0 .33-.162l1.16-2.144c7.265 2.81 15.193 4.294 23.12 4.294 4.79 0 9.745-.5 14.37-1.65 2.972-.666 5.78-1.49 8.59-2.48l.99 1.814c.164 0 .164 0 .33.163.825.17 1.485.5 2.15 1.49 1.32 2.32 2.31 5.12 3.47 8.26v.17l.494 1.49c.33.99.495 1.98.99 2.97.163.33.33.5.493.83 0 .17.165.33.165.33.99 1.98 2.97 3.14 4.95 3.14.66 0 1.32-.17 1.98-.5 1.158-.66 2.15-1.65 2.48-2.97.33-1.32.33-2.81-.33-4.13 0-.16-.165-.16-.165-.33-.16-.33-.33-.66-.49-.82-.5-.99-1.16-1.814-1.82-2.64-.33-.5-.66-.83-.99-1.32v-.17c-1.815-2.802-3.466-5.28-4.29-7.76-.33-1.154 0-1.814.17-2.64 0-.165.164-.165.164-.33l-.822-1.98c8.755-5.12 16.187-12.39 21.8-21.31 2.975-4.626 5.287-9.746 6.938-14.866l1.98.33c.163 0 .163-.163.33-.163.66-.33 1.154-.83 2.145-.83h.33c2.645.33 5.45 1.32 8.59 2.476h.166c.495.164.99.494 1.486.66.99.495 1.812.825 2.97 1.156.33 0 .66.168.99.168.163 0 .33 0 .493.167.498.167.828.167 1.32.167 2.48 0 4.627-1.65 5.288-3.8 0-1.98-1.812-4.622-4.79-5.45zm-76.47-8.093l-7.267 3.47-7.267-3.47-1.816-7.76 4.954-6.27h8.093l4.95 6.28-1.65 7.76zm43.108-17.17c1.32 5.62 1.65 11.23 1.156 16.68l-25.27-7.26c-2.312-.66-3.633-2.97-3.138-5.28.165-.66.496-1.32.99-1.81l19.986-18c2.807 4.63 4.954 9.91 6.276 15.69zm-14.204-25.6l-21.636 15.36c-1.817 1.16-4.295.83-5.78-.99-.496-.49-.662-1.16-.827-1.82l-1.486-26.92c11.396 1.33 21.8 6.45 29.73 14.37zM116.77 78.12c1.816-.33 3.467-.66 5.284-.99l-1.486 26.426c-.165 2.312-1.982 4.294-4.46 4.294-.66 0-1.486-.165-1.982-.495L92.16 91.665c6.772-6.772 15.195-11.397 24.61-13.544zm-32.54 23.455l19.654 17.507c1.817 1.488 1.982 4.295.496 6.112-.496.66-1.156 1.156-1.982 1.322l-25.6 7.432c-.99-11.23 1.486-22.627 7.432-32.372zm-4.46 44.76l26.262-4.46c2.147-.166 4.13 1.32 4.624 3.468.165.99.165 1.817-.165 2.643l-10.07 24.278c-9.25-5.946-16.68-15.03-20.64-25.93zm60.285 32.866c-3.8.83-7.598 1.32-11.562 1.32-5.78 0-11.396-.99-16.68-2.64l13.047-23.62c1.32-1.48 3.468-2.14 5.285-1.15.826.5 1.487 1.16 1.982 1.82l12.716 22.96c-1.486.5-3.138.83-4.79 1.32zm32.206-22.95c-4.13 6.61-9.58 11.89-15.85 16.02L146 147.33c-.495-1.98.33-4.13 2.313-5.12.66-.33 1.486-.5 2.312-.5l26.426 4.46c-.99 3.63-2.64 6.934-4.79 10.07z"/></svg>