<?xml version="1.0" encoding="UTF-8" standalone="no"?>
<!-- Created with Inkscape (http://www.inkscape.org/) -->

<svg
   xmlns:dc="http://purl.org/dc/elements/1.1/"
   xmlns:cc="http://creativecommons.org/ns#"
   xmlns:rdf="http://www.w3.org/1999/02/22-rdf-syntax-ns#"
   xmlns:svg="http://www.w3.org/2000/svg"
   xmlns="http://www.w3.org/2000/svg"
   xmlns:sodipodi="http://sodipodi.sourceforge.net/DTD/sodipodi-0.dtd"
   xmlns:inkscape="http://www.inkscape.org/namespaces/inkscape"
   id="svg3711"
   version="1.1"
   inkscape:version="0.48.4 r9939"
   width="520.66876"
   height="266.13501"
   xml:space="preserve"
   sodipodi:docname="xwikilogo.svg"
   inkscape:export-filename="/home/gdelhumeau/xwiki/xwikilogo.png"
   inkscape:export-xdpi="86.676361"
   inkscape:export-ydpi="86.676361"><metadata
     id="metadata3717"><rdf:RDF><cc:Work
         rdf:about=""><dc:format>image/svg+xml</dc:format><dc:type
           rdf:resource="http://purl.org/dc/dcmitype/StillImage" /><dc:title></dc:title></cc:Work></rdf:RDF></metadata><defs
     id="defs3715" /><sodipodi:namedview
     pagecolor="#ffffff"
     bordercolor="#666666"
     borderopacity="1"
     objecttolerance="10"
     gridtolerance="10"
     guidetolerance="10"
     inkscape:pageopacity="0"
     inkscape:pageshadow="2"
     inkscape:window-width="1920"
     inkscape:window-height="1056"
     id="namedview3713"
     showgrid="false"
     inkscape:zoom="1.5756418"
     inkscape:cx="357.29232"
     inkscape:cy="74.330912"
     inkscape:window-x="1366"
     inkscape:window-y="24"
     inkscape:window-maximized="1"
     inkscape:current-layer="g3721"
     fit-margin-top="50"
     fit-margin-left="0"
     fit-margin-right="0"
     fit-margin-bottom="50"><sodipodi:guide
       position="0,50.000014"
       orientation="0,658.79999"
       id="guide3905" /><sodipodi:guide
       position="548.4016,293.23543"
       orientation="-166.1375,0"
       id="guide3907" /><sodipodi:guide
       position="658.79999,216.13752"
       orientation="0,-658.79999"
       id="guide3909" /><sodipodi:guide
       position="0,216.13752"
       orientation="166.1375,0"
       id="guide3911" /></sodipodi:namedview><g
     id="g3719"
     inkscape:groupmode="layer"
     inkscape:label="ink_ext_XXXXXX"
     transform="matrix(1.25,0,0,-1.25,0,216.135)"><g
       id="g3721"
       transform="scale(0.1,0.1)"><path
         d="m 1984.0521,1208.46 c 12.5843,43.95 36.1982,56.98 70.8173,56.98 34.627,0 58.2408,-13.03 70.8251,-56.98 l 258.0921,-936.05 3.1661,0 146.3635,926.28 c 7.8713,47.21 33.0401,66.75 75.5303,66.75 39.3564,0 62.9621,-29.31 62.9621,-65.12 0,-17.91 -1.563,-39.07 -7.8712,-73.26 L 2493.9761,181.25 c -9.4583,-50.469 -29.914,-94.418 -99.1602,-94.418 -53.5117,0 -86.5597,14.648 -108.5944,94.418 l -229.7732,849.77 -3.15,0 -229.7732,-849.77 c -22.0346,-79.77 -55.0988,-94.418 -108.5943,-94.418 -69.2542,0 -89.7099,43.949 -99.1521,94.418 l -169.9694,945.81 c -6.3002,34.19 -7.8793,55.35 -7.8793,73.26 0,35.81 23.6138,65.12 62.954,65.12 42.4902,0 67.6751,-19.54 75.5464,-66.75 l 146.3554,-926.28 3.1582,0 258.1081,936.05"
         style="fill:#f58113;fill-opacity:1;fill-rule:nonzero;stroke:none"
         id="path3723"
         inkscape:connector-curvature="0" /><path
         d="m 2940.9461,163.359 c 0,-47.23 -26.7719,-76.527 -69.2622,-76.527 -42.4984,0 -69.2543,29.297 -69.2543,76.527 l 0,1025.571 c 0,47.2 26.7559,76.51 69.2543,76.51 42.4903,0 69.2622,-29.31 69.2622,-76.51 l 0,-1025.571"
         style="fill:#f58113;fill-opacity:1;fill-rule:nonzero;stroke:none"
         id="path3725"
         inkscape:connector-curvature="0" /><path
         d="m 3261.992,163.359 c 0,-47.23 -26.7477,-76.527 -69.2542,-76.527 -42.4822,0 -69.2462,29.297 -69.2462,76.527 l 0,1025.571 c 0,47.2 26.764,76.51 69.2462,76.51 42.5065,0 69.2542,-29.31 69.2542,-76.51 l 0,-423.262 480.0182,454.182 c 25.1686,24.42 47.2114,45.59 75.5382,45.59 34.6352,0 59.812,-24.42 59.812,-61.87 0,-37.44 -12.5924,-50.46 -28.335,-65.11 L 3389.471,710.32 3891.5238,208.93 c 22.0266,-21.168 28.3188,-37.442 28.3188,-58.598 0,-34.203 -29.898,-63.5 -67.659,-63.5 -20.4557,0 -39.3644,3.2696 -67.6832,30.938 l -522.5084,530.691 0,-485.102"
         style="fill:#f58113;fill-opacity:1;fill-rule:nonzero;stroke:none"
         id="path3727"
         inkscape:connector-curvature="0" /><path
         d="m 4165.3502,163.359 c 0,-47.23 -26.7558,-76.527 -69.2703,-76.527 -42.4742,0 -69.2301,29.297 -69.2301,76.527 l 0,1025.571 c 0,47.2 26.7559,76.51 69.2301,76.51 42.5145,0 69.2703,-29.31 69.2703,-76.51 l 0,-1025.571"
         style="fill:#f58113;fill-opacity:1;fill-rule:nonzero;stroke:none"
         id="path3729"
         inkscape:connector-curvature="0" /><path
         d="m 248.953,618.008 c 25.692,0 46.535,20.828 46.535,46.547 l 0,0 c 0,25.691 -20.843,46.566 -46.535,46.566 l -202.4139,0 C 20.8398,711.121 0,690.246 0,664.555 l 0,0 c 0,-25.719 20.8398,-46.547 46.5391,-46.547 l 202.4139,0"
         style="fill:#0b8ed8;fill-opacity:1;fill-rule:nonzero;stroke:none"
         id="path3731"
         inkscape:connector-curvature="0" /><path
         d="m 617.98,248.961 c 0,25.68 20.86,46.551 46.536,46.551 l 0,0 c 25.722,0 46.562,-20.871 46.562,-46.551 l 0,-202.4102 C 711.078,20.8594 690.238,0 664.516,0 l 0,0 C 638.84,0 617.98,20.8594 617.98,46.5508 l 0,202.4102"
         style="fill:#ed1c24;fill-opacity:1;fill-rule:nonzero;stroke:none"
         id="path3733"
         inkscape:connector-curvature="0" /><path
         d="m 617.98,1282.56 c 0,25.69 20.86,46.52 46.536,46.52 l 0,0 c 25.722,0 46.562,-20.83 46.562,-46.52 l 0,-202.42 c 0,-25.7 -20.84,-46.53 -46.562,-46.53 l 0,0 c -25.676,0 -46.536,20.83 -46.536,46.53 l 0,202.42"
         style="fill:#80cc28;fill-opacity:1;fill-rule:nonzero;stroke:none"
         id="path3735"
         inkscape:connector-curvature="0" /><path
         d="m 774.973,667.207 391.217,454.613 c 29.93,34.78 25.98,87.24 -8.79,117.15 -34.77,29.94 -87.22,26.01 -117.15,-8.79 L 665.383,794.543 290.52,1230.18 c -29.938,34.8 -82.372,38.73 -117.168,8.79 -34.789,-29.91 -38.719,-82.37 -8.786,-117.15 L 555.793,667.207 164.594,212.621 c -29.93,-34.781 -26.031,-87.23 8.758,-117.1718 34.796,-29.9101 87.23,-25.9687 117.168,8.8008 L 665.383,539.859 1040.23,104.25 c 29.94,-34.7695 82.4,-38.7109 117.17,-8.8008 34.77,29.9418 38.69,82.3908 8.76,117.1718 L 774.973,667.207"
         style="fill:#5a5758;fill-opacity:1;fill-rule:nonzero;stroke:none"
         id="path3737"
         inkscape:connector-curvature="0" /><path
         d="m 1277.11,616.965 c 25.7,0 46.54,20.84 46.54,46.551 l 0,0 c 0,25.695 -20.84,46.57 -46.54,46.57 l -202.41,0 c -25.7,0 -46.56,-20.875 -46.56,-46.57 l 0,0 c 0,-25.711 20.86,-46.551 46.56,-46.551 l 202.41,0"
         style="fill:#f58113;fill-opacity:1;fill-rule:nonzero;stroke:none"
         id="path3739"
         inkscape:connector-curvature="0" /></g></g></svg>